%TF.GenerationSoftware,KiCad,Pcbnew,9.0.2*%
%TF.CreationDate,2025-12-21T22:34:27+01:00*%
%TF.ProjectId,driver_pcb,64726976-6572-45f7-9063-622e6b696361,rev?*%
%TF.SameCoordinates,PX463a840PY7ead330*%
%TF.FileFunction,Copper,L2,Bot*%
%TF.FilePolarity,Positive*%
%FSLAX46Y46*%
G04 Gerber Fmt 4.6, Leading zero omitted, Abs format (unit mm)*
G04 Created by KiCad (PCBNEW 9.0.2) date 2025-12-21 22:34:27*
%MOMM*%
%LPD*%
G01*
G04 APERTURE LIST*
%TA.AperFunction,ComponentPad*%
%ADD10C,1.700000*%
%TD*%
%TA.AperFunction,ComponentPad*%
%ADD11R,1.700000X1.700000*%
%TD*%
%TA.AperFunction,Conductor*%
%ADD12C,1.000000*%
%TD*%
G04 APERTURE END LIST*
D10*
%TO.P,J9,2,Pin_2*%
%TO.N,GND*%
X35580000Y61710000D03*
D11*
%TO.P,J9,1,Pin_1*%
%TO.N,Net-(J2-Pin_2)*%
X35580000Y59170000D03*
%TD*%
%TO.P,J2,1,Pin_1*%
%TO.N,+12V*%
X35580000Y38850000D03*
D10*
%TO.P,J2,2,Pin_2*%
%TO.N,Net-(J2-Pin_2)*%
X35580000Y36310000D03*
%TO.P,J2,3,Pin_3*%
%TO.N,unconnected-(J2-Pin_3-Pad3)*%
X35580000Y33770000D03*
%TD*%
D11*
%TO.P,J7,1,Pin_1*%
%TO.N,Net-(J7-Pin_1)*%
X5100000Y54090000D03*
D10*
%TO.P,J7,2,Pin_2*%
%TO.N,Net-(J7-Pin_2)*%
X5100000Y51550000D03*
%TO.P,J7,3,Pin_3*%
%TO.N,+5V*%
X5100000Y49010000D03*
%TO.P,J7,4,Pin_4*%
%TO.N,GND*%
X5100000Y46470000D03*
%TD*%
D11*
%TO.P,J6,1,Pin_1*%
%TO.N,Net-(J6-Pin_1)*%
X5100000Y87110000D03*
D10*
%TO.P,J6,2,Pin_2*%
%TO.N,Net-(J6-Pin_2)*%
X5100000Y84570000D03*
%TD*%
D11*
%TO.P,J8,1,Pin_1*%
%TO.N,Net-(J7-Pin_1)*%
X27960000Y89650000D03*
D10*
%TO.P,J8,2,Pin_2*%
%TO.N,Net-(J7-Pin_2)*%
X27960000Y87110000D03*
%TO.P,J8,3,Pin_3*%
%TO.N,Net-(J1-Pin_20)*%
X27960000Y84570000D03*
%TO.P,J8,4,Pin_4*%
%TO.N,Net-(J1-Pin_22)*%
X27960000Y82030000D03*
%TO.P,J8,5,Pin_5*%
%TO.N,Net-(J1-Pin_21)*%
X27960000Y79490000D03*
%TO.P,J8,6,Pin_6*%
%TO.N,Net-(J1-Pin_24)*%
X27960000Y76950000D03*
%TO.P,J8,7,Pin_7*%
%TO.N,Net-(J1-Pin_25)*%
X27960000Y74410000D03*
%TO.P,J8,8,Pin_8*%
%TO.N,Net-(J1-Pin_26)*%
X27960000Y71870000D03*
%TO.P,J8,9,Pin_9*%
%TO.N,Net-(J1-Pin_13)*%
X27960000Y69330000D03*
%TO.P,J8,10,Pin_10*%
%TO.N,unconnected-(J8-Pin_10-Pad10)*%
X27960000Y66790000D03*
%TO.P,J8,11,Pin_11*%
%TO.N,+12V*%
X27960000Y64250000D03*
%TO.P,J8,12,Pin_12*%
%TO.N,+3.3V*%
X27960000Y61710000D03*
%TO.P,J8,13,Pin_13*%
%TO.N,GND*%
X27960000Y59170000D03*
%TO.P,J8,14,Pin_14*%
%TO.N,Net-(J3-Pin_1)*%
X27960000Y56630000D03*
%TO.P,J8,15,Pin_15*%
%TO.N,Net-(J3-Pin_2)*%
X27960000Y54090000D03*
%TO.P,J8,16,Pin_16*%
%TO.N,Net-(J4-Pin_2)*%
X27960000Y51550000D03*
%TO.P,J8,17,Pin_17*%
%TO.N,Net-(J4-Pin_1)*%
X27960000Y49010000D03*
%TO.P,J8,18,Pin_18*%
%TO.N,GND*%
X27960000Y46470000D03*
%TO.P,J8,19,Pin_19*%
%TO.N,unconnected-(J8-Pin_19-Pad19)*%
X27960000Y43930000D03*
%TO.P,J8,20,Pin_20*%
%TO.N,+12V*%
X27960000Y41390000D03*
%TO.P,J8,21,Pin_21*%
%TO.N,+3.3V*%
X27960000Y38850000D03*
%TO.P,J8,22,Pin_22*%
%TO.N,GND*%
X27960000Y36310000D03*
%TO.P,J8,23,Pin_23*%
%TO.N,Net-(J5-Pin_1)*%
X27960000Y33770000D03*
%TO.P,J8,24,Pin_24*%
%TO.N,Net-(J5-Pin_2)*%
X27960000Y31230000D03*
%TO.P,J8,25,Pin_25*%
%TO.N,Net-(J6-Pin_2)*%
X27960000Y28690000D03*
%TO.P,J8,26,Pin_26*%
%TO.N,Net-(J6-Pin_1)*%
X27960000Y26150000D03*
%TO.P,J8,27,Pin_27*%
%TO.N,GND*%
X27960000Y23610000D03*
%TD*%
D11*
%TO.P,J3,1,Pin_1*%
%TO.N,Net-(J3-Pin_1)*%
X35560000Y84440000D03*
D10*
%TO.P,J3,2,Pin_2*%
%TO.N,Net-(J3-Pin_2)*%
X35560000Y86980000D03*
%TD*%
D11*
%TO.P,J4,1,Pin_1*%
%TO.N,Net-(J4-Pin_1)*%
X35580000Y15990000D03*
D10*
%TO.P,J4,2,Pin_2*%
%TO.N,Net-(J4-Pin_2)*%
X35580000Y13450000D03*
%TD*%
D11*
%TO.P,J1,1,Pin_1*%
%TO.N,+5V*%
X12720000Y89650000D03*
D10*
%TO.P,J1,2,Pin_2*%
%TO.N,GND*%
X12720000Y87110000D03*
%TO.P,J1,3,Pin_3*%
%TO.N,+3.3V*%
X12720000Y84570000D03*
%TO.P,J1,4,Pin_4*%
%TO.N,unconnected-(J1-Pin_4-Pad4)*%
X12720000Y82030000D03*
%TO.P,J1,5,Pin_5*%
%TO.N,Net-(J1-Pin_12)*%
X12720000Y79490000D03*
%TO.P,J1,6,Pin_6*%
%TO.N,Net-(J1-Pin_11)*%
X12720000Y76950000D03*
%TO.P,J1,7,Pin_7*%
%TO.N,Net-(J1-Pin_15)*%
X12720000Y74410000D03*
%TO.P,J1,8,Pin_8*%
%TO.N,Net-(J1-Pin_16)*%
X12720000Y71870000D03*
%TO.P,J1,9,Pin_9*%
%TO.N,Net-(J1-Pin_17)*%
X12720000Y69330000D03*
%TO.P,J1,10,Pin_10*%
%TO.N,unconnected-(J1-Pin_10-Pad10)*%
X12720000Y66790000D03*
%TO.P,J1,11,Pin_11*%
%TO.N,Net-(J1-Pin_11)*%
X12720000Y64250000D03*
%TO.P,J1,12,Pin_12*%
%TO.N,Net-(J1-Pin_12)*%
X12720000Y61710000D03*
%TO.P,J1,13,Pin_13*%
%TO.N,Net-(J1-Pin_13)*%
X12720000Y59170000D03*
%TO.P,J1,14,Pin_14*%
%TO.N,+3.3V*%
X12720000Y56630000D03*
%TO.P,J1,15,Pin_15*%
%TO.N,Net-(J1-Pin_15)*%
X12720000Y54090000D03*
%TO.P,J1,16,Pin_16*%
%TO.N,Net-(J1-Pin_16)*%
X12720000Y51550000D03*
%TO.P,J1,17,Pin_17*%
%TO.N,Net-(J1-Pin_17)*%
X12720000Y49010000D03*
%TO.P,J1,18,Pin_18*%
%TO.N,GND*%
X12720000Y46470000D03*
%TO.P,J1,19,Pin_19*%
%TO.N,unconnected-(J1-Pin_19-Pad19)*%
X12720000Y43930000D03*
%TO.P,J1,20,Pin_20*%
%TO.N,Net-(J1-Pin_20)*%
X12720000Y41390000D03*
%TO.P,J1,21,Pin_21*%
%TO.N,Net-(J1-Pin_21)*%
X12720000Y38850000D03*
%TO.P,J1,22,Pin_22*%
%TO.N,Net-(J1-Pin_22)*%
X12720000Y36310000D03*
%TO.P,J1,23,Pin_23*%
%TO.N,+3.3V*%
X12720000Y33770000D03*
%TO.P,J1,24,Pin_24*%
%TO.N,Net-(J1-Pin_24)*%
X12720000Y31230000D03*
%TO.P,J1,25,Pin_25*%
%TO.N,Net-(J1-Pin_25)*%
X12720000Y28690000D03*
%TO.P,J1,26,Pin_26*%
%TO.N,Net-(J1-Pin_26)*%
X12720000Y26150000D03*
%TO.P,J1,27,Pin_27*%
%TO.N,GND*%
X12720000Y23610000D03*
%TO.P,J1,28,Pin_28*%
%TO.N,unconnected-(J1-Pin_28-Pad28)*%
X12720000Y21070000D03*
%TO.P,J1,29,Pin_29*%
%TO.N,+5V*%
X12720000Y18530000D03*
%TO.P,J1,30,Pin_30*%
%TO.N,GND*%
X12720000Y15990000D03*
%TO.P,J1,31,Pin_31*%
%TO.N,+12V*%
X12720000Y13450000D03*
%TO.P,J1,32,Pin_32*%
%TO.N,unconnected-(J1-Pin_32-Pad32)*%
X12720000Y10910000D03*
%TD*%
D11*
%TO.P,J5,1,Pin_1*%
%TO.N,Net-(J5-Pin_1)*%
X5100000Y15990000D03*
D10*
%TO.P,J5,2,Pin_2*%
%TO.N,Net-(J5-Pin_2)*%
X5100000Y13450000D03*
%TD*%
D12*
%TO.N,Net-(J7-Pin_1)*%
X23429000Y89650000D02*
X27960000Y89650000D01*
X23459500Y89680500D02*
X23429000Y89650000D01*
X19169000Y93971000D02*
X23459500Y89680500D01*
X11216265Y93971000D02*
X19169000Y93971000D01*
X8290000Y81810000D02*
X8290000Y91044735D01*
X6920000Y80440000D02*
X8290000Y81810000D01*
X8290000Y91044735D02*
X11216265Y93971000D01*
X6920000Y57850000D02*
X6920000Y80440000D01*
X5100000Y54090000D02*
X5100000Y56030000D01*
X5100000Y56030000D02*
X6920000Y57850000D01*
%TO.N,Net-(J7-Pin_2)*%
X9400000Y52460000D02*
X8490000Y51550000D01*
X10460000Y91092000D02*
X10460000Y74740000D01*
X9368000Y73648000D02*
X9368000Y52492000D01*
X11838000Y92470000D02*
X10460000Y91092000D01*
X9368000Y52492000D02*
X9400000Y52460000D01*
X15680000Y92470000D02*
X11838000Y92470000D01*
X21040000Y87110000D02*
X15680000Y92470000D01*
X10460000Y74740000D02*
X9368000Y73648000D01*
X27960000Y87110000D02*
X21040000Y87110000D01*
X8490000Y51550000D02*
X5100000Y51550000D01*
%TO.N,Net-(J1-Pin_15)*%
X10869000Y55641000D02*
X12420000Y54090000D01*
X12420000Y54090000D02*
X12720000Y54090000D01*
X10869000Y72636710D02*
X10869000Y55641000D01*
X12642290Y74410000D02*
X10869000Y72636710D01*
X12720000Y74410000D02*
X12642290Y74410000D01*
%TO.N,Net-(J4-Pin_1)*%
X29162081Y49010000D02*
X27960000Y49010000D01*
X33729000Y44443081D02*
X29162081Y49010000D01*
X33729000Y17841000D02*
X33729000Y44443081D01*
X35580000Y15990000D02*
X33729000Y17841000D01*
%TO.N,Net-(J6-Pin_1)*%
X3250000Y87110000D02*
X5100000Y87110000D01*
X1748000Y85608000D02*
X3250000Y87110000D01*
X1748000Y8893796D02*
X1748000Y85608000D01*
X8554795Y2087000D02*
X1748000Y8893796D01*
X17215203Y2087000D02*
X8554795Y2087000D01*
X19853000Y4724796D02*
X17215203Y2087000D01*
X25923387Y26150000D02*
X19853000Y20079613D01*
X19853000Y20079613D02*
X19853000Y4724796D01*
X27960000Y26150000D02*
X25923387Y26150000D01*
%TO.N,Net-(J6-Pin_2)*%
X3249000Y9515530D02*
X3249000Y82719000D01*
X3249000Y82719000D02*
X5100000Y84570000D01*
X9176530Y3588000D02*
X3249000Y9515530D01*
X16593469Y3588000D02*
X9176530Y3588000D01*
X18352000Y20701347D02*
X18352000Y5346531D01*
X26340653Y28690000D02*
X18352000Y20701347D01*
X18352000Y5346531D02*
X16593469Y3588000D01*
X27960000Y28690000D02*
X26340653Y28690000D01*
%TO.N,Net-(J5-Pin_2)*%
X5100000Y9787265D02*
X5100000Y13450000D01*
X9798265Y5089000D02*
X5100000Y9787265D01*
X16851000Y5968265D02*
X15971735Y5089000D01*
X15971735Y5089000D02*
X9798265Y5089000D01*
X16851000Y21323081D02*
X16851000Y5968265D01*
X26757919Y31230000D02*
X16851000Y21323081D01*
X27960000Y31230000D02*
X26757919Y31230000D01*
%TO.N,Net-(J5-Pin_1)*%
X6950000Y15990000D02*
X5100000Y15990000D01*
X9650000Y13290000D02*
X6950000Y15990000D01*
X9650000Y7360000D02*
X9650000Y13290000D01*
X10420000Y6590000D02*
X9650000Y7360000D01*
X15350000Y6590000D02*
X10420000Y6590000D01*
X15350000Y22362081D02*
X15350000Y6590000D01*
X26757919Y33770000D02*
X15350000Y22362081D01*
X27960000Y33770000D02*
X26757919Y33770000D01*
%TO.N,GND*%
X27960000Y36310000D02*
X28037710Y36310000D01*
%TO.N,Net-(J3-Pin_2)*%
X36762081Y86980000D02*
X35560000Y86980000D01*
X39621000Y84121081D02*
X36762081Y86980000D01*
X39621000Y57386265D02*
X39621000Y84121081D01*
X36324734Y54090000D02*
X39621000Y57386265D01*
X27960000Y54090000D02*
X36324734Y54090000D01*
%TO.N,Net-(J3-Pin_1)*%
X38120000Y58008000D02*
X38120000Y81880000D01*
X36742000Y56630000D02*
X38120000Y58008000D01*
X38120000Y81880000D02*
X35560000Y84440000D01*
X27960000Y56630000D02*
X36742000Y56630000D01*
%TO.N,Net-(J4-Pin_2)*%
X37610000Y13450000D02*
X35580000Y13450000D01*
X38430000Y14270000D02*
X37610000Y13450000D01*
X38430000Y42282081D02*
X38430000Y14270000D01*
X29162081Y51550000D02*
X38430000Y42282081D01*
X27960000Y51550000D02*
X29162081Y51550000D01*
%TO.N,Net-(J1-Pin_11)*%
X14339347Y64250000D02*
X12720000Y64250000D01*
X14798000Y64708653D02*
X14339347Y64250000D01*
X14798000Y76074081D02*
X14798000Y64708653D01*
X13922081Y76950000D02*
X14798000Y76074081D01*
X12720000Y76950000D02*
X13922081Y76950000D01*
%TO.N,Net-(J1-Pin_12)*%
X13922081Y61710000D02*
X12720000Y61710000D01*
X16299000Y64086919D02*
X13922081Y61710000D01*
X16299000Y77113081D02*
X16299000Y64086919D01*
X13922081Y79490000D02*
X16299000Y77113081D01*
X12720000Y79490000D02*
X13922081Y79490000D01*
%TO.N,Net-(J1-Pin_21)*%
X12642290Y38850000D02*
X12720000Y38850000D01*
%TO.N,Net-(J1-Pin_20)*%
X27960000Y84570000D02*
X26757919Y84570000D01*
X26757919Y84570000D02*
X17800000Y75612081D01*
X17800000Y45267919D02*
X13922081Y41390000D01*
X17800000Y75612081D02*
X17800000Y45267919D01*
X13922081Y41390000D02*
X12720000Y41390000D01*
%TO.N,Net-(J1-Pin_26)*%
X13922081Y26150000D02*
X12720000Y26150000D01*
X25420000Y37647919D02*
X13922081Y26150000D01*
X27960000Y71870000D02*
X26757919Y71870000D01*
X26757919Y71870000D02*
X25420000Y70532081D01*
X25420000Y70532081D02*
X25420000Y37647919D01*
%TO.N,Net-(J1-Pin_24)*%
X26757919Y76950000D02*
X20802000Y70994081D01*
X20802000Y70994081D02*
X20802000Y44024450D01*
X20802000Y44024450D02*
X20340000Y43562451D01*
X20340000Y43562451D02*
X20340000Y37647919D01*
X27960000Y76950000D02*
X26757919Y76950000D01*
X20340000Y37647919D02*
X13922081Y31230000D01*
X13922081Y31230000D02*
X12720000Y31230000D01*
%TO.N,Net-(J1-Pin_22)*%
X26340653Y82030000D02*
X19301000Y74990347D01*
X27960000Y82030000D02*
X26340653Y82030000D01*
X13922081Y36310000D02*
X12720000Y36310000D01*
X19301000Y44646185D02*
X17800000Y43145185D01*
X17800000Y43145185D02*
X17800000Y40187919D01*
X17800000Y40187919D02*
X13922081Y36310000D01*
X19301000Y74990347D02*
X19301000Y44646185D01*
%TO.N,Net-(J1-Pin_25)*%
X26340653Y74410000D02*
X22880000Y70949347D01*
X22880000Y70949347D02*
X22880000Y38065184D01*
X27960000Y74410000D02*
X26340653Y74410000D01*
X22880000Y38065184D02*
X13504816Y28690000D01*
X13504816Y28690000D02*
X12720000Y28690000D01*
%TD*%
%TA.AperFunction,Conductor*%
%TO.N,GND*%
G36*
X16718834Y62989320D02*
G01*
X16774767Y62947448D01*
X16799184Y62881984D01*
X16799500Y62873138D01*
X16799500Y45733702D01*
X16779815Y45666663D01*
X16763181Y45646021D01*
X13638462Y42521303D01*
X13577139Y42487818D01*
X13507447Y42492802D01*
X13477898Y42508665D01*
X13427816Y42545051D01*
X13419054Y42549515D01*
X13368259Y42597488D01*
X13351463Y42665308D01*
X13373999Y42731444D01*
X13419054Y42770485D01*
X13427816Y42774949D01*
X13449789Y42790914D01*
X13599786Y42899891D01*
X13599788Y42899894D01*
X13599792Y42899896D01*
X13750104Y43050208D01*
X13750106Y43050212D01*
X13750109Y43050214D01*
X13875048Y43222180D01*
X13875047Y43222180D01*
X13875051Y43222184D01*
X13971557Y43411588D01*
X14037246Y43613757D01*
X14070500Y43823713D01*
X14070500Y44036287D01*
X14037246Y44246243D01*
X13971557Y44448412D01*
X13875051Y44637816D01*
X13875049Y44637819D01*
X13875048Y44637821D01*
X13750109Y44809787D01*
X13599786Y44960110D01*
X13427820Y45085049D01*
X13327552Y45136138D01*
X13276756Y45184113D01*
X13269506Y45213389D01*
X12720001Y45762894D01*
X12720000Y45762894D01*
X12172019Y45214915D01*
X12169669Y45196727D01*
X12124673Y45143275D01*
X12112447Y45136139D01*
X12012182Y45085051D01*
X11840213Y44960110D01*
X11689890Y44809787D01*
X11564951Y44637821D01*
X11468444Y44448415D01*
X11402753Y44246240D01*
X11369500Y44036287D01*
X11369500Y43823714D01*
X11400549Y43627675D01*
X11402754Y43613757D01*
X11452640Y43460223D01*
X11468444Y43411586D01*
X11564951Y43222180D01*
X11689890Y43050214D01*
X11840213Y42899891D01*
X12012182Y42774950D01*
X12020946Y42770484D01*
X12071742Y42722509D01*
X12088536Y42654688D01*
X12065998Y42588553D01*
X12020946Y42549516D01*
X12012182Y42545051D01*
X11840213Y42420110D01*
X11689890Y42269787D01*
X11564951Y42097821D01*
X11468444Y41908415D01*
X11402753Y41706240D01*
X11369500Y41496287D01*
X11369500Y41283714D01*
X11402284Y41076721D01*
X11402754Y41073757D01*
X11424638Y41006404D01*
X11468444Y40871586D01*
X11564951Y40682180D01*
X11689890Y40510214D01*
X11840213Y40359891D01*
X12012182Y40234950D01*
X12020946Y40230484D01*
X12071742Y40182509D01*
X12088536Y40114688D01*
X12065998Y40048553D01*
X12020946Y40009516D01*
X12012182Y40005051D01*
X11840213Y39880110D01*
X11689890Y39729787D01*
X11564951Y39557821D01*
X11468444Y39368415D01*
X11402753Y39166240D01*
X11369500Y38956287D01*
X11369500Y38743714D01*
X11402753Y38533761D01*
X11468444Y38331586D01*
X11564951Y38142180D01*
X11689890Y37970214D01*
X11840213Y37819891D01*
X12012182Y37694950D01*
X12020946Y37690484D01*
X12071742Y37642509D01*
X12088536Y37574688D01*
X12065998Y37508553D01*
X12020946Y37469516D01*
X12012182Y37465051D01*
X11840213Y37340110D01*
X11689890Y37189787D01*
X11564951Y37017821D01*
X11468444Y36828415D01*
X11402753Y36626240D01*
X11369500Y36416287D01*
X11369500Y36203714D01*
X11402735Y35993873D01*
X11402754Y35993757D01*
X11468382Y35791775D01*
X11468444Y35791586D01*
X11564951Y35602180D01*
X11689890Y35430214D01*
X11840213Y35279891D01*
X12012182Y35154950D01*
X12020946Y35150484D01*
X12071742Y35102509D01*
X12088536Y35034688D01*
X12065998Y34968553D01*
X12020946Y34929516D01*
X12012182Y34925051D01*
X11840213Y34800110D01*
X11689890Y34649787D01*
X11564951Y34477821D01*
X11468444Y34288415D01*
X11402753Y34086240D01*
X11369500Y33876287D01*
X11369500Y33663714D01*
X11402753Y33453761D01*
X11468444Y33251586D01*
X11564951Y33062180D01*
X11689890Y32890214D01*
X11840213Y32739891D01*
X12012182Y32614950D01*
X12020946Y32610484D01*
X12071742Y32562509D01*
X12088536Y32494688D01*
X12065998Y32428553D01*
X12020946Y32389516D01*
X12012182Y32385051D01*
X11840213Y32260110D01*
X11689890Y32109787D01*
X11564951Y31937821D01*
X11468444Y31748415D01*
X11402753Y31546240D01*
X11369500Y31336287D01*
X11369500Y31123714D01*
X11402753Y30913761D01*
X11468444Y30711586D01*
X11564951Y30522180D01*
X11689890Y30350214D01*
X11840213Y30199891D01*
X12012182Y30074950D01*
X12020946Y30070484D01*
X12071742Y30022509D01*
X12088536Y29954688D01*
X12065998Y29888553D01*
X12020946Y29849516D01*
X12012182Y29845051D01*
X11840213Y29720110D01*
X11689890Y29569787D01*
X11564951Y29397821D01*
X11468444Y29208415D01*
X11402753Y29006240D01*
X11369500Y28796287D01*
X11369500Y28583714D01*
X11402753Y28373761D01*
X11468444Y28171586D01*
X11564951Y27982180D01*
X11689890Y27810214D01*
X11840213Y27659891D01*
X12012182Y27534950D01*
X12020946Y27530484D01*
X12071742Y27482509D01*
X12088536Y27414688D01*
X12065998Y27348553D01*
X12020946Y27309516D01*
X12012182Y27305051D01*
X11840213Y27180110D01*
X11689890Y27029787D01*
X11564951Y26857821D01*
X11468444Y26668415D01*
X11402753Y26466240D01*
X11369500Y26256287D01*
X11369500Y26043714D01*
X11402753Y25833761D01*
X11468444Y25631586D01*
X11564951Y25442180D01*
X11689890Y25270214D01*
X11840213Y25119891D01*
X12012179Y24994952D01*
X12012181Y24994951D01*
X12012184Y24994949D01*
X12112446Y24943864D01*
X12163241Y24895890D01*
X12170490Y24866616D01*
X12720000Y24317106D01*
X12720001Y24317106D01*
X13267978Y24865085D01*
X13270328Y24883271D01*
X13315322Y24936724D01*
X13327541Y24943857D01*
X13427816Y24994949D01*
X13465283Y25022171D01*
X13603734Y25122759D01*
X13604364Y25121892D01*
X13663419Y25148359D01*
X13680200Y25149500D01*
X14020623Y25149500D01*
X14051647Y25155672D01*
X14117269Y25168725D01*
X14213917Y25187949D01*
X14267246Y25210039D01*
X14395995Y25263368D01*
X14559863Y25372861D01*
X14699220Y25512218D01*
X14699221Y25512221D01*
X14706287Y25519286D01*
X14706290Y25519290D01*
X25603247Y36416247D01*
X26610000Y36416247D01*
X26610000Y36203754D01*
X26643242Y35993873D01*
X26643242Y35993870D01*
X26708903Y35791787D01*
X26708908Y35791775D01*
X26717602Y35774711D01*
X26717603Y35774710D01*
X27252894Y36310000D01*
X27187068Y36375826D01*
X27460000Y36375826D01*
X27460000Y36244174D01*
X27494075Y36117007D01*
X27559901Y36002993D01*
X27652993Y35909901D01*
X27767007Y35844075D01*
X27894174Y35810000D01*
X28025826Y35810000D01*
X28152993Y35844075D01*
X28267007Y35909901D01*
X28360099Y36002993D01*
X28425925Y36117007D01*
X28460000Y36244174D01*
X28460000Y36310001D01*
X28667106Y36310001D01*
X28667106Y36309999D01*
X29202395Y35774710D01*
X29202395Y35774711D01*
X29211093Y35791780D01*
X29211094Y35791782D01*
X29276757Y35993870D01*
X29276757Y35993873D01*
X29310000Y36203754D01*
X29310000Y36416247D01*
X29276757Y36626128D01*
X29276757Y36626131D01*
X29211094Y36828219D01*
X29211094Y36828220D01*
X29202396Y36845292D01*
X28667106Y36310001D01*
X28460000Y36310001D01*
X28460000Y36375826D01*
X28425925Y36502993D01*
X28360099Y36617007D01*
X28267007Y36710099D01*
X28152993Y36775925D01*
X28025826Y36810000D01*
X27894174Y36810000D01*
X27767007Y36775925D01*
X27652993Y36710099D01*
X27559901Y36617007D01*
X27494075Y36502993D01*
X27460000Y36375826D01*
X27187068Y36375826D01*
X26717603Y36845291D01*
X26708904Y36828217D01*
X26643242Y36626131D01*
X26643242Y36626128D01*
X26610000Y36416247D01*
X25603247Y36416247D01*
X26057778Y36870778D01*
X26057782Y36870780D01*
X26197139Y37010137D01*
X26306632Y37174005D01*
X26382051Y37356084D01*
X26410579Y37499501D01*
X26420500Y37549376D01*
X26420500Y38434881D01*
X26440185Y38501920D01*
X26492989Y38547675D01*
X26562147Y38557619D01*
X26625703Y38528594D01*
X26662431Y38473199D01*
X26708444Y38331586D01*
X26804951Y38142180D01*
X26929890Y37970214D01*
X27080213Y37819891D01*
X27252179Y37694952D01*
X27252181Y37694951D01*
X27252184Y37694949D01*
X27352446Y37643864D01*
X27403241Y37595890D01*
X27410490Y37566616D01*
X27960000Y37017106D01*
X27960001Y37017106D01*
X28507978Y37565085D01*
X28510328Y37583271D01*
X28555322Y37636724D01*
X28567541Y37643857D01*
X28667816Y37694949D01*
X28754138Y37757665D01*
X28839786Y37819891D01*
X28839788Y37819894D01*
X28839792Y37819896D01*
X28990104Y37970208D01*
X28990106Y37970212D01*
X28990109Y37970214D01*
X29115048Y38142180D01*
X29115047Y38142180D01*
X29115051Y38142184D01*
X29211557Y38331588D01*
X29277246Y38533757D01*
X29310500Y38743713D01*
X29310500Y38956287D01*
X29277246Y39166243D01*
X29211557Y39368412D01*
X29115051Y39557816D01*
X29115049Y39557819D01*
X29115048Y39557821D01*
X28990109Y39729787D01*
X28839786Y39880110D01*
X28667820Y40005049D01*
X28667115Y40005409D01*
X28659054Y40009515D01*
X28608259Y40057488D01*
X28591463Y40125308D01*
X28613999Y40191444D01*
X28659054Y40230485D01*
X28667816Y40234949D01*
X28720174Y40272989D01*
X28839786Y40359891D01*
X28839788Y40359894D01*
X28839792Y40359896D01*
X28990104Y40510208D01*
X28990106Y40510212D01*
X28990109Y40510214D01*
X29115048Y40682180D01*
X29115047Y40682180D01*
X29115051Y40682184D01*
X29211557Y40871588D01*
X29277246Y41073757D01*
X29310500Y41283713D01*
X29310500Y41496287D01*
X29277246Y41706243D01*
X29211557Y41908412D01*
X29115051Y42097816D01*
X29115049Y42097819D01*
X29115048Y42097821D01*
X28990109Y42269787D01*
X28839786Y42420110D01*
X28667820Y42545049D01*
X28667115Y42545409D01*
X28659054Y42549515D01*
X28608259Y42597488D01*
X28591463Y42665308D01*
X28613999Y42731444D01*
X28659054Y42770485D01*
X28667816Y42774949D01*
X28689789Y42790914D01*
X28839786Y42899891D01*
X28839788Y42899894D01*
X28839792Y42899896D01*
X28990104Y43050208D01*
X28990106Y43050212D01*
X28990109Y43050214D01*
X29115048Y43222180D01*
X29115047Y43222180D01*
X29115051Y43222184D01*
X29211557Y43411588D01*
X29277246Y43613757D01*
X29310500Y43823713D01*
X29310500Y44036287D01*
X29277246Y44246243D01*
X29211557Y44448412D01*
X29115051Y44637816D01*
X29115049Y44637819D01*
X29115048Y44637821D01*
X28990109Y44809787D01*
X28839786Y44960110D01*
X28667820Y45085049D01*
X28567552Y45136138D01*
X28516756Y45184113D01*
X28509506Y45213389D01*
X27960001Y45762894D01*
X27960000Y45762894D01*
X27412019Y45214915D01*
X27409669Y45196727D01*
X27364673Y45143275D01*
X27352447Y45136139D01*
X27252182Y45085051D01*
X27080213Y44960110D01*
X26929890Y44809787D01*
X26804951Y44637821D01*
X26708444Y44448415D01*
X26662431Y44306802D01*
X26622993Y44249126D01*
X26558635Y44221928D01*
X26489788Y44233843D01*
X26438313Y44281087D01*
X26420500Y44345120D01*
X26420500Y46056497D01*
X26440185Y46123536D01*
X26492989Y46169291D01*
X26562147Y46179235D01*
X26625703Y46150210D01*
X26662431Y46094815D01*
X26708903Y45951787D01*
X26708908Y45951775D01*
X26717602Y45934711D01*
X26717603Y45934710D01*
X27252894Y46470000D01*
X27187068Y46535826D01*
X27460000Y46535826D01*
X27460000Y46404174D01*
X27494075Y46277007D01*
X27559901Y46162993D01*
X27652993Y46069901D01*
X27767007Y46004075D01*
X27894174Y45970000D01*
X28025826Y45970000D01*
X28152993Y46004075D01*
X28267007Y46069901D01*
X28360099Y46162993D01*
X28425925Y46277007D01*
X28460000Y46404174D01*
X28460000Y46470001D01*
X28667106Y46470001D01*
X28667106Y46469999D01*
X29202395Y45934710D01*
X29202395Y45934711D01*
X29211093Y45951780D01*
X29211094Y45951782D01*
X29276757Y46153870D01*
X29276757Y46153873D01*
X29310000Y46363754D01*
X29310000Y46576247D01*
X29276757Y46786128D01*
X29276757Y46786131D01*
X29211094Y46988219D01*
X29211094Y46988220D01*
X29202396Y47005292D01*
X28667106Y46470001D01*
X28460000Y46470001D01*
X28460000Y46535826D01*
X28425925Y46662993D01*
X28360099Y46777007D01*
X28267007Y46870099D01*
X28152993Y46935925D01*
X28025826Y46970000D01*
X27894174Y46970000D01*
X27767007Y46935925D01*
X27652993Y46870099D01*
X27559901Y46777007D01*
X27494075Y46662993D01*
X27460000Y46535826D01*
X27187068Y46535826D01*
X26717603Y47005291D01*
X26708904Y46988217D01*
X26662431Y46845186D01*
X26622993Y46787510D01*
X26558635Y46760312D01*
X26489788Y46772227D01*
X26438313Y46819471D01*
X26420500Y46883504D01*
X26420500Y48594881D01*
X26440185Y48661920D01*
X26492989Y48707675D01*
X26562147Y48717619D01*
X26625703Y48688594D01*
X26662431Y48633199D01*
X26708444Y48491586D01*
X26804951Y48302180D01*
X26929890Y48130214D01*
X27080213Y47979891D01*
X27252179Y47854952D01*
X27252181Y47854951D01*
X27252184Y47854949D01*
X27352446Y47803864D01*
X27403241Y47755890D01*
X27410490Y47726616D01*
X27960000Y47177106D01*
X27960001Y47177106D01*
X28504963Y47722070D01*
X28508483Y47728993D01*
X28510328Y47743271D01*
X28524001Y47759515D01*
X28533624Y47778442D01*
X28550707Y47791242D01*
X28555322Y47796724D01*
X28561244Y47800415D01*
X28564334Y47802223D01*
X28667816Y47854949D01*
X28722870Y47894949D01*
X28728178Y47898053D01*
X28756356Y47905058D01*
X28783702Y47914815D01*
X28789854Y47913385D01*
X28795984Y47914908D01*
X28823474Y47905567D01*
X28851756Y47898990D01*
X28858979Y47893502D01*
X28862139Y47892428D01*
X28864808Y47889073D01*
X28878463Y47878698D01*
X32692181Y44064980D01*
X32725666Y44003657D01*
X32728500Y43977299D01*
X32728500Y17742456D01*
X32763211Y17567952D01*
X32763212Y17567949D01*
X32766949Y17549165D01*
X32766950Y17549161D01*
X32842364Y17367093D01*
X32842371Y17367080D01*
X32951859Y17203220D01*
X32951860Y17203219D01*
X32951861Y17203218D01*
X33091218Y17063861D01*
X33091219Y17063861D01*
X33098286Y17056794D01*
X33098285Y17056794D01*
X33098289Y17056791D01*
X34193181Y15961898D01*
X34226666Y15900575D01*
X34229500Y15874217D01*
X34229500Y15092130D01*
X34229501Y15092124D01*
X34235908Y15032517D01*
X34286202Y14897672D01*
X34286206Y14897665D01*
X34372452Y14782456D01*
X34372455Y14782453D01*
X34487664Y14696207D01*
X34487671Y14696203D01*
X34619082Y14647190D01*
X34675016Y14605319D01*
X34699433Y14539855D01*
X34684582Y14471582D01*
X34663431Y14443327D01*
X34549889Y14329785D01*
X34424951Y14157821D01*
X34328444Y13968415D01*
X34262753Y13766240D01*
X34229500Y13556287D01*
X34229500Y13343714D01*
X34262753Y13133761D01*
X34328444Y12931586D01*
X34424951Y12742180D01*
X34549890Y12570214D01*
X34700213Y12419891D01*
X34872179Y12294952D01*
X34872181Y12294951D01*
X34872184Y12294949D01*
X35061588Y12198443D01*
X35263757Y12132754D01*
X35473713Y12099500D01*
X35473714Y12099500D01*
X35686286Y12099500D01*
X35686287Y12099500D01*
X35896243Y12132754D01*
X36098412Y12198443D01*
X36287816Y12294949D01*
X36302769Y12305814D01*
X36463734Y12422759D01*
X36464364Y12421892D01*
X36523419Y12448359D01*
X36540200Y12449500D01*
X37708542Y12449500D01*
X37746474Y12457046D01*
X37805188Y12468725D01*
X37901836Y12487949D01*
X37961976Y12512860D01*
X38083914Y12563368D01*
X38247782Y12672861D01*
X38387139Y12812218D01*
X38387140Y12812220D01*
X38394206Y12819286D01*
X38394209Y12819290D01*
X39067778Y13492859D01*
X39067782Y13492861D01*
X39207139Y13632218D01*
X39316632Y13796086D01*
X39371182Y13927782D01*
X39392051Y13978164D01*
X39430500Y14171460D01*
X39430500Y14368540D01*
X39430500Y42380622D01*
X39430500Y42380625D01*
X39392052Y42573912D01*
X39392051Y42573913D01*
X39392051Y42573916D01*
X39381081Y42600399D01*
X39364033Y42641557D01*
X39330502Y42722509D01*
X39316635Y42755988D01*
X39316634Y42755989D01*
X39316632Y42755995D01*
X39207139Y42919863D01*
X39067782Y43059220D01*
X39067781Y43059221D01*
X29946289Y52180712D01*
X29946287Y52180715D01*
X29946287Y52180714D01*
X29939220Y52187781D01*
X29939220Y52187782D01*
X29799863Y52327139D01*
X29799862Y52327140D01*
X29799861Y52327141D01*
X29636001Y52436629D01*
X29635992Y52436634D01*
X29563396Y52466704D01*
X29507246Y52489962D01*
X29453917Y52512051D01*
X29453913Y52512052D01*
X29453909Y52512054D01*
X29357269Y52531276D01*
X29260625Y52550500D01*
X29260622Y52550500D01*
X28920200Y52550500D01*
X28853161Y52570185D01*
X28840634Y52579494D01*
X28667820Y52705049D01*
X28663139Y52707434D01*
X28659054Y52709515D01*
X28608259Y52757488D01*
X28591463Y52825308D01*
X28613999Y52891444D01*
X28659054Y52930485D01*
X28667816Y52934949D01*
X28754138Y52997665D01*
X28843734Y53062759D01*
X28844364Y53061892D01*
X28903419Y53088359D01*
X28920200Y53089500D01*
X36423276Y53089500D01*
X36454300Y53095672D01*
X36519922Y53108725D01*
X36616570Y53127949D01*
X36669899Y53150039D01*
X36798648Y53203368D01*
X36962516Y53312861D01*
X37101873Y53452218D01*
X37101873Y53452220D01*
X37112081Y53462427D01*
X37112082Y53462430D01*
X40398139Y56748483D01*
X40445605Y56819521D01*
X40507631Y56912349D01*
X40507636Y56912359D01*
X40583049Y57094426D01*
X40583051Y57094430D01*
X40588410Y57121368D01*
X40591269Y57135743D01*
X40593883Y57148881D01*
X40626267Y57210792D01*
X40686983Y57245366D01*
X40756753Y57241627D01*
X40813425Y57200761D01*
X40839006Y57135743D01*
X40839500Y57124690D01*
X40839500Y624500D01*
X40819815Y557461D01*
X40767011Y511706D01*
X40715500Y500500D01*
X634500Y500500D01*
X567461Y520185D01*
X521706Y572989D01*
X510500Y624500D01*
X510500Y8727741D01*
X530185Y8794780D01*
X582989Y8840535D01*
X652147Y8850479D01*
X715703Y8821454D01*
X753477Y8762676D01*
X756117Y8751933D01*
X785947Y8601967D01*
X785950Y8601957D01*
X861364Y8419889D01*
X861371Y8419876D01*
X970859Y8256016D01*
X970860Y8256015D01*
X970861Y8256014D01*
X1110218Y8116657D01*
X1110219Y8116657D01*
X1117286Y8109590D01*
X1117285Y8109590D01*
X1117289Y8109587D01*
X7917010Y1309863D01*
X7917014Y1309860D01*
X8080874Y1200372D01*
X8080880Y1200369D01*
X8080881Y1200368D01*
X8262960Y1124948D01*
X8456250Y1086500D01*
X8456253Y1086499D01*
X8456255Y1086499D01*
X8659450Y1086499D01*
X8659470Y1086500D01*
X17313745Y1086500D01*
X17344769Y1092672D01*
X17410391Y1105725D01*
X17507039Y1124949D01*
X17560368Y1147039D01*
X17689117Y1200368D01*
X17852985Y1309861D01*
X17992342Y1449218D01*
X17992342Y1449220D01*
X18002550Y1459427D01*
X18002551Y1459430D01*
X20630140Y4087015D01*
X20657419Y4127843D01*
X20739632Y4250882D01*
X20779044Y4346031D01*
X20815052Y4432960D01*
X20853501Y4626256D01*
X20853501Y4823336D01*
X20853501Y4828446D01*
X20853500Y4828472D01*
X20853500Y19613831D01*
X20873185Y19680870D01*
X20889819Y19701512D01*
X23555912Y22367604D01*
X27424708Y22367604D01*
X27441780Y22358906D01*
X27643871Y22293243D01*
X27853754Y22260000D01*
X28066246Y22260000D01*
X28276127Y22293243D01*
X28276130Y22293243D01*
X28478218Y22358906D01*
X28478220Y22358907D01*
X28495289Y22367605D01*
X28495290Y22367605D01*
X27960001Y22902894D01*
X27960000Y22902894D01*
X27424708Y22367604D01*
X23555912Y22367604D01*
X23686598Y22498290D01*
X24904555Y23716247D01*
X26610000Y23716247D01*
X26610000Y23503754D01*
X26643242Y23293873D01*
X26643242Y23293870D01*
X26708903Y23091787D01*
X26708908Y23091775D01*
X26717602Y23074711D01*
X26717603Y23074710D01*
X27252894Y23610000D01*
X27187068Y23675826D01*
X27460000Y23675826D01*
X27460000Y23544174D01*
X27494075Y23417007D01*
X27559901Y23302993D01*
X27652993Y23209901D01*
X27767007Y23144075D01*
X27894174Y23110000D01*
X28025826Y23110000D01*
X28152993Y23144075D01*
X28267007Y23209901D01*
X28360099Y23302993D01*
X28425925Y23417007D01*
X28460000Y23544174D01*
X28460000Y23610001D01*
X28667106Y23610001D01*
X28667106Y23609999D01*
X29202395Y23074710D01*
X29202395Y23074711D01*
X29211093Y23091780D01*
X29211094Y23091782D01*
X29276757Y23293870D01*
X29276757Y23293873D01*
X29310000Y23503754D01*
X29310000Y23716247D01*
X29276757Y23926128D01*
X29276757Y23926131D01*
X29211094Y24128219D01*
X29211094Y24128220D01*
X29202396Y24145292D01*
X28667106Y23610001D01*
X28460000Y23610001D01*
X28460000Y23675826D01*
X28425925Y23802993D01*
X28360099Y23917007D01*
X28267007Y24010099D01*
X28152993Y24075925D01*
X28025826Y24110000D01*
X27894174Y24110000D01*
X27767007Y24075925D01*
X27652993Y24010099D01*
X27559901Y23917007D01*
X27494075Y23802993D01*
X27460000Y23675826D01*
X27187068Y23675826D01*
X26717603Y24145291D01*
X26708904Y24128217D01*
X26643242Y23926131D01*
X26643242Y23926128D01*
X26610000Y23716247D01*
X24904555Y23716247D01*
X26301489Y25113181D01*
X26362812Y25146666D01*
X26389170Y25149500D01*
X26999800Y25149500D01*
X27066839Y25129815D01*
X27079365Y25120507D01*
X27252179Y24994952D01*
X27252181Y24994951D01*
X27252184Y24994949D01*
X27352446Y24943864D01*
X27403241Y24895890D01*
X27410490Y24866616D01*
X27960000Y24317106D01*
X27960001Y24317106D01*
X28507978Y24865085D01*
X28510328Y24883271D01*
X28555322Y24936724D01*
X28567541Y24943857D01*
X28667816Y24994949D01*
X28830550Y25113181D01*
X28839786Y25119891D01*
X28839788Y25119894D01*
X28839792Y25119896D01*
X28990104Y25270208D01*
X28990106Y25270212D01*
X28990109Y25270214D01*
X29115048Y25442180D01*
X29115047Y25442180D01*
X29115051Y25442184D01*
X29211557Y25631588D01*
X29277246Y25833757D01*
X29310500Y26043713D01*
X29310500Y26256287D01*
X29277246Y26466243D01*
X29211557Y26668412D01*
X29115051Y26857816D01*
X29115049Y26857819D01*
X29115048Y26857821D01*
X28990109Y27029787D01*
X28839786Y27180110D01*
X28667820Y27305049D01*
X28667115Y27305409D01*
X28659054Y27309515D01*
X28608259Y27357488D01*
X28591463Y27425308D01*
X28613999Y27491444D01*
X28659054Y27530485D01*
X28667816Y27534949D01*
X28830550Y27653181D01*
X28839786Y27659891D01*
X28839788Y27659894D01*
X28839792Y27659896D01*
X28990104Y27810208D01*
X28990106Y27810212D01*
X28990109Y27810214D01*
X29115048Y27982180D01*
X29115047Y27982180D01*
X29115051Y27982184D01*
X29211557Y28171588D01*
X29277246Y28373757D01*
X29310500Y28583713D01*
X29310500Y28796287D01*
X29277246Y29006243D01*
X29211557Y29208412D01*
X29115051Y29397816D01*
X29115049Y29397819D01*
X29115048Y29397821D01*
X28990109Y29569787D01*
X28839786Y29720110D01*
X28667820Y29845049D01*
X28667115Y29845409D01*
X28659054Y29849515D01*
X28608259Y29897488D01*
X28591463Y29965308D01*
X28613999Y30031444D01*
X28659054Y30070485D01*
X28667816Y30074949D01*
X28803578Y30173585D01*
X28839786Y30199891D01*
X28839788Y30199894D01*
X28839792Y30199896D01*
X28990104Y30350208D01*
X28990106Y30350212D01*
X28990109Y30350214D01*
X29115048Y30522180D01*
X29115047Y30522180D01*
X29115051Y30522184D01*
X29211557Y30711588D01*
X29277246Y30913757D01*
X29310500Y31123713D01*
X29310500Y31336287D01*
X29277246Y31546243D01*
X29211557Y31748412D01*
X29115051Y31937816D01*
X29115049Y31937819D01*
X29115048Y31937821D01*
X28990109Y32109787D01*
X28839786Y32260110D01*
X28667820Y32385049D01*
X28667115Y32385409D01*
X28659054Y32389515D01*
X28608259Y32437488D01*
X28591463Y32505308D01*
X28613999Y32571444D01*
X28659054Y32610485D01*
X28667816Y32614949D01*
X28728485Y32659027D01*
X28839786Y32739891D01*
X28839788Y32739894D01*
X28839792Y32739896D01*
X28990104Y32890208D01*
X28990106Y32890212D01*
X28990109Y32890214D01*
X29115048Y33062180D01*
X29115047Y33062180D01*
X29115051Y33062184D01*
X29211557Y33251588D01*
X29277246Y33453757D01*
X29310500Y33663713D01*
X29310500Y33876287D01*
X29277246Y34086243D01*
X29211557Y34288412D01*
X29115051Y34477816D01*
X29115049Y34477819D01*
X29115048Y34477821D01*
X28990109Y34649787D01*
X28839786Y34800110D01*
X28667820Y34925049D01*
X28567552Y34976138D01*
X28516756Y35024113D01*
X28509506Y35053389D01*
X27960001Y35602894D01*
X27960000Y35602894D01*
X27412019Y35054915D01*
X27409669Y35036727D01*
X27364673Y34983275D01*
X27352447Y34976139D01*
X27252182Y34925051D01*
X27076266Y34797241D01*
X27075635Y34798109D01*
X27016581Y34771641D01*
X26999800Y34770500D01*
X26659374Y34770500D01*
X26562731Y34751276D01*
X26466086Y34732053D01*
X26466080Y34732051D01*
X26412753Y34709963D01*
X26412753Y34709962D01*
X26369837Y34692186D01*
X26284003Y34656632D01*
X26284002Y34656632D01*
X26160964Y34574421D01*
X26160965Y34574420D01*
X26120137Y34547141D01*
X26120134Y34547138D01*
X17406759Y25833761D01*
X14712220Y23139222D01*
X14712218Y23139220D01*
X14664785Y23091787D01*
X14572859Y22999862D01*
X14463371Y22836002D01*
X14463364Y22835989D01*
X14387950Y22653921D01*
X14387947Y22653911D01*
X14349500Y22460625D01*
X14349500Y7714500D01*
X14329815Y7647461D01*
X14277011Y7601706D01*
X14225500Y7590500D01*
X10885783Y7590500D01*
X10856342Y7599145D01*
X10826356Y7605668D01*
X10821340Y7609423D01*
X10818744Y7610185D01*
X10798102Y7626819D01*
X10686819Y7738102D01*
X10653334Y7799425D01*
X10650500Y7825783D01*
X10650500Y13185325D01*
X10650501Y13185346D01*
X10650501Y13388543D01*
X10620977Y13536967D01*
X10620977Y13536968D01*
X10617134Y13556287D01*
X11369500Y13556287D01*
X11369500Y13343714D01*
X11402753Y13133761D01*
X11468444Y12931586D01*
X11564951Y12742180D01*
X11689890Y12570214D01*
X11840213Y12419891D01*
X12012182Y12294950D01*
X12020946Y12290484D01*
X12071742Y12242509D01*
X12088536Y12174688D01*
X12065998Y12108553D01*
X12020946Y12069516D01*
X12012182Y12065051D01*
X11840213Y11940110D01*
X11689890Y11789787D01*
X11564951Y11617821D01*
X11468444Y11428415D01*
X11402753Y11226240D01*
X11369500Y11016287D01*
X11369500Y10803714D01*
X11402753Y10593761D01*
X11468444Y10391586D01*
X11564951Y10202180D01*
X11689890Y10030214D01*
X11840213Y9879891D01*
X12012179Y9754952D01*
X12012181Y9754951D01*
X12012184Y9754949D01*
X12201588Y9658443D01*
X12403757Y9592754D01*
X12613713Y9559500D01*
X12613714Y9559500D01*
X12826286Y9559500D01*
X12826287Y9559500D01*
X13036243Y9592754D01*
X13238412Y9658443D01*
X13427816Y9754949D01*
X13449789Y9770914D01*
X13599786Y9879891D01*
X13599788Y9879894D01*
X13599792Y9879896D01*
X13750104Y10030208D01*
X13750106Y10030212D01*
X13750109Y10030214D01*
X13875048Y10202180D01*
X13875047Y10202180D01*
X13875051Y10202184D01*
X13971557Y10391588D01*
X14037246Y10593757D01*
X14070500Y10803713D01*
X14070500Y11016287D01*
X14037246Y11226243D01*
X13971557Y11428412D01*
X13875051Y11617816D01*
X13875049Y11617819D01*
X13875048Y11617821D01*
X13750109Y11789787D01*
X13599786Y11940110D01*
X13427820Y12065049D01*
X13427115Y12065409D01*
X13419054Y12069515D01*
X13368259Y12117488D01*
X13351463Y12185308D01*
X13373999Y12251444D01*
X13419054Y12290485D01*
X13427816Y12294949D01*
X13449789Y12310914D01*
X13599786Y12419891D01*
X13599788Y12419894D01*
X13599792Y12419896D01*
X13750104Y12570208D01*
X13750106Y12570212D01*
X13750109Y12570214D01*
X13875048Y12742180D01*
X13875047Y12742180D01*
X13875051Y12742184D01*
X13971557Y12931588D01*
X14037246Y13133757D01*
X14070500Y13343713D01*
X14070500Y13556287D01*
X14037246Y13766243D01*
X13971557Y13968412D01*
X13875051Y14157816D01*
X13875049Y14157819D01*
X13875048Y14157821D01*
X13750109Y14329787D01*
X13599786Y14480110D01*
X13427820Y14605049D01*
X13327552Y14656138D01*
X13276756Y14704113D01*
X13269506Y14733389D01*
X12720001Y15282894D01*
X12720000Y15282894D01*
X12172019Y14734915D01*
X12169669Y14716727D01*
X12124673Y14663275D01*
X12112447Y14656139D01*
X12012182Y14605051D01*
X11840213Y14480110D01*
X11689890Y14329787D01*
X11564951Y14157821D01*
X11468444Y13968415D01*
X11402753Y13766240D01*
X11369500Y13556287D01*
X10617134Y13556287D01*
X10612053Y13581828D01*
X10612052Y13581835D01*
X10536632Y13763914D01*
X10536631Y13763915D01*
X10536628Y13763921D01*
X10427140Y13927782D01*
X10427137Y13927785D01*
X8341482Y16013438D01*
X8258673Y16096247D01*
X11370000Y16096247D01*
X11370000Y15883754D01*
X11403242Y15673873D01*
X11403242Y15673870D01*
X11468903Y15471787D01*
X11468908Y15471775D01*
X11477602Y15454711D01*
X11477603Y15454710D01*
X12012894Y15990000D01*
X11947068Y16055826D01*
X12220000Y16055826D01*
X12220000Y15924174D01*
X12254075Y15797007D01*
X12319901Y15682993D01*
X12412993Y15589901D01*
X12527007Y15524075D01*
X12654174Y15490000D01*
X12785826Y15490000D01*
X12912993Y15524075D01*
X13027007Y15589901D01*
X13120099Y15682993D01*
X13185925Y15797007D01*
X13220000Y15924174D01*
X13220000Y15990001D01*
X13427106Y15990001D01*
X13427106Y15989999D01*
X13962395Y15454710D01*
X13962395Y15454711D01*
X13971093Y15471780D01*
X13971094Y15471782D01*
X14036757Y15673870D01*
X14036757Y15673873D01*
X14070000Y15883754D01*
X14070000Y16096247D01*
X14036757Y16306128D01*
X14036757Y16306131D01*
X13971094Y16508219D01*
X13971094Y16508220D01*
X13962396Y16525292D01*
X13427106Y15990001D01*
X13220000Y15990001D01*
X13220000Y16055826D01*
X13185925Y16182993D01*
X13120099Y16297007D01*
X13027007Y16390099D01*
X12912993Y16455925D01*
X12785826Y16490000D01*
X12654174Y16490000D01*
X12527007Y16455925D01*
X12412993Y16390099D01*
X12319901Y16297007D01*
X12254075Y16182993D01*
X12220000Y16055826D01*
X11947068Y16055826D01*
X11477603Y16525291D01*
X11468904Y16508217D01*
X11403242Y16306131D01*
X11403242Y16306128D01*
X11370000Y16096247D01*
X8258673Y16096247D01*
X7734209Y16620711D01*
X7734206Y16620715D01*
X7734206Y16620714D01*
X7727139Y16627781D01*
X7727139Y16627782D01*
X7587782Y16767139D01*
X7587781Y16767140D01*
X7587780Y16767141D01*
X7423920Y16876629D01*
X7423911Y16876634D01*
X7351315Y16906704D01*
X7295165Y16929962D01*
X7241836Y16952051D01*
X7241832Y16952052D01*
X7241828Y16952054D01*
X7145188Y16971276D01*
X7048544Y16990500D01*
X7048541Y16990500D01*
X6514141Y16990500D01*
X6447102Y17010185D01*
X6401347Y17062989D01*
X6397969Y17071141D01*
X6393796Y17082331D01*
X6393793Y17082335D01*
X6393793Y17082336D01*
X6307547Y17197545D01*
X6307544Y17197548D01*
X6192335Y17283794D01*
X6192328Y17283798D01*
X6057482Y17334092D01*
X6057483Y17334092D01*
X5997883Y17340499D01*
X5997881Y17340500D01*
X5997873Y17340500D01*
X5997865Y17340500D01*
X4373500Y17340500D01*
X4306461Y17360185D01*
X4260706Y17412989D01*
X4249500Y17464500D01*
X4249500Y21176287D01*
X11369500Y21176287D01*
X11369500Y20963714D01*
X11402753Y20753761D01*
X11468444Y20551586D01*
X11564951Y20362180D01*
X11689890Y20190214D01*
X11840213Y20039891D01*
X12012182Y19914950D01*
X12020946Y19910484D01*
X12071742Y19862509D01*
X12088536Y19794688D01*
X12065998Y19728553D01*
X12020946Y19689516D01*
X12012182Y19685051D01*
X11840213Y19560110D01*
X11689890Y19409787D01*
X11564951Y19237821D01*
X11468444Y19048415D01*
X11402753Y18846240D01*
X11369500Y18636287D01*
X11369500Y18423714D01*
X11402753Y18213761D01*
X11468444Y18011586D01*
X11564951Y17822180D01*
X11689890Y17650214D01*
X11840213Y17499891D01*
X12012179Y17374952D01*
X12012181Y17374951D01*
X12012184Y17374949D01*
X12112446Y17323864D01*
X12163241Y17275890D01*
X12170490Y17246616D01*
X12720000Y16697106D01*
X12720001Y16697106D01*
X13267978Y17245085D01*
X13270328Y17263271D01*
X13315322Y17316724D01*
X13327541Y17323857D01*
X13427816Y17374949D01*
X13480174Y17412989D01*
X13599786Y17499891D01*
X13599788Y17499894D01*
X13599792Y17499896D01*
X13750104Y17650208D01*
X13750106Y17650212D01*
X13750109Y17650214D01*
X13875048Y17822180D01*
X13875047Y17822180D01*
X13875051Y17822184D01*
X13971557Y18011588D01*
X14037246Y18213757D01*
X14070500Y18423713D01*
X14070500Y18636287D01*
X14037246Y18846243D01*
X13971557Y19048412D01*
X13875051Y19237816D01*
X13875049Y19237819D01*
X13875048Y19237821D01*
X13750109Y19409787D01*
X13599786Y19560110D01*
X13427820Y19685049D01*
X13427115Y19685409D01*
X13419054Y19689515D01*
X13368259Y19737488D01*
X13351463Y19805308D01*
X13373999Y19871444D01*
X13419054Y19910485D01*
X13427816Y19914949D01*
X13449789Y19930914D01*
X13599786Y20039891D01*
X13599788Y20039894D01*
X13599792Y20039896D01*
X13750104Y20190208D01*
X13750106Y20190212D01*
X13750109Y20190214D01*
X13875048Y20362180D01*
X13875047Y20362180D01*
X13875051Y20362184D01*
X13971557Y20551588D01*
X14037246Y20753757D01*
X14070500Y20963713D01*
X14070500Y21176287D01*
X14037246Y21386243D01*
X13971557Y21588412D01*
X13875051Y21777816D01*
X13875049Y21777819D01*
X13875048Y21777821D01*
X13750109Y21949787D01*
X13599786Y22100110D01*
X13427820Y22225049D01*
X13327552Y22276138D01*
X13276756Y22324113D01*
X13269506Y22353389D01*
X12720001Y22902894D01*
X12720000Y22902894D01*
X12172019Y22354915D01*
X12169669Y22336727D01*
X12124673Y22283275D01*
X12112447Y22276139D01*
X12012182Y22225051D01*
X11840213Y22100110D01*
X11689890Y21949787D01*
X11564951Y21777821D01*
X11468444Y21588415D01*
X11402753Y21386240D01*
X11369500Y21176287D01*
X4249500Y21176287D01*
X4249500Y23716247D01*
X11370000Y23716247D01*
X11370000Y23503754D01*
X11403242Y23293873D01*
X11403242Y23293870D01*
X11468903Y23091787D01*
X11468908Y23091775D01*
X11477602Y23074711D01*
X11477603Y23074710D01*
X12012894Y23610000D01*
X11947068Y23675826D01*
X12220000Y23675826D01*
X12220000Y23544174D01*
X12254075Y23417007D01*
X12319901Y23302993D01*
X12412993Y23209901D01*
X12527007Y23144075D01*
X12654174Y23110000D01*
X12785826Y23110000D01*
X12912993Y23144075D01*
X13027007Y23209901D01*
X13120099Y23302993D01*
X13185925Y23417007D01*
X13220000Y23544174D01*
X13220000Y23610001D01*
X13427106Y23610001D01*
X13427106Y23609999D01*
X13962395Y23074710D01*
X13962395Y23074711D01*
X13971093Y23091780D01*
X13971094Y23091782D01*
X14036757Y23293870D01*
X14036757Y23293873D01*
X14070000Y23503754D01*
X14070000Y23716247D01*
X14036757Y23926128D01*
X14036757Y23926131D01*
X13971094Y24128219D01*
X13971094Y24128220D01*
X13962396Y24145292D01*
X13427106Y23610001D01*
X13220000Y23610001D01*
X13220000Y23675826D01*
X13185925Y23802993D01*
X13120099Y23917007D01*
X13027007Y24010099D01*
X12912993Y24075925D01*
X12785826Y24110000D01*
X12654174Y24110000D01*
X12527007Y24075925D01*
X12412993Y24010099D01*
X12319901Y23917007D01*
X12254075Y23802993D01*
X12220000Y23675826D01*
X11947068Y23675826D01*
X11477603Y24145291D01*
X11468904Y24128217D01*
X11403242Y23926131D01*
X11403242Y23926128D01*
X11370000Y23716247D01*
X4249500Y23716247D01*
X4249500Y45185862D01*
X4269185Y45252901D01*
X4321989Y45298656D01*
X4391147Y45308600D01*
X4429795Y45296347D01*
X4581782Y45218905D01*
X4783870Y45153243D01*
X4993754Y45120000D01*
X5206246Y45120000D01*
X5416127Y45153243D01*
X5416130Y45153243D01*
X5618218Y45218906D01*
X5618220Y45218907D01*
X5635289Y45227605D01*
X5635290Y45227605D01*
X4834128Y46028767D01*
X4820264Y46054156D01*
X4907007Y46004075D01*
X5034174Y45970000D01*
X5165826Y45970000D01*
X5292993Y46004075D01*
X5407007Y46069901D01*
X5500099Y46162993D01*
X5565925Y46277007D01*
X5600000Y46404174D01*
X5600000Y46470001D01*
X5807106Y46470001D01*
X5807106Y46470000D01*
X6342395Y45934710D01*
X6342395Y45934711D01*
X6351093Y45951780D01*
X6351094Y45951782D01*
X6416757Y46153870D01*
X6416757Y46153873D01*
X6450000Y46363754D01*
X6450000Y46576247D01*
X11370000Y46576247D01*
X11370000Y46363754D01*
X11403242Y46153873D01*
X11403242Y46153870D01*
X11468903Y45951787D01*
X11468908Y45951775D01*
X11477602Y45934711D01*
X11477603Y45934710D01*
X12012894Y46470000D01*
X11947068Y46535826D01*
X12220000Y46535826D01*
X12220000Y46404174D01*
X12254075Y46277007D01*
X12319901Y46162993D01*
X12412993Y46069901D01*
X12527007Y46004075D01*
X12654174Y45970000D01*
X12785826Y45970000D01*
X12912993Y46004075D01*
X13027007Y46069901D01*
X13120099Y46162993D01*
X13185925Y46277007D01*
X13220000Y46404174D01*
X13220000Y46470001D01*
X13427106Y46470001D01*
X13427106Y46469999D01*
X13962395Y45934710D01*
X13962395Y45934711D01*
X13971093Y45951780D01*
X13971094Y45951782D01*
X14036757Y46153870D01*
X14036757Y46153873D01*
X14070000Y46363754D01*
X14070000Y46576247D01*
X14036757Y46786128D01*
X14036757Y46786131D01*
X13971094Y46988219D01*
X13971094Y46988220D01*
X13962396Y47005292D01*
X13427106Y46470001D01*
X13220000Y46470001D01*
X13220000Y46535826D01*
X13185925Y46662993D01*
X13120099Y46777007D01*
X13027007Y46870099D01*
X12912993Y46935925D01*
X12785826Y46970000D01*
X12654174Y46970000D01*
X12527007Y46935925D01*
X12412993Y46870099D01*
X12319901Y46777007D01*
X12254075Y46662993D01*
X12220000Y46535826D01*
X11947068Y46535826D01*
X11477603Y47005291D01*
X11468904Y46988217D01*
X11403242Y46786131D01*
X11403242Y46786128D01*
X11370000Y46576247D01*
X6450000Y46576247D01*
X6416757Y46786128D01*
X6416757Y46786131D01*
X6351094Y46988219D01*
X6351094Y46988220D01*
X6342396Y47005292D01*
X5807106Y46470001D01*
X5600000Y46470001D01*
X5600000Y46535826D01*
X5565925Y46662993D01*
X5500099Y46777007D01*
X5407007Y46870099D01*
X5292993Y46935925D01*
X5165826Y46970000D01*
X5034174Y46970000D01*
X4907007Y46935925D01*
X4816362Y46883592D01*
X4834128Y46911234D01*
X5647978Y47725085D01*
X5650328Y47743271D01*
X5695322Y47796724D01*
X5707541Y47803857D01*
X5807816Y47854949D01*
X5943578Y47953585D01*
X5979786Y47979891D01*
X5979788Y47979894D01*
X5979792Y47979896D01*
X6130104Y48130208D01*
X6130106Y48130212D01*
X6130109Y48130214D01*
X6255048Y48302180D01*
X6255047Y48302180D01*
X6255051Y48302184D01*
X6351557Y48491588D01*
X6417246Y48693757D01*
X6450500Y48903713D01*
X6450500Y49116287D01*
X6417246Y49326243D01*
X6351557Y49528412D01*
X6255051Y49717816D01*
X6255049Y49717819D01*
X6255048Y49717821D01*
X6130109Y49889787D01*
X5979786Y50040110D01*
X5807820Y50165049D01*
X5807115Y50165409D01*
X5799054Y50169515D01*
X5748259Y50217488D01*
X5731463Y50285308D01*
X5753999Y50351444D01*
X5799054Y50390485D01*
X5807816Y50394949D01*
X5840504Y50418698D01*
X5983734Y50522759D01*
X5984364Y50521892D01*
X6043419Y50548359D01*
X6060200Y50549500D01*
X8588542Y50549500D01*
X8619566Y50555672D01*
X8685188Y50568725D01*
X8781836Y50587949D01*
X8835165Y50610039D01*
X8963914Y50663368D01*
X9127782Y50772861D01*
X9267139Y50912218D01*
X9267139Y50912220D01*
X9277347Y50922427D01*
X9277348Y50922430D01*
X10177139Y51822218D01*
X10286631Y51986085D01*
X10362051Y52168164D01*
X10400500Y52361459D01*
X10400500Y52558540D01*
X10400500Y52558543D01*
X10370883Y52707434D01*
X10368500Y52731626D01*
X10368500Y54427218D01*
X10388185Y54494257D01*
X10440989Y54540012D01*
X10510147Y54549956D01*
X10573703Y54520931D01*
X10580181Y54514899D01*
X11420896Y53674184D01*
X11451145Y53624823D01*
X11468442Y53571588D01*
X11564951Y53382180D01*
X11689890Y53210214D01*
X11840213Y53059891D01*
X12012182Y52934950D01*
X12020946Y52930484D01*
X12071742Y52882509D01*
X12088536Y52814688D01*
X12065998Y52748553D01*
X12020946Y52709516D01*
X12012182Y52705051D01*
X11840213Y52580110D01*
X11689890Y52429787D01*
X11564951Y52257821D01*
X11468444Y52068415D01*
X11402753Y51866240D01*
X11369500Y51656287D01*
X11369500Y51443714D01*
X11402284Y51236721D01*
X11402754Y51233757D01*
X11424638Y51166404D01*
X11468444Y51031586D01*
X11564951Y50842180D01*
X11689890Y50670214D01*
X11840213Y50519891D01*
X12012182Y50394950D01*
X12020946Y50390484D01*
X12071742Y50342509D01*
X12088536Y50274688D01*
X12065998Y50208553D01*
X12020946Y50169516D01*
X12012182Y50165051D01*
X11840213Y50040110D01*
X11689890Y49889787D01*
X11564951Y49717821D01*
X11468444Y49528415D01*
X11402753Y49326240D01*
X11369500Y49116287D01*
X11369500Y48903714D01*
X11402753Y48693761D01*
X11468444Y48491586D01*
X11564951Y48302180D01*
X11689890Y48130214D01*
X11840213Y47979891D01*
X12012179Y47854952D01*
X12012181Y47854951D01*
X12012184Y47854949D01*
X12112446Y47803864D01*
X12163241Y47755890D01*
X12170490Y47726616D01*
X12720000Y47177106D01*
X12720001Y47177106D01*
X13267978Y47725085D01*
X13270328Y47743271D01*
X13315322Y47796724D01*
X13327541Y47803857D01*
X13427816Y47854949D01*
X13563578Y47953585D01*
X13599786Y47979891D01*
X13599788Y47979894D01*
X13599792Y47979896D01*
X13750104Y48130208D01*
X13750106Y48130212D01*
X13750109Y48130214D01*
X13875048Y48302180D01*
X13875047Y48302180D01*
X13875051Y48302184D01*
X13971557Y48491588D01*
X14037246Y48693757D01*
X14070500Y48903713D01*
X14070500Y49116287D01*
X14037246Y49326243D01*
X13971557Y49528412D01*
X13875051Y49717816D01*
X13875049Y49717819D01*
X13875048Y49717821D01*
X13750109Y49889787D01*
X13599786Y50040110D01*
X13427820Y50165049D01*
X13427115Y50165409D01*
X13419054Y50169515D01*
X13368259Y50217488D01*
X13351463Y50285308D01*
X13373999Y50351444D01*
X13419054Y50390485D01*
X13427816Y50394949D01*
X13510215Y50454815D01*
X13599786Y50519891D01*
X13599788Y50519894D01*
X13599792Y50519896D01*
X13750104Y50670208D01*
X13750106Y50670212D01*
X13750109Y50670214D01*
X13875048Y50842180D01*
X13875047Y50842180D01*
X13875051Y50842184D01*
X13971557Y51031588D01*
X14037246Y51233757D01*
X14070500Y51443713D01*
X14070500Y51656287D01*
X14037246Y51866243D01*
X13971557Y52068412D01*
X13875051Y52257816D01*
X13875049Y52257819D01*
X13875048Y52257821D01*
X13750109Y52429787D01*
X13599786Y52580110D01*
X13427820Y52705049D01*
X13423139Y52707434D01*
X13419054Y52709515D01*
X13368259Y52757488D01*
X13351463Y52825308D01*
X13373999Y52891444D01*
X13419054Y52930485D01*
X13427816Y52934949D01*
X13514138Y52997665D01*
X13599786Y53059891D01*
X13599788Y53059894D01*
X13599792Y53059896D01*
X13750104Y53210208D01*
X13750106Y53210212D01*
X13750109Y53210214D01*
X13875048Y53382180D01*
X13875047Y53382180D01*
X13875051Y53382184D01*
X13971557Y53571588D01*
X14037246Y53773757D01*
X14070500Y53983713D01*
X14070500Y54196287D01*
X14037246Y54406243D01*
X13971557Y54608412D01*
X13875051Y54797816D01*
X13875049Y54797819D01*
X13875048Y54797821D01*
X13750109Y54969787D01*
X13599786Y55120110D01*
X13427820Y55245049D01*
X13427115Y55245409D01*
X13419054Y55249515D01*
X13368259Y55297488D01*
X13351463Y55365308D01*
X13373999Y55431444D01*
X13419054Y55470485D01*
X13427816Y55474949D01*
X13467997Y55504142D01*
X13599786Y55599891D01*
X13599788Y55599894D01*
X13599792Y55599896D01*
X13750104Y55750208D01*
X13750106Y55750212D01*
X13750109Y55750214D01*
X13875048Y55922180D01*
X13875047Y55922180D01*
X13875051Y55922184D01*
X13971557Y56111588D01*
X14037246Y56313757D01*
X14070500Y56523713D01*
X14070500Y56736287D01*
X14037246Y56946243D01*
X13971557Y57148412D01*
X13875051Y57337816D01*
X13875049Y57337819D01*
X13875048Y57337821D01*
X13750109Y57509787D01*
X13599786Y57660110D01*
X13427820Y57785049D01*
X13427115Y57785409D01*
X13419054Y57789515D01*
X13368259Y57837488D01*
X13351463Y57905308D01*
X13373999Y57971444D01*
X13419054Y58010485D01*
X13427816Y58014949D01*
X13514138Y58077665D01*
X13599786Y58139891D01*
X13599788Y58139894D01*
X13599792Y58139896D01*
X13750104Y58290208D01*
X13750106Y58290212D01*
X13750109Y58290214D01*
X13875048Y58462180D01*
X13875047Y58462180D01*
X13875051Y58462184D01*
X13971557Y58651588D01*
X14037246Y58853757D01*
X14070500Y59063713D01*
X14070500Y59276287D01*
X14037246Y59486243D01*
X13971557Y59688412D01*
X13875051Y59877816D01*
X13875049Y59877819D01*
X13875048Y59877821D01*
X13750109Y60049787D01*
X13599786Y60200110D01*
X13427820Y60325049D01*
X13427115Y60325409D01*
X13419054Y60329515D01*
X13368259Y60377488D01*
X13351463Y60445308D01*
X13373999Y60511444D01*
X13419054Y60550485D01*
X13427816Y60554949D01*
X13442769Y60565814D01*
X13603734Y60682759D01*
X13604364Y60681892D01*
X13663419Y60708359D01*
X13680200Y60709500D01*
X14020623Y60709500D01*
X14051647Y60715672D01*
X14117269Y60728725D01*
X14213917Y60747949D01*
X14267246Y60770039D01*
X14395995Y60823368D01*
X14559863Y60932861D01*
X14699220Y61072218D01*
X14699221Y61072221D01*
X14706287Y61079286D01*
X14706289Y61079290D01*
X16587820Y62960821D01*
X16649142Y62994304D01*
X16718834Y62989320D01*
G37*
%TD.AperFunction*%
%TA.AperFunction,Conductor*%
G36*
X40782539Y95679815D02*
G01*
X40828294Y95627011D01*
X40839500Y95575500D01*
X40839500Y84382655D01*
X40819815Y84315616D01*
X40767011Y84269861D01*
X40697853Y84259917D01*
X40634297Y84288942D01*
X40596523Y84347720D01*
X40593883Y84358463D01*
X40583052Y84412911D01*
X40583051Y84412912D01*
X40583051Y84412916D01*
X40583049Y84412921D01*
X40507635Y84594989D01*
X40507628Y84595002D01*
X40398139Y84758863D01*
X40398136Y84758867D01*
X40255686Y84901317D01*
X40255655Y84901346D01*
X37543560Y87613441D01*
X37543540Y87613463D01*
X37399866Y87757137D01*
X37399862Y87757140D01*
X37236001Y87866629D01*
X37235992Y87866634D01*
X37163396Y87896704D01*
X37107246Y87919962D01*
X37053917Y87942051D01*
X37053913Y87942052D01*
X37053909Y87942054D01*
X36957269Y87961276D01*
X36860625Y87980500D01*
X36860622Y87980500D01*
X36520200Y87980500D01*
X36453161Y88000185D01*
X36440634Y88009494D01*
X36267820Y88135049D01*
X36078414Y88231556D01*
X36078413Y88231557D01*
X36078412Y88231557D01*
X35876243Y88297246D01*
X35876241Y88297247D01*
X35876240Y88297247D01*
X35714957Y88322792D01*
X35666287Y88330500D01*
X35453713Y88330500D01*
X35405042Y88322792D01*
X35243760Y88297247D01*
X35041585Y88231556D01*
X34852179Y88135049D01*
X34680213Y88010110D01*
X34529890Y87859787D01*
X34404951Y87687821D01*
X34308444Y87498415D01*
X34242753Y87296240D01*
X34209500Y87086287D01*
X34209500Y86873714D01*
X34222145Y86793873D01*
X34242754Y86663757D01*
X34293933Y86506244D01*
X34308444Y86461586D01*
X34404951Y86272180D01*
X34529890Y86100214D01*
X34643430Y85986674D01*
X34676915Y85925351D01*
X34671931Y85855659D01*
X34630059Y85799726D01*
X34599083Y85782811D01*
X34467669Y85733797D01*
X34467664Y85733794D01*
X34352455Y85647548D01*
X34352452Y85647545D01*
X34266206Y85532336D01*
X34266202Y85532329D01*
X34215908Y85397483D01*
X34209501Y85337884D01*
X34209500Y85337865D01*
X34209500Y83542130D01*
X34209501Y83542124D01*
X34215908Y83482517D01*
X34266202Y83347672D01*
X34266206Y83347665D01*
X34352452Y83232456D01*
X34352455Y83232453D01*
X34467664Y83146207D01*
X34467671Y83146203D01*
X34602517Y83095909D01*
X34602516Y83095909D01*
X34609444Y83095165D01*
X34662127Y83089500D01*
X35444217Y83089501D01*
X35511256Y83069817D01*
X35531898Y83053182D01*
X37083181Y81501899D01*
X37116666Y81440576D01*
X37119500Y81414218D01*
X37119500Y62123504D01*
X37099815Y62056465D01*
X37047011Y62010710D01*
X36977853Y62000766D01*
X36914297Y62029791D01*
X36877569Y62085186D01*
X36831094Y62228219D01*
X36831094Y62228220D01*
X36822396Y62245292D01*
X36287106Y61710001D01*
X36287106Y61710000D01*
X36822395Y61174710D01*
X36822395Y61174711D01*
X36831093Y61191780D01*
X36831094Y61191782D01*
X36877569Y61334815D01*
X36917007Y61392491D01*
X36981365Y61419689D01*
X37050212Y61407774D01*
X37101687Y61360530D01*
X37119500Y61296497D01*
X37119500Y60290860D01*
X37099815Y60223821D01*
X37047011Y60178066D01*
X36977853Y60168122D01*
X36914297Y60197147D01*
X36879318Y60247527D01*
X36873797Y60262329D01*
X36873793Y60262336D01*
X36787547Y60377545D01*
X36787544Y60377548D01*
X36672335Y60463794D01*
X36672328Y60463798D01*
X36537482Y60514092D01*
X36537483Y60514092D01*
X36477883Y60520499D01*
X36477881Y60520500D01*
X36477873Y60520500D01*
X36477865Y60520500D01*
X36113756Y60520500D01*
X36046717Y60540185D01*
X36026075Y60556819D01*
X35580001Y61002894D01*
X35580000Y61002894D01*
X35133923Y60556819D01*
X35072600Y60523334D01*
X35046242Y60520500D01*
X34682130Y60520500D01*
X34682123Y60520499D01*
X34622516Y60514092D01*
X34487671Y60463798D01*
X34487664Y60463794D01*
X34372455Y60377548D01*
X34372452Y60377545D01*
X34286206Y60262336D01*
X34286202Y60262329D01*
X34235908Y60127483D01*
X34229501Y60067884D01*
X34229500Y60067865D01*
X34229500Y58272130D01*
X34229501Y58272124D01*
X34235908Y58212517D01*
X34286202Y58077672D01*
X34286206Y58077665D01*
X34372452Y57962456D01*
X34372455Y57962453D01*
X34487664Y57876207D01*
X34487671Y57876203D01*
X34502473Y57870682D01*
X34558407Y57828811D01*
X34582824Y57763346D01*
X34567972Y57695073D01*
X34518567Y57645668D01*
X34459140Y57630500D01*
X28920200Y57630500D01*
X28853161Y57650185D01*
X28840634Y57659494D01*
X28667820Y57785049D01*
X28567552Y57836138D01*
X28516756Y57884113D01*
X28509506Y57913389D01*
X27960001Y58462894D01*
X27960000Y58462894D01*
X27412019Y57914915D01*
X27409669Y57896727D01*
X27364673Y57843275D01*
X27352447Y57836139D01*
X27252182Y57785051D01*
X27080213Y57660110D01*
X26929890Y57509787D01*
X26804951Y57337821D01*
X26708444Y57148415D01*
X26708443Y57148413D01*
X26708443Y57148412D01*
X26699657Y57121370D01*
X26662431Y57006802D01*
X26622993Y56949126D01*
X26558635Y56921928D01*
X26489788Y56933843D01*
X26438313Y56981087D01*
X26420500Y57045120D01*
X26420500Y58756497D01*
X26440185Y58823536D01*
X26492989Y58869291D01*
X26562147Y58879235D01*
X26625703Y58850210D01*
X26662431Y58794815D01*
X26708903Y58651787D01*
X26708908Y58651775D01*
X26717602Y58634711D01*
X26717603Y58634710D01*
X27252894Y59170000D01*
X27187068Y59235826D01*
X27460000Y59235826D01*
X27460000Y59104174D01*
X27494075Y58977007D01*
X27559901Y58862993D01*
X27652993Y58769901D01*
X27767007Y58704075D01*
X27894174Y58670000D01*
X28025826Y58670000D01*
X28152993Y58704075D01*
X28267007Y58769901D01*
X28360099Y58862993D01*
X28425925Y58977007D01*
X28460000Y59104174D01*
X28460000Y59170001D01*
X28667106Y59170001D01*
X28667106Y59169999D01*
X29202395Y58634710D01*
X29202395Y58634711D01*
X29211093Y58651780D01*
X29211094Y58651782D01*
X29276757Y58853870D01*
X29276757Y58853873D01*
X29310000Y59063754D01*
X29310000Y59276247D01*
X29276757Y59486128D01*
X29276757Y59486131D01*
X29211094Y59688219D01*
X29211094Y59688220D01*
X29202396Y59705292D01*
X28667106Y59170001D01*
X28460000Y59170001D01*
X28460000Y59235826D01*
X28425925Y59362993D01*
X28360099Y59477007D01*
X28267007Y59570099D01*
X28152993Y59635925D01*
X28025826Y59670000D01*
X27894174Y59670000D01*
X27767007Y59635925D01*
X27652993Y59570099D01*
X27559901Y59477007D01*
X27494075Y59362993D01*
X27460000Y59235826D01*
X27187068Y59235826D01*
X26717603Y59705291D01*
X26708904Y59688217D01*
X26662431Y59545186D01*
X26622993Y59487510D01*
X26558635Y59460312D01*
X26489788Y59472227D01*
X26438313Y59519471D01*
X26420500Y59583504D01*
X26420500Y61294881D01*
X26440185Y61361920D01*
X26492989Y61407675D01*
X26562147Y61417619D01*
X26625703Y61388594D01*
X26662430Y61333201D01*
X26708443Y61191588D01*
X26708444Y61191586D01*
X26804951Y61002180D01*
X26929890Y60830214D01*
X27080213Y60679891D01*
X27252179Y60554952D01*
X27252181Y60554951D01*
X27252184Y60554949D01*
X27352446Y60503864D01*
X27403241Y60455890D01*
X27410490Y60426616D01*
X27960000Y59877106D01*
X27960001Y59877106D01*
X28507978Y60425085D01*
X28510328Y60443271D01*
X28555322Y60496724D01*
X28567541Y60503857D01*
X28667816Y60554949D01*
X28719255Y60592322D01*
X28839786Y60679891D01*
X28839788Y60679894D01*
X28839792Y60679896D01*
X28990104Y60830208D01*
X28990106Y60830212D01*
X28990109Y60830214D01*
X29115048Y61002180D01*
X29115047Y61002180D01*
X29115051Y61002184D01*
X29211557Y61191588D01*
X29277246Y61393757D01*
X29310500Y61603713D01*
X29310500Y61816247D01*
X34230000Y61816247D01*
X34230000Y61603754D01*
X34263242Y61393873D01*
X34263242Y61393870D01*
X34328903Y61191787D01*
X34328908Y61191775D01*
X34337602Y61174711D01*
X34337603Y61174710D01*
X34872894Y61710000D01*
X34807068Y61775826D01*
X35080000Y61775826D01*
X35080000Y61644174D01*
X35114075Y61517007D01*
X35179901Y61402993D01*
X35272993Y61309901D01*
X35387007Y61244075D01*
X35514174Y61210000D01*
X35645826Y61210000D01*
X35772993Y61244075D01*
X35887007Y61309901D01*
X35980099Y61402993D01*
X36045925Y61517007D01*
X36080000Y61644174D01*
X36080000Y61775826D01*
X36045925Y61902993D01*
X35980099Y62017007D01*
X35887007Y62110099D01*
X35772993Y62175925D01*
X35645826Y62210000D01*
X35514174Y62210000D01*
X35387007Y62175925D01*
X35272993Y62110099D01*
X35179901Y62017007D01*
X35114075Y61902993D01*
X35080000Y61775826D01*
X34807068Y61775826D01*
X34337603Y62245291D01*
X34328904Y62228217D01*
X34263242Y62026131D01*
X34263242Y62026128D01*
X34230000Y61816247D01*
X29310500Y61816247D01*
X29310500Y61816287D01*
X29277246Y62026243D01*
X29211557Y62228412D01*
X29115051Y62417816D01*
X29115049Y62417819D01*
X29115048Y62417821D01*
X28990109Y62589787D01*
X28839786Y62740110D01*
X28746113Y62808166D01*
X28746094Y62808180D01*
X28667816Y62865051D01*
X28651725Y62873250D01*
X28644958Y62877916D01*
X28627920Y62898920D01*
X28608259Y62917488D01*
X28606238Y62925649D01*
X28600942Y62932177D01*
X28598702Y62952397D01*
X35044709Y62952397D01*
X35580000Y62417106D01*
X35580001Y62417106D01*
X36115290Y62952397D01*
X36115289Y62952398D01*
X36098225Y62961092D01*
X36098213Y62961097D01*
X35896128Y63026758D01*
X35686246Y63060000D01*
X35473754Y63060000D01*
X35263872Y63026758D01*
X35263869Y63026758D01*
X35061783Y62961096D01*
X35044709Y62952397D01*
X28598702Y62952397D01*
X28597964Y62959057D01*
X28591463Y62985308D01*
X28594174Y62993266D01*
X28593249Y63001622D01*
X28605275Y63025843D01*
X28613999Y63051444D01*
X28620998Y63057510D01*
X28624322Y63064202D01*
X28638508Y63072682D01*
X28659054Y63090485D01*
X28667816Y63094949D01*
X28689789Y63110914D01*
X28839786Y63219891D01*
X28839788Y63219894D01*
X28839792Y63219896D01*
X28990104Y63370208D01*
X28990106Y63370212D01*
X28990109Y63370214D01*
X29115048Y63542180D01*
X29115047Y63542180D01*
X29115051Y63542184D01*
X29211557Y63731588D01*
X29277246Y63933757D01*
X29310500Y64143713D01*
X29310500Y64356287D01*
X29277246Y64566243D01*
X29211557Y64768412D01*
X29115051Y64957816D01*
X29115049Y64957819D01*
X29115048Y64957821D01*
X28990109Y65129787D01*
X28839786Y65280110D01*
X28667820Y65405049D01*
X28667115Y65405409D01*
X28659054Y65409515D01*
X28608259Y65457488D01*
X28591463Y65525308D01*
X28613999Y65591444D01*
X28659054Y65630485D01*
X28667816Y65634949D01*
X28702537Y65660175D01*
X28839786Y65759891D01*
X28839788Y65759894D01*
X28839792Y65759896D01*
X28990104Y65910208D01*
X28990106Y65910212D01*
X28990109Y65910214D01*
X29115048Y66082180D01*
X29115047Y66082180D01*
X29115051Y66082184D01*
X29211557Y66271588D01*
X29277246Y66473757D01*
X29310500Y66683713D01*
X29310500Y66896287D01*
X29277246Y67106243D01*
X29211557Y67308412D01*
X29115051Y67497816D01*
X29115049Y67497819D01*
X29115048Y67497821D01*
X28990109Y67669787D01*
X28839786Y67820110D01*
X28667820Y67945049D01*
X28667115Y67945409D01*
X28659054Y67949515D01*
X28608259Y67997488D01*
X28591463Y68065308D01*
X28613999Y68131444D01*
X28659054Y68170485D01*
X28667816Y68174949D01*
X28702537Y68200175D01*
X28839786Y68299891D01*
X28839788Y68299894D01*
X28839792Y68299896D01*
X28990104Y68450208D01*
X28990106Y68450212D01*
X28990109Y68450214D01*
X29115048Y68622180D01*
X29115047Y68622180D01*
X29115051Y68622184D01*
X29211557Y68811588D01*
X29277246Y69013757D01*
X29310500Y69223713D01*
X29310500Y69436287D01*
X29277246Y69646243D01*
X29211557Y69848412D01*
X29115051Y70037816D01*
X29115049Y70037819D01*
X29115048Y70037821D01*
X28990109Y70209787D01*
X28839786Y70360110D01*
X28667820Y70485049D01*
X28667115Y70485409D01*
X28659054Y70489515D01*
X28608259Y70537488D01*
X28591463Y70605308D01*
X28613999Y70671444D01*
X28659054Y70710485D01*
X28667816Y70714949D01*
X28702537Y70740175D01*
X28839786Y70839891D01*
X28839788Y70839894D01*
X28839792Y70839896D01*
X28990104Y70990208D01*
X28990106Y70990212D01*
X28990109Y70990214D01*
X29115048Y71162180D01*
X29115047Y71162180D01*
X29115051Y71162184D01*
X29211557Y71351588D01*
X29277246Y71553757D01*
X29310500Y71763713D01*
X29310500Y71976287D01*
X29277246Y72186243D01*
X29211557Y72388412D01*
X29115051Y72577816D01*
X29115049Y72577819D01*
X29115048Y72577821D01*
X28990109Y72749787D01*
X28839786Y72900110D01*
X28667820Y73025049D01*
X28667115Y73025409D01*
X28659054Y73029515D01*
X28608259Y73077488D01*
X28591463Y73145308D01*
X28613999Y73211444D01*
X28659054Y73250485D01*
X28667816Y73254949D01*
X28702537Y73280175D01*
X28839786Y73379891D01*
X28839788Y73379894D01*
X28839792Y73379896D01*
X28990104Y73530208D01*
X28990106Y73530212D01*
X28990109Y73530214D01*
X29115048Y73702180D01*
X29115047Y73702180D01*
X29115051Y73702184D01*
X29211557Y73891588D01*
X29277246Y74093757D01*
X29310500Y74303713D01*
X29310500Y74516287D01*
X29277246Y74726243D01*
X29211557Y74928412D01*
X29115051Y75117816D01*
X29115049Y75117819D01*
X29115048Y75117821D01*
X28990109Y75289787D01*
X28839786Y75440110D01*
X28667820Y75565049D01*
X28667115Y75565409D01*
X28659054Y75569515D01*
X28608259Y75617488D01*
X28591463Y75685308D01*
X28613999Y75751444D01*
X28659054Y75790485D01*
X28667816Y75794949D01*
X28728485Y75839027D01*
X28839786Y75919891D01*
X28839788Y75919894D01*
X28839792Y75919896D01*
X28990104Y76070208D01*
X28990106Y76070212D01*
X28990109Y76070214D01*
X29115048Y76242180D01*
X29115047Y76242180D01*
X29115051Y76242184D01*
X29211557Y76431588D01*
X29277246Y76633757D01*
X29310500Y76843713D01*
X29310500Y77056287D01*
X29277246Y77266243D01*
X29211557Y77468412D01*
X29115051Y77657816D01*
X29115049Y77657819D01*
X29115048Y77657821D01*
X28990109Y77829787D01*
X28839786Y77980110D01*
X28667820Y78105049D01*
X28667115Y78105409D01*
X28659054Y78109515D01*
X28608259Y78157488D01*
X28591463Y78225308D01*
X28613999Y78291444D01*
X28659054Y78330485D01*
X28667816Y78334949D01*
X28750215Y78394815D01*
X28839786Y78459891D01*
X28839788Y78459894D01*
X28839792Y78459896D01*
X28990104Y78610208D01*
X28990106Y78610212D01*
X28990109Y78610214D01*
X29115048Y78782180D01*
X29115047Y78782180D01*
X29115051Y78782184D01*
X29211557Y78971588D01*
X29277246Y79173757D01*
X29310500Y79383713D01*
X29310500Y79596287D01*
X29277246Y79806243D01*
X29211557Y80008412D01*
X29115051Y80197816D01*
X29115049Y80197819D01*
X29115048Y80197821D01*
X28990109Y80369787D01*
X28839786Y80520110D01*
X28667820Y80645049D01*
X28667115Y80645409D01*
X28659054Y80649515D01*
X28608259Y80697488D01*
X28591463Y80765308D01*
X28613999Y80831444D01*
X28659054Y80870485D01*
X28667816Y80874949D01*
X28689789Y80890914D01*
X28839786Y80999891D01*
X28839788Y80999894D01*
X28839792Y80999896D01*
X28990104Y81150208D01*
X28990106Y81150212D01*
X28990109Y81150214D01*
X29115048Y81322180D01*
X29115047Y81322180D01*
X29115051Y81322184D01*
X29211557Y81511588D01*
X29277246Y81713757D01*
X29310500Y81923713D01*
X29310500Y82136287D01*
X29277246Y82346243D01*
X29211557Y82548412D01*
X29115051Y82737816D01*
X29115049Y82737819D01*
X29115048Y82737821D01*
X28990109Y82909787D01*
X28839786Y83060110D01*
X28667820Y83185049D01*
X28667115Y83185409D01*
X28659054Y83189515D01*
X28608259Y83237488D01*
X28591463Y83305308D01*
X28613999Y83371444D01*
X28659054Y83410485D01*
X28667816Y83414949D01*
X28728485Y83459027D01*
X28839786Y83539891D01*
X28839788Y83539894D01*
X28839792Y83539896D01*
X28990104Y83690208D01*
X28990106Y83690212D01*
X28990109Y83690214D01*
X29115048Y83862180D01*
X29115047Y83862180D01*
X29115051Y83862184D01*
X29211557Y84051588D01*
X29277246Y84253757D01*
X29310500Y84463713D01*
X29310500Y84676287D01*
X29277246Y84886243D01*
X29211557Y85088412D01*
X29115051Y85277816D01*
X29115049Y85277819D01*
X29115048Y85277821D01*
X28990109Y85449787D01*
X28839786Y85600110D01*
X28667820Y85725049D01*
X28667115Y85725409D01*
X28659054Y85729515D01*
X28608259Y85777488D01*
X28591463Y85845308D01*
X28613999Y85911444D01*
X28659054Y85950485D01*
X28667816Y85954949D01*
X28754138Y86017665D01*
X28839786Y86079891D01*
X28839788Y86079894D01*
X28839792Y86079896D01*
X28990104Y86230208D01*
X28990106Y86230212D01*
X28990109Y86230214D01*
X29115048Y86402180D01*
X29115047Y86402180D01*
X29115051Y86402184D01*
X29211557Y86591588D01*
X29277246Y86793757D01*
X29310500Y87003713D01*
X29310500Y87216287D01*
X29277246Y87426243D01*
X29211557Y87628412D01*
X29115051Y87817816D01*
X29115049Y87817819D01*
X29115048Y87817821D01*
X28990109Y87989787D01*
X28876569Y88103327D01*
X28843084Y88164650D01*
X28848068Y88234342D01*
X28889940Y88290275D01*
X28920915Y88307190D01*
X29052331Y88356204D01*
X29167546Y88442454D01*
X29253796Y88557669D01*
X29304091Y88692517D01*
X29310500Y88752127D01*
X29310499Y90547872D01*
X29304091Y90607483D01*
X29295575Y90630315D01*
X29253797Y90742329D01*
X29253793Y90742336D01*
X29167547Y90857545D01*
X29167544Y90857548D01*
X29052335Y90943794D01*
X29052328Y90943798D01*
X28917482Y90994092D01*
X28917483Y90994092D01*
X28857883Y91000499D01*
X28857881Y91000500D01*
X28857873Y91000500D01*
X28857864Y91000500D01*
X27062129Y91000500D01*
X27062123Y91000499D01*
X27002516Y90994092D01*
X26867671Y90943798D01*
X26867664Y90943794D01*
X26752455Y90857548D01*
X26752452Y90857545D01*
X26666206Y90742336D01*
X26666204Y90742332D01*
X26666204Y90742331D01*
X26662039Y90731166D01*
X26620171Y90675234D01*
X26554707Y90650816D01*
X26545859Y90650500D01*
X23955783Y90650500D01*
X23888744Y90670185D01*
X23868102Y90686819D01*
X19953209Y94601711D01*
X19953206Y94601715D01*
X19953206Y94601714D01*
X19946139Y94608781D01*
X19946139Y94608782D01*
X19806782Y94748139D01*
X19806781Y94748140D01*
X19806780Y94748141D01*
X19642920Y94857629D01*
X19642911Y94857634D01*
X19570315Y94887704D01*
X19514165Y94910962D01*
X19460836Y94933051D01*
X19460832Y94933052D01*
X19460828Y94933054D01*
X19364188Y94952276D01*
X19267544Y94971500D01*
X19267541Y94971500D01*
X11117724Y94971500D01*
X11117719Y94971500D01*
X11085656Y94965124D01*
X11085657Y94965123D01*
X10924435Y94933054D01*
X10924429Y94933052D01*
X10742353Y94857634D01*
X10742344Y94857629D01*
X10578484Y94748141D01*
X10578480Y94748138D01*
X7652220Y91821876D01*
X7652218Y91821874D01*
X7582538Y91752195D01*
X7512859Y91682516D01*
X7403371Y91518656D01*
X7403364Y91518643D01*
X7327950Y91336575D01*
X7327947Y91336565D01*
X7289500Y91143279D01*
X7289500Y82275783D01*
X7269815Y82208744D01*
X7253181Y82188102D01*
X6282220Y81217141D01*
X6282218Y81217139D01*
X6243103Y81178024D01*
X6142859Y81077781D01*
X6033371Y80913920D01*
X6033364Y80913907D01*
X5992005Y80814057D01*
X5991999Y80814040D01*
X5990119Y80809500D01*
X5957949Y80731836D01*
X5947539Y80679500D01*
X5946124Y80672391D01*
X5946124Y80672388D01*
X5919500Y80538544D01*
X5919500Y58315783D01*
X5899815Y58248744D01*
X5883181Y58228102D01*
X4462220Y56807141D01*
X4462218Y56807139D01*
X4461139Y56806060D01*
X4399800Y56772605D01*
X4330110Y56777623D01*
X4274197Y56819521D01*
X4249812Y56884998D01*
X4249500Y56893784D01*
X4249500Y82253218D01*
X4269185Y82320257D01*
X4285819Y82340899D01*
X4682741Y82737821D01*
X5128499Y83183579D01*
X5189820Y83217062D01*
X5205291Y83219343D01*
X5206282Y83219500D01*
X5206287Y83219500D01*
X5416243Y83252754D01*
X5618412Y83318443D01*
X5807816Y83414949D01*
X5868485Y83459027D01*
X5979786Y83539891D01*
X5979788Y83539894D01*
X5979792Y83539896D01*
X6130104Y83690208D01*
X6130106Y83690212D01*
X6130109Y83690214D01*
X6255048Y83862180D01*
X6255047Y83862180D01*
X6255051Y83862184D01*
X6351557Y84051588D01*
X6417246Y84253757D01*
X6450500Y84463713D01*
X6450500Y84676287D01*
X6417246Y84886243D01*
X6351557Y85088412D01*
X6255051Y85277816D01*
X6255049Y85277819D01*
X6255048Y85277821D01*
X6130109Y85449787D01*
X6016569Y85563327D01*
X5983084Y85624650D01*
X5988068Y85694342D01*
X6029940Y85750275D01*
X6060915Y85767190D01*
X6192331Y85816204D01*
X6307546Y85902454D01*
X6393796Y86017669D01*
X6444091Y86152517D01*
X6450500Y86212127D01*
X6450499Y88007872D01*
X6444091Y88067483D01*
X6442387Y88072051D01*
X6393797Y88202329D01*
X6393793Y88202336D01*
X6307547Y88317545D01*
X6307544Y88317548D01*
X6192335Y88403794D01*
X6192328Y88403798D01*
X6057482Y88454092D01*
X6057483Y88454092D01*
X5997883Y88460499D01*
X5997881Y88460500D01*
X5997873Y88460500D01*
X5997864Y88460500D01*
X4202129Y88460500D01*
X4202123Y88460499D01*
X4142516Y88454092D01*
X4007671Y88403798D01*
X4007664Y88403794D01*
X3892455Y88317548D01*
X3892452Y88317545D01*
X3806206Y88202336D01*
X3806204Y88202332D01*
X3806204Y88202331D01*
X3802039Y88191166D01*
X3760171Y88135234D01*
X3694707Y88110816D01*
X3685859Y88110500D01*
X3151455Y88110500D01*
X3054812Y88091276D01*
X2958167Y88072053D01*
X2958161Y88072051D01*
X2904834Y88049963D01*
X2904834Y88049962D01*
X2859315Y88031108D01*
X2776089Y87996634D01*
X2694400Y87942051D01*
X2612216Y87887139D01*
X2612213Y87887136D01*
X1434980Y86709901D01*
X1110220Y86385141D01*
X1110218Y86385139D01*
X1057942Y86332863D01*
X970859Y86245781D01*
X861371Y86081921D01*
X861364Y86081908D01*
X821156Y85984836D01*
X821152Y85984825D01*
X818947Y85979500D01*
X785949Y85899836D01*
X771053Y85824949D01*
X769801Y85818659D01*
X769800Y85818653D01*
X756117Y85749863D01*
X723732Y85687952D01*
X663016Y85653378D01*
X593246Y85657119D01*
X536574Y85697985D01*
X510993Y85763004D01*
X510500Y85774055D01*
X510500Y95575500D01*
X530185Y95642539D01*
X582989Y95688294D01*
X634500Y95699500D01*
X40715500Y95699500D01*
X40782539Y95679815D01*
G37*
%TD.AperFunction*%
%TA.AperFunction,Conductor*%
G36*
X15281257Y91449815D02*
G01*
X15301899Y91433181D01*
X20402215Y86332863D01*
X20402219Y86332860D01*
X20566079Y86223372D01*
X20566085Y86223369D01*
X20566086Y86223368D01*
X20748165Y86147948D01*
X20909389Y86115879D01*
X20941457Y86109501D01*
X20941458Y86109500D01*
X20941459Y86109500D01*
X20941460Y86109500D01*
X21138540Y86109500D01*
X26999800Y86109500D01*
X27066839Y86089815D01*
X27079365Y86080507D01*
X27252182Y85954950D01*
X27260946Y85950484D01*
X27311742Y85902509D01*
X27328536Y85834688D01*
X27305998Y85768553D01*
X27260946Y85729516D01*
X27252182Y85725051D01*
X27076266Y85597241D01*
X27075635Y85598109D01*
X27056612Y85589583D01*
X27034735Y85575523D01*
X27020758Y85573514D01*
X27016581Y85571641D01*
X26999800Y85570500D01*
X26862594Y85570500D01*
X26862574Y85570501D01*
X26856460Y85570501D01*
X26659379Y85570501D01*
X26659376Y85570501D01*
X26466091Y85532054D01*
X26466083Y85532052D01*
X26284007Y85456634D01*
X26283998Y85456629D01*
X26120138Y85347141D01*
X26120134Y85347138D01*
X17511181Y76738184D01*
X17449858Y76704699D01*
X17380166Y76709683D01*
X17324233Y76751555D01*
X17299816Y76817019D01*
X17299500Y76825865D01*
X17299500Y77211625D01*
X17261052Y77404911D01*
X17261051Y77404912D01*
X17261051Y77404916D01*
X17244876Y77443967D01*
X17185635Y77586989D01*
X17185628Y77587002D01*
X17076139Y77750864D01*
X16933686Y77893317D01*
X16933655Y77893346D01*
X14703560Y80123441D01*
X14703540Y80123463D01*
X14559866Y80267137D01*
X14559862Y80267140D01*
X14396001Y80376629D01*
X14395992Y80376634D01*
X14321210Y80407609D01*
X14267246Y80429962D01*
X14213917Y80452051D01*
X14213913Y80452052D01*
X14213909Y80452054D01*
X14117269Y80471276D01*
X14020625Y80490500D01*
X14020622Y80490500D01*
X13680200Y80490500D01*
X13613161Y80510185D01*
X13600634Y80519494D01*
X13427820Y80645049D01*
X13427115Y80645409D01*
X13419054Y80649515D01*
X13368259Y80697488D01*
X13351463Y80765308D01*
X13373999Y80831444D01*
X13419054Y80870485D01*
X13427816Y80874949D01*
X13449789Y80890914D01*
X13599786Y80999891D01*
X13599788Y80999894D01*
X13599792Y80999896D01*
X13750104Y81150208D01*
X13750106Y81150212D01*
X13750109Y81150214D01*
X13875048Y81322180D01*
X13875047Y81322180D01*
X13875051Y81322184D01*
X13971557Y81511588D01*
X14037246Y81713757D01*
X14070500Y81923713D01*
X14070500Y82136287D01*
X14037246Y82346243D01*
X13971557Y82548412D01*
X13875051Y82737816D01*
X13875049Y82737819D01*
X13875048Y82737821D01*
X13750109Y82909787D01*
X13599786Y83060110D01*
X13427820Y83185049D01*
X13427115Y83185409D01*
X13419054Y83189515D01*
X13368259Y83237488D01*
X13351463Y83305308D01*
X13373999Y83371444D01*
X13419054Y83410485D01*
X13427816Y83414949D01*
X13488485Y83459027D01*
X13599786Y83539891D01*
X13599788Y83539894D01*
X13599792Y83539896D01*
X13750104Y83690208D01*
X13750106Y83690212D01*
X13750109Y83690214D01*
X13875048Y83862180D01*
X13875047Y83862180D01*
X13875051Y83862184D01*
X13971557Y84051588D01*
X14037246Y84253757D01*
X14070500Y84463713D01*
X14070500Y84676287D01*
X14037246Y84886243D01*
X13971557Y85088412D01*
X13875051Y85277816D01*
X13875049Y85277819D01*
X13875048Y85277821D01*
X13750109Y85449787D01*
X13599786Y85600110D01*
X13427820Y85725049D01*
X13327552Y85776138D01*
X13276756Y85824113D01*
X13269506Y85853389D01*
X12720001Y86402894D01*
X12720000Y86402894D01*
X12172019Y85854915D01*
X12169669Y85836727D01*
X12124673Y85783275D01*
X12112447Y85776139D01*
X12012182Y85725051D01*
X11840213Y85600110D01*
X11689894Y85449791D01*
X11689888Y85449784D01*
X11684815Y85442801D01*
X11629484Y85400137D01*
X11559870Y85394161D01*
X11498076Y85426769D01*
X11463721Y85487609D01*
X11460500Y85515690D01*
X11460500Y86506244D01*
X11480185Y86573283D01*
X11496819Y86593925D01*
X12012894Y87110000D01*
X11947068Y87175826D01*
X12220000Y87175826D01*
X12220000Y87044174D01*
X12254075Y86917007D01*
X12319901Y86802993D01*
X12412993Y86709901D01*
X12527007Y86644075D01*
X12654174Y86610000D01*
X12785826Y86610000D01*
X12912993Y86644075D01*
X13027007Y86709901D01*
X13120099Y86802993D01*
X13185925Y86917007D01*
X13220000Y87044174D01*
X13220000Y87110001D01*
X13427106Y87110001D01*
X13427106Y87109999D01*
X13962395Y86574710D01*
X13962395Y86574711D01*
X13971093Y86591780D01*
X13971094Y86591782D01*
X14036757Y86793870D01*
X14036757Y86793873D01*
X14070000Y87003754D01*
X14070000Y87216247D01*
X14036757Y87426128D01*
X14036757Y87426131D01*
X13971094Y87628219D01*
X13971094Y87628220D01*
X13962396Y87645292D01*
X13427106Y87110001D01*
X13220000Y87110001D01*
X13220000Y87175826D01*
X13185925Y87302993D01*
X13120099Y87417007D01*
X13027007Y87510099D01*
X12912993Y87575925D01*
X12785826Y87610000D01*
X12654174Y87610000D01*
X12527007Y87575925D01*
X12412993Y87510099D01*
X12319901Y87417007D01*
X12254075Y87302993D01*
X12220000Y87175826D01*
X11947068Y87175826D01*
X11496819Y87626075D01*
X11463334Y87687398D01*
X11460500Y87713756D01*
X11460500Y88239961D01*
X11480185Y88307000D01*
X11532989Y88352755D01*
X11602147Y88362699D01*
X11627831Y88356144D01*
X11762517Y88305909D01*
X11822127Y88299500D01*
X12186245Y88299501D01*
X12253282Y88279817D01*
X12273924Y88263182D01*
X12720000Y87817106D01*
X12720001Y87817106D01*
X13166075Y88263182D01*
X13227398Y88296667D01*
X13253754Y88299501D01*
X13617872Y88299501D01*
X13677483Y88305909D01*
X13812331Y88356204D01*
X13927546Y88442454D01*
X14013796Y88557669D01*
X14064091Y88692517D01*
X14070500Y88752127D01*
X14070499Y90547872D01*
X14064091Y90607483D01*
X14055575Y90630315D01*
X14013797Y90742329D01*
X14013793Y90742336D01*
X13927547Y90857545D01*
X13927544Y90857548D01*
X13812335Y90943794D01*
X13812328Y90943798D01*
X13677482Y90994092D01*
X13677483Y90994092D01*
X13617883Y91000499D01*
X13617881Y91000500D01*
X13617873Y91000500D01*
X13617865Y91000500D01*
X12082781Y91000500D01*
X12015742Y91020185D01*
X11969987Y91072989D01*
X11960043Y91142147D01*
X11989068Y91205703D01*
X11995066Y91212147D01*
X12216104Y91433184D01*
X12277425Y91466666D01*
X12303783Y91469500D01*
X15214218Y91469500D01*
X15281257Y91449815D01*
G37*
%TD.AperFunction*%
%TD*%
M02*
