%TF.GenerationSoftware,KiCad,Pcbnew,9.0.2*%
%TF.CreationDate,2025-12-13T15:21:03+01:00*%
%TF.ProjectId,p,702e6b69-6361-4645-9f70-636258585858,rev?*%
%TF.SameCoordinates,PX1c22260PY29f6300*%
%TF.FileFunction,Copper,L1,Top*%
%TF.FilePolarity,Positive*%
%FSLAX46Y46*%
G04 Gerber Fmt 4.6, Leading zero omitted, Abs format (unit mm)*
G04 Created by KiCad (PCBNEW 9.0.2) date 2025-12-13 15:21:03*
%MOMM*%
%LPD*%
G01*
G04 APERTURE LIST*
%TA.AperFunction,ComponentPad*%
%ADD10C,2.000000*%
%TD*%
%TA.AperFunction,ComponentPad*%
%ADD11R,1.700000X1.700000*%
%TD*%
%TA.AperFunction,ComponentPad*%
%ADD12R,2.350000X2.350000*%
%TD*%
%TA.AperFunction,Conductor*%
%ADD13C,1.000000*%
%TD*%
G04 APERTURE END LIST*
D10*
%TO.P,R1,1*%
%TO.N,Net-(U1A-Vdd)*%
X18991942Y3558535D03*
%TO.P,R1,2*%
%TO.N,Net-(J1-Pin_2)*%
X6291942Y3558535D03*
%TD*%
D11*
%TO.P,J1,1,Pin_1*%
%TO.N,GND*%
X3116942Y6033535D03*
D10*
%TO.P,J1,2,Pin_2*%
%TO.N,Net-(J1-Pin_2)*%
X3116942Y8573535D03*
%TO.P,J1,3,Pin_3*%
%TO.N,Net-(J1-Pin_3)*%
X3116942Y11113535D03*
%TD*%
%TO.P,R2,1*%
%TO.N,Net-(R2-Pad1)*%
X18991942Y13558535D03*
%TO.P,R2,2*%
%TO.N,Net-(J1-Pin_3)*%
X6291942Y13558535D03*
%TD*%
D12*
%TO.P,U1,1,Vdd*%
%TO.N,Net-(U1A-Vdd)*%
X18920000Y7000000D03*
D10*
%TO.P,U1,2*%
%TO.N,Net-(J1-Pin_2)*%
X24000000Y7000000D03*
%TO.P,U1,3*%
%TO.N,Net-(R2-Pad1)*%
X24008885Y10062070D03*
%TO.P,U1,4,Vss*%
%TO.N,GND*%
X18928885Y10062070D03*
%TD*%
D13*
%TO.N,Net-(U1A-Vdd)*%
X18991942Y6928058D02*
X18920000Y7000000D01*
X18991942Y3558535D02*
X18991942Y6928058D01*
%TO.N,Net-(J1-Pin_2)*%
X22500000Y1000000D02*
X24000000Y2500000D01*
X8500000Y1000000D02*
X22500000Y1000000D01*
X6291942Y3208058D02*
X8500000Y1000000D01*
X24000000Y2500000D02*
X24000000Y7000000D01*
X6291942Y3558535D02*
X6291942Y3208058D01*
X6291942Y7560535D02*
X6291942Y3558535D01*
X5278942Y8573535D02*
X6291942Y7560535D01*
X3116942Y8573535D02*
X5278942Y8573535D01*
%TO.N,Net-(R2-Pad1)*%
X20512420Y13558535D02*
X24008885Y10062070D01*
X18991942Y13558535D02*
X20512420Y13558535D01*
%TO.N,Net-(J1-Pin_3)*%
X5561942Y13558535D02*
X3116942Y11113535D01*
X6291942Y13558535D02*
X5561942Y13558535D01*
%TD*%
%TA.AperFunction,Conductor*%
%TO.N,GND*%
G36*
X25442539Y15979815D02*
G01*
X25488294Y15927011D01*
X25499500Y15875500D01*
X25499500Y10944851D01*
X25479815Y10877812D01*
X25427011Y10832057D01*
X25357853Y10822113D01*
X25294297Y10851138D01*
X25275182Y10871965D01*
X25261610Y10890645D01*
X25153402Y11039580D01*
X24986395Y11206587D01*
X24795318Y11345413D01*
X24584881Y11452637D01*
X24360253Y11525624D01*
X24126982Y11562570D01*
X24126977Y11562570D01*
X23974667Y11562570D01*
X23907628Y11582255D01*
X23886986Y11598889D01*
X21293899Y14191976D01*
X21293879Y14191998D01*
X21150205Y14335672D01*
X21150201Y14335675D01*
X20986340Y14445164D01*
X20986331Y14445169D01*
X20913735Y14475239D01*
X20857585Y14498497D01*
X20804256Y14520586D01*
X20804252Y14520587D01*
X20804248Y14520589D01*
X20707608Y14539811D01*
X20610964Y14559035D01*
X20610961Y14559035D01*
X20164831Y14559035D01*
X20097792Y14578720D01*
X20077150Y14595354D01*
X19969454Y14703050D01*
X19969452Y14703052D01*
X19778375Y14841878D01*
X19567938Y14949102D01*
X19343310Y15022089D01*
X19110039Y15059035D01*
X19110034Y15059035D01*
X18873850Y15059035D01*
X18873845Y15059035D01*
X18640573Y15022089D01*
X18415945Y14949102D01*
X18205508Y14841878D01*
X18096492Y14762673D01*
X18014432Y14703052D01*
X18014430Y14703050D01*
X18014429Y14703050D01*
X17847427Y14536048D01*
X17847427Y14536047D01*
X17847425Y14536045D01*
X17820145Y14498497D01*
X17708599Y14344969D01*
X17601375Y14134532D01*
X17528388Y13909904D01*
X17491442Y13676633D01*
X17491442Y13440438D01*
X17528388Y13207167D01*
X17601375Y12982539D01*
X17708599Y12772102D01*
X17847425Y12581025D01*
X18014432Y12414018D01*
X18205509Y12275192D01*
X18304933Y12224533D01*
X18415945Y12167969D01*
X18415947Y12167969D01*
X18415950Y12167967D01*
X18477316Y12148028D01*
X18640573Y12094982D01*
X18873845Y12058035D01*
X18873850Y12058035D01*
X19110039Y12058035D01*
X19343310Y12094982D01*
X19567934Y12167967D01*
X19778375Y12275192D01*
X19969452Y12414018D01*
X20018054Y12462621D01*
X20079374Y12496105D01*
X20149065Y12491122D01*
X20193415Y12462620D01*
X22472066Y10183969D01*
X22505551Y10122646D01*
X22508385Y10096288D01*
X22508385Y9943973D01*
X22545331Y9710702D01*
X22618318Y9486074D01*
X22712711Y9300820D01*
X22725542Y9275637D01*
X22864368Y9084560D01*
X23031375Y8917553D01*
X23222452Y8778727D01*
X23432893Y8671502D01*
X23497808Y8650410D01*
X23555484Y8610972D01*
X23582682Y8546614D01*
X23570767Y8477767D01*
X23523523Y8426292D01*
X23497810Y8414549D01*
X23424007Y8390569D01*
X23213566Y8283343D01*
X23104550Y8204138D01*
X23022490Y8144517D01*
X23022488Y8144515D01*
X23022487Y8144515D01*
X22855485Y7977513D01*
X22855485Y7977512D01*
X22855483Y7977510D01*
X22795862Y7895450D01*
X22716657Y7786434D01*
X22609433Y7575997D01*
X22536446Y7351369D01*
X22499500Y7118098D01*
X22499500Y6881903D01*
X22536446Y6648632D01*
X22609433Y6424004D01*
X22700641Y6245000D01*
X22716657Y6213567D01*
X22855483Y6022490D01*
X22855485Y6022488D01*
X22963181Y5914792D01*
X22996666Y5853469D01*
X22999500Y5827111D01*
X22999500Y2965783D01*
X22979815Y2898744D01*
X22963181Y2878102D01*
X22121899Y2036819D01*
X22060576Y2003334D01*
X22034218Y2000500D01*
X19755759Y2000500D01*
X19688720Y2020185D01*
X19642965Y2072989D01*
X19633021Y2142147D01*
X19662046Y2205703D01*
X19699464Y2234985D01*
X19778375Y2275192D01*
X19969452Y2414018D01*
X20136459Y2581025D01*
X20275285Y2772102D01*
X20382510Y2982543D01*
X20455495Y3207167D01*
X20458851Y3228356D01*
X20492442Y3440438D01*
X20492442Y3676633D01*
X20455495Y3909904D01*
X20382508Y4134532D01*
X20275284Y4344969D01*
X20136459Y4536045D01*
X20028761Y4643743D01*
X19995276Y4705066D01*
X19992442Y4731424D01*
X19992442Y5200501D01*
X20012127Y5267540D01*
X20064931Y5313295D01*
X20116442Y5324501D01*
X20142871Y5324501D01*
X20142872Y5324501D01*
X20202483Y5330909D01*
X20337331Y5381204D01*
X20452546Y5467454D01*
X20538796Y5582669D01*
X20589091Y5717517D01*
X20595500Y5777127D01*
X20595499Y8222872D01*
X20589091Y8282483D01*
X20588770Y8283343D01*
X20538797Y8417329D01*
X20538793Y8417336D01*
X20452547Y8532545D01*
X20452544Y8532548D01*
X20337335Y8618794D01*
X20337328Y8618798D01*
X20202482Y8669092D01*
X20202483Y8669092D01*
X20142883Y8675499D01*
X20142881Y8675500D01*
X20142873Y8675500D01*
X20142865Y8675500D01*
X19659711Y8675500D01*
X19592672Y8695185D01*
X19572030Y8711819D01*
X18928886Y9354964D01*
X18928885Y9354964D01*
X18285738Y8711819D01*
X18224415Y8678334D01*
X18198057Y8675500D01*
X17697129Y8675500D01*
X17697123Y8675499D01*
X17637516Y8669092D01*
X17502671Y8618798D01*
X17502664Y8618794D01*
X17387455Y8532548D01*
X17387452Y8532545D01*
X17301206Y8417336D01*
X17301202Y8417329D01*
X17250908Y8282483D01*
X17244501Y8222884D01*
X17244501Y8222877D01*
X17244500Y8222865D01*
X17244500Y5777130D01*
X17244501Y5777124D01*
X17250908Y5717517D01*
X17301202Y5582672D01*
X17301206Y5582665D01*
X17387452Y5467456D01*
X17387455Y5467453D01*
X17502664Y5381207D01*
X17502671Y5381203D01*
X17547618Y5364439D01*
X17637517Y5330909D01*
X17697127Y5324500D01*
X17867442Y5324501D01*
X17934481Y5304817D01*
X17980236Y5252013D01*
X17991442Y5200501D01*
X17991442Y4731424D01*
X17971757Y4664385D01*
X17955123Y4643743D01*
X17847427Y4536048D01*
X17847427Y4536047D01*
X17847425Y4536045D01*
X17787804Y4453985D01*
X17708599Y4344969D01*
X17601375Y4134532D01*
X17528388Y3909904D01*
X17491442Y3676633D01*
X17491442Y3440438D01*
X17528388Y3207167D01*
X17601375Y2982539D01*
X17654589Y2878102D01*
X17708599Y2772102D01*
X17847425Y2581025D01*
X18014432Y2414018D01*
X18205509Y2275192D01*
X18284420Y2234985D01*
X18335216Y2187010D01*
X18352011Y2119189D01*
X18329474Y2053055D01*
X18274759Y2009603D01*
X18228125Y2000500D01*
X8965783Y2000500D01*
X8898744Y2020185D01*
X8878102Y2036819D01*
X8421055Y2493866D01*
X7793642Y3121278D01*
X7760158Y3182600D01*
X7758851Y3228356D01*
X7792442Y3440438D01*
X7792442Y3676633D01*
X7755495Y3909904D01*
X7682508Y4134532D01*
X7575284Y4344969D01*
X7436459Y4536045D01*
X7328761Y4643743D01*
X7295276Y4705066D01*
X7292442Y4731424D01*
X7292442Y7659079D01*
X7267109Y7786433D01*
X7265127Y7796396D01*
X7253993Y7852371D01*
X7208562Y7962051D01*
X7202158Y7977512D01*
X7178577Y8034443D01*
X7178570Y8034456D01*
X7069082Y8198316D01*
X7044514Y8222884D01*
X6929724Y8337674D01*
X6929723Y8337675D01*
X6063150Y9204247D01*
X6063148Y9204250D01*
X6063148Y9204249D01*
X6056081Y9211316D01*
X6056081Y9211317D01*
X5916724Y9350674D01*
X5916723Y9350675D01*
X5916722Y9350676D01*
X5752862Y9460164D01*
X5752853Y9460169D01*
X5680257Y9490239D01*
X5624107Y9513497D01*
X5570778Y9535586D01*
X5570774Y9535587D01*
X5570770Y9535589D01*
X5474130Y9554811D01*
X5377486Y9574035D01*
X5377483Y9574035D01*
X4289831Y9574035D01*
X4262585Y9582036D01*
X4234628Y9587001D01*
X4227003Y9592484D01*
X4222792Y9593720D01*
X4205582Y9607051D01*
X4203839Y9608665D01*
X4094452Y9718052D01*
X4053852Y9747550D01*
X4048451Y9752551D01*
X4034165Y9776479D01*
X4017149Y9798546D01*
X4016503Y9806064D01*
X4012635Y9812543D01*
X4013554Y9840398D01*
X4011170Y9868160D01*
X4014691Y9874834D01*
X4014940Y9882375D01*
X4030770Y9905308D01*
X4043775Y9929955D01*
X4053751Y9938599D01*
X4054632Y9939875D01*
X4055774Y9940352D01*
X4059815Y9943853D01*
X4094452Y9969018D01*
X4261459Y10136025D01*
X4293498Y10180123D01*
X17428885Y10180123D01*
X17428885Y9944018D01*
X17465819Y9710823D01*
X17538783Y9486265D01*
X17574963Y9415257D01*
X17574964Y9415256D01*
X18221779Y10062070D01*
X18169118Y10114731D01*
X18528885Y10114731D01*
X18528885Y10009409D01*
X18556144Y9907676D01*
X18608805Y9816464D01*
X18683279Y9741990D01*
X18774491Y9689329D01*
X18876224Y9662070D01*
X18981546Y9662070D01*
X19083279Y9689329D01*
X19174491Y9741990D01*
X19248965Y9816464D01*
X19301626Y9907676D01*
X19328885Y10009409D01*
X19328885Y10062071D01*
X19635991Y10062071D01*
X19635991Y10062069D01*
X20282804Y9415256D01*
X20318989Y9486273D01*
X20391950Y9710823D01*
X20428885Y9944018D01*
X20428885Y10180123D01*
X20391950Y10413318D01*
X20318987Y10637873D01*
X20282804Y10708886D01*
X19635991Y10062071D01*
X19328885Y10062071D01*
X19328885Y10114731D01*
X19301626Y10216464D01*
X19248965Y10307676D01*
X19174491Y10382150D01*
X19083279Y10434811D01*
X18981546Y10462070D01*
X18876224Y10462070D01*
X18774491Y10434811D01*
X18683279Y10382150D01*
X18608805Y10307676D01*
X18556144Y10216464D01*
X18528885Y10114731D01*
X18169118Y10114731D01*
X17574963Y10708886D01*
X17538779Y10637868D01*
X17538779Y10637867D01*
X17465819Y10413319D01*
X17428885Y10180123D01*
X4293498Y10180123D01*
X4400285Y10327102D01*
X4507510Y10537543D01*
X4580495Y10762167D01*
X4581605Y10769176D01*
X4617442Y10995438D01*
X4617442Y11147754D01*
X4637127Y11214793D01*
X4653756Y11235431D01*
X4834317Y11415992D01*
X18282069Y11415992D01*
X18928885Y10769176D01*
X18928886Y10769176D01*
X19575699Y11415991D01*
X19575698Y11415992D01*
X19504690Y11452172D01*
X19280132Y11525136D01*
X19280133Y11525136D01*
X19046937Y11562070D01*
X18810833Y11562070D01*
X18577636Y11525136D01*
X18353088Y11452176D01*
X18353087Y11452176D01*
X18282069Y11415992D01*
X4834317Y11415992D01*
X5566355Y12148030D01*
X5627676Y12181513D01*
X5697367Y12176529D01*
X5710327Y12170832D01*
X5715950Y12167967D01*
X5886515Y12112547D01*
X5940573Y12094982D01*
X6173845Y12058035D01*
X6173850Y12058035D01*
X6410039Y12058035D01*
X6643310Y12094982D01*
X6867934Y12167967D01*
X7078375Y12275192D01*
X7269452Y12414018D01*
X7436459Y12581025D01*
X7575285Y12772102D01*
X7682510Y12982543D01*
X7755495Y13207167D01*
X7792442Y13440438D01*
X7792442Y13676633D01*
X7755495Y13909904D01*
X7682508Y14134532D01*
X7625944Y14245544D01*
X7575285Y14344968D01*
X7436459Y14536045D01*
X7269452Y14703052D01*
X7078375Y14841878D01*
X6867938Y14949102D01*
X6643310Y15022089D01*
X6410039Y15059035D01*
X6410034Y15059035D01*
X6173850Y15059035D01*
X6173845Y15059035D01*
X5940573Y15022089D01*
X5715945Y14949102D01*
X5505508Y14841878D01*
X5396492Y14762673D01*
X5314432Y14703052D01*
X5314430Y14703050D01*
X5314429Y14703050D01*
X5147424Y14536045D01*
X5147417Y14536037D01*
X5088157Y14454473D01*
X5056732Y14424257D01*
X4924159Y14335674D01*
X4854481Y14265996D01*
X4784803Y14196317D01*
X4784800Y14196314D01*
X3238841Y12650354D01*
X3177518Y12616869D01*
X3151160Y12614035D01*
X2998845Y12614035D01*
X2765573Y12577089D01*
X2540945Y12504102D01*
X2330508Y12396878D01*
X2221492Y12317673D01*
X2139432Y12258052D01*
X2139430Y12258050D01*
X2139429Y12258050D01*
X1972427Y12091048D01*
X1972427Y12091047D01*
X1972425Y12091045D01*
X1948442Y12058035D01*
X1833599Y11899969D01*
X1726375Y11689532D01*
X1653388Y11464904D01*
X1616442Y11231633D01*
X1616442Y10995438D01*
X1653388Y10762167D01*
X1726375Y10537539D01*
X1833599Y10327102D01*
X1972425Y10136025D01*
X2139432Y9969018D01*
X2174069Y9943852D01*
X2216734Y9888522D01*
X2222713Y9818909D01*
X2190107Y9757114D01*
X2174072Y9743220D01*
X2172380Y9741990D01*
X2139430Y9718051D01*
X1972427Y9551048D01*
X1972427Y9551047D01*
X1972425Y9551045D01*
X1925224Y9486078D01*
X1833599Y9359969D01*
X1726375Y9149532D01*
X1653388Y8924904D01*
X1616442Y8691633D01*
X1616442Y8455438D01*
X1653388Y8222167D01*
X1726375Y7997539D01*
X1825237Y7803513D01*
X1833599Y7787102D01*
X1972425Y7596025D01*
X1972427Y7596023D01*
X2047894Y7520556D01*
X2081379Y7459233D01*
X2076395Y7389541D01*
X2034523Y7333608D01*
X2029602Y7330445D01*
X1909754Y7240726D01*
X1909751Y7240723D01*
X1823591Y7125629D01*
X1823587Y7125622D01*
X1773345Y6990915D01*
X1773343Y6990908D01*
X1766942Y6931380D01*
X1766942Y6533535D01*
X4466942Y6533535D01*
X4466942Y6931363D01*
X4466941Y6931380D01*
X4460540Y6990908D01*
X4460538Y6990915D01*
X4410296Y7125622D01*
X4410292Y7125629D01*
X4324132Y7240723D01*
X4324129Y7240726D01*
X4201931Y7332204D01*
X4203705Y7334575D01*
X4195543Y7342740D01*
X4174401Y7358568D01*
X4171235Y7367057D01*
X4164827Y7373467D01*
X4159214Y7399288D01*
X4149986Y7424033D01*
X4151912Y7432886D01*
X4149987Y7441743D01*
X4159224Y7466497D01*
X4164840Y7492305D01*
X4172848Y7503004D01*
X4174416Y7507203D01*
X4185978Y7520545D01*
X4202154Y7536721D01*
X4263477Y7570202D01*
X4289831Y7573035D01*
X4813160Y7573035D01*
X4880199Y7553350D01*
X4900841Y7536716D01*
X5255123Y7182434D01*
X5288608Y7121111D01*
X5291442Y7094753D01*
X5291442Y4731424D01*
X5271757Y4664385D01*
X5255123Y4643743D01*
X5147427Y4536048D01*
X5147427Y4536047D01*
X5147425Y4536045D01*
X5087804Y4453985D01*
X5008599Y4344969D01*
X4901375Y4134532D01*
X4828388Y3909904D01*
X4791442Y3676633D01*
X4791442Y3440438D01*
X4828388Y3207167D01*
X4901375Y2982539D01*
X4954589Y2878102D01*
X5008599Y2772102D01*
X5147425Y2581025D01*
X5314432Y2414018D01*
X5505509Y2275192D01*
X5584420Y2234985D01*
X5715945Y2167969D01*
X5715947Y2167969D01*
X5715950Y2167967D01*
X5940574Y2094982D01*
X5959625Y2091965D01*
X6022758Y2062037D01*
X6027907Y2057173D01*
X7372898Y712181D01*
X7406383Y650858D01*
X7401399Y581166D01*
X7359527Y525233D01*
X7294063Y500816D01*
X7285217Y500500D01*
X624500Y500500D01*
X557461Y520185D01*
X511706Y572989D01*
X500500Y624500D01*
X500500Y5135691D01*
X1766942Y5135691D01*
X1773343Y5076163D01*
X1773345Y5076156D01*
X1823587Y4941449D01*
X1823591Y4941442D01*
X1909751Y4826348D01*
X1909754Y4826345D01*
X2024848Y4740185D01*
X2024855Y4740181D01*
X2159562Y4689939D01*
X2159569Y4689937D01*
X2219097Y4683536D01*
X2219114Y4683535D01*
X2616942Y4683535D01*
X3616942Y4683535D01*
X4014770Y4683535D01*
X4014786Y4683536D01*
X4074314Y4689937D01*
X4074321Y4689939D01*
X4209028Y4740181D01*
X4209035Y4740185D01*
X4324129Y4826345D01*
X4324132Y4826348D01*
X4410292Y4941442D01*
X4410296Y4941449D01*
X4460538Y5076156D01*
X4460540Y5076163D01*
X4466941Y5135691D01*
X4466942Y5135708D01*
X4466942Y5533535D01*
X3616942Y5533535D01*
X3616942Y4683535D01*
X2616942Y4683535D01*
X2616942Y5533535D01*
X1766942Y5533535D01*
X1766942Y5135691D01*
X500500Y5135691D01*
X500500Y6086196D01*
X2716942Y6086196D01*
X2716942Y5980874D01*
X2744201Y5879141D01*
X2796862Y5787929D01*
X2871336Y5713455D01*
X2962548Y5660794D01*
X3064281Y5633535D01*
X3169603Y5633535D01*
X3271336Y5660794D01*
X3362548Y5713455D01*
X3437022Y5787929D01*
X3489683Y5879141D01*
X3516942Y5980874D01*
X3516942Y6086196D01*
X3489683Y6187929D01*
X3437022Y6279141D01*
X3362548Y6353615D01*
X3271336Y6406276D01*
X3169603Y6433535D01*
X3064281Y6433535D01*
X2962548Y6406276D01*
X2871336Y6353615D01*
X2796862Y6279141D01*
X2744201Y6187929D01*
X2716942Y6086196D01*
X500500Y6086196D01*
X500500Y15875500D01*
X520185Y15942539D01*
X572989Y15988294D01*
X624500Y15999500D01*
X25375500Y15999500D01*
X25442539Y15979815D01*
G37*
%TD.AperFunction*%
%TD*%
M02*
