%TF.GenerationSoftware,KiCad,Pcbnew,9.0.2*%
%TF.CreationDate,2025-11-23T22:27:33+01:00*%
%TF.ProjectId,p,702e6b69-6361-4645-9f70-636258585858,rev?*%
%TF.SameCoordinates,PX1c22260PY29f6300*%
%TF.FileFunction,Copper,L1,Top*%
%TF.FilePolarity,Positive*%
%FSLAX46Y46*%
G04 Gerber Fmt 4.6, Leading zero omitted, Abs format (unit mm)*
G04 Created by KiCad (PCBNEW 9.0.2) date 2025-11-23 22:27:33*
%MOMM*%
%LPD*%
G01*
G04 APERTURE LIST*
%TA.AperFunction,ComponentPad*%
%ADD10C,2.350000*%
%TD*%
%TA.AperFunction,ComponentPad*%
%ADD11R,2.350000X2.350000*%
%TD*%
%TA.AperFunction,ComponentPad*%
%ADD12C,1.600000*%
%TD*%
%TA.AperFunction,ComponentPad*%
%ADD13R,1.700000X1.700000*%
%TD*%
%TA.AperFunction,ComponentPad*%
%ADD14C,1.700000*%
%TD*%
%TA.AperFunction,Conductor*%
%ADD15C,1.600000*%
%TD*%
G04 APERTURE END LIST*
D10*
%TO.P,U1,4,Vss*%
%TO.N,GND*%
X31286943Y10003535D03*
%TO.P,U1,3*%
%TO.N,Net-(R2-Pad1)*%
X36366943Y10003535D03*
%TO.P,U1,2*%
%TO.N,Net-(J1-Pin_2)*%
X36358058Y6941465D03*
D11*
%TO.P,U1,1,Vdd*%
%TO.N,Net-(U1A-Vdd)*%
X31278058Y6941465D03*
%TD*%
D12*
%TO.P,R1,2*%
%TO.N,Net-(J1-Pin_2)*%
X11472500Y4472500D03*
%TO.P,R1,1*%
%TO.N,Net-(U1A-Vdd)*%
X24172500Y4472500D03*
%TD*%
%TO.P,R2,1*%
%TO.N,Net-(R2-Pad1)*%
X24172500Y12972500D03*
%TO.P,R2,2*%
%TO.N,Net-(J1-Pin_3)*%
X11472500Y12972500D03*
%TD*%
D13*
%TO.P,J1,1,Pin_1*%
%TO.N,GND*%
X3297500Y5947500D03*
D14*
%TO.P,J1,2,Pin_2*%
%TO.N,Net-(J1-Pin_2)*%
X3297500Y8487500D03*
%TO.P,J1,3,Pin_3*%
%TO.N,Net-(J1-Pin_3)*%
X3297500Y11027500D03*
%TD*%
D15*
%TO.N,Net-(J1-Pin_2)*%
X31688093Y2271500D02*
X13673500Y2271500D01*
X13673500Y2271500D02*
X11472500Y4472500D01*
X36358058Y6941465D02*
X31688093Y2271500D01*
X3297500Y8487500D02*
X7457500Y8487500D01*
X7457500Y8487500D02*
X11472500Y4472500D01*
%TO.N,Net-(J1-Pin_3)*%
X3297500Y11027500D02*
X9527500Y11027500D01*
X9527500Y11027500D02*
X11472500Y12972500D01*
%TO.N,Net-(U1A-Vdd)*%
X29323023Y4472500D02*
X31278058Y6427535D01*
X24172500Y4472500D02*
X29323023Y4472500D01*
%TO.N,Net-(R2-Pad1)*%
X33111909Y13772499D02*
X36366943Y10517465D01*
X24972499Y13772499D02*
X33111909Y13772499D01*
X24172500Y12972500D02*
X24972499Y13772499D01*
%TD*%
%TA.AperFunction,Conductor*%
%TO.N,GND*%
G36*
X37942539Y15979815D02*
G01*
X37988294Y15927011D01*
X37999500Y15875500D01*
X37999500Y11157817D01*
X37979815Y11090778D01*
X37927011Y11045023D01*
X37857853Y11035079D01*
X37794297Y11064104D01*
X37777124Y11082330D01*
X37756542Y11109153D01*
X37704699Y11176716D01*
X37704697Y11176718D01*
X37704694Y11176722D01*
X37540129Y11341287D01*
X37540122Y11341293D01*
X37464604Y11399239D01*
X37462609Y11400770D01*
X37437774Y11426265D01*
X37435181Y11429834D01*
X34184491Y14680523D01*
X34184482Y14680533D01*
X34180151Y14684864D01*
X34024274Y14840741D01*
X34024270Y14840744D01*
X34024266Y14840748D01*
X33845934Y14970312D01*
X33845933Y14970313D01*
X33845931Y14970314D01*
X33783005Y15002377D01*
X33649515Y15070395D01*
X33649512Y15070396D01*
X33439861Y15138514D01*
X33330995Y15155757D01*
X33222131Y15173000D01*
X33001687Y15173000D01*
X32996576Y15173000D01*
X32996552Y15172999D01*
X24862277Y15172999D01*
X24789700Y15161504D01*
X24644546Y15138514D01*
X24434895Y15070396D01*
X24434892Y15070395D01*
X24238473Y14970312D01*
X24060140Y14840747D01*
X24060135Y14840743D01*
X23104258Y13884866D01*
X23062915Y13827962D01*
X23006011Y13749639D01*
X22990348Y13728081D01*
X22974685Y13706523D01*
X22874604Y13510107D01*
X22874603Y13510104D01*
X22806485Y13300453D01*
X22771999Y13082721D01*
X22771999Y12862280D01*
X22797028Y12704256D01*
X22806485Y12644548D01*
X22874603Y12434897D01*
X22874604Y12434894D01*
X22942622Y12301404D01*
X22959602Y12268079D01*
X22974687Y12238475D01*
X23104252Y12060142D01*
X23104256Y12060137D01*
X23260138Y11904255D01*
X23356369Y11834340D01*
X23420526Y11787728D01*
X23438478Y11774685D01*
X23534813Y11725600D01*
X23634893Y11674605D01*
X23634896Y11674604D01*
X23711006Y11649875D01*
X23844549Y11606485D01*
X24062278Y11571999D01*
X24062279Y11571999D01*
X24282721Y11571999D01*
X24282722Y11571999D01*
X24500451Y11606485D01*
X24710106Y11674605D01*
X24906522Y11774685D01*
X24924474Y11787728D01*
X25084865Y11904258D01*
X25240742Y12060135D01*
X25240743Y12060137D01*
X25247799Y12067193D01*
X25247804Y12067200D01*
X25516287Y12335683D01*
X25577609Y12369165D01*
X25603967Y12371999D01*
X32480441Y12371999D01*
X32547480Y12352314D01*
X32568122Y12335680D01*
X34570591Y10333211D01*
X34604076Y10271888D01*
X34605849Y10229347D01*
X34591443Y10119911D01*
X34591443Y9887170D01*
X34591444Y9887153D01*
X34621153Y9661485D01*
X34621822Y9656409D01*
X34681835Y9432437D01*
X34682063Y9431588D01*
X34771123Y9216575D01*
X34771131Y9216559D01*
X34887496Y9015011D01*
X34887507Y9014995D01*
X35029185Y8830356D01*
X35029191Y8830349D01*
X35193756Y8665784D01*
X35193763Y8665778D01*
X35312999Y8574285D01*
X35354202Y8517857D01*
X35358357Y8448111D01*
X35324145Y8387191D01*
X35312999Y8377533D01*
X35184878Y8279223D01*
X35184871Y8279217D01*
X35020306Y8114652D01*
X35020300Y8114645D01*
X34878622Y7930006D01*
X34878611Y7929990D01*
X34762246Y7728442D01*
X34762238Y7728426D01*
X34673178Y7513413D01*
X34612936Y7288588D01*
X34601505Y7201757D01*
X34573238Y7137861D01*
X34566247Y7130262D01*
X33265238Y5829253D01*
X33203915Y5795768D01*
X33134223Y5800752D01*
X33078290Y5842624D01*
X33053873Y5908088D01*
X33053557Y5916909D01*
X33053557Y8155825D01*
X33053557Y8155826D01*
X33053557Y8155829D01*
X33038104Y8273219D01*
X33038102Y8273226D01*
X33038102Y8273227D01*
X32977594Y8419306D01*
X32881340Y8544747D01*
X32755899Y8641001D01*
X32609820Y8701509D01*
X32609818Y8701510D01*
X32492428Y8716964D01*
X32492425Y8716965D01*
X32492419Y8716965D01*
X32492412Y8716965D01*
X32271321Y8716965D01*
X32204282Y8736650D01*
X32183640Y8753284D01*
X31553565Y9383360D01*
X31606675Y9405358D01*
X31717230Y9479228D01*
X31811250Y9573248D01*
X31885120Y9683803D01*
X31907118Y9736913D01*
X32635068Y9008962D01*
X32635069Y9008962D01*
X32682644Y9070962D01*
X32792426Y9261109D01*
X32792430Y9261119D01*
X32876453Y9463967D01*
X32933282Y9676059D01*
X32961942Y9893743D01*
X32961943Y9893757D01*
X32961943Y10113314D01*
X32961942Y10113328D01*
X32933282Y10331012D01*
X32876453Y10543104D01*
X32792430Y10745952D01*
X32792426Y10745962D01*
X32682646Y10936107D01*
X32635069Y10998110D01*
X32635068Y10998110D01*
X31907118Y10270159D01*
X31885120Y10323267D01*
X31811250Y10433822D01*
X31717230Y10527842D01*
X31606675Y10601712D01*
X31553564Y10623712D01*
X32281516Y11351663D01*
X32219515Y11399239D01*
X32029369Y11509019D01*
X32029359Y11509023D01*
X31826511Y11593046D01*
X31614419Y11649875D01*
X31396735Y11678535D01*
X31177150Y11678535D01*
X30959466Y11649875D01*
X30747374Y11593046D01*
X30544526Y11509023D01*
X30544516Y11509019D01*
X30354375Y11399241D01*
X30354368Y11399236D01*
X30292368Y11351664D01*
X30292368Y11351663D01*
X31020320Y10623711D01*
X30967211Y10601712D01*
X30856656Y10527842D01*
X30762636Y10433822D01*
X30688766Y10323267D01*
X30666767Y10270158D01*
X29938815Y10998110D01*
X29938814Y10998110D01*
X29891242Y10936110D01*
X29891237Y10936103D01*
X29781459Y10745962D01*
X29781455Y10745952D01*
X29697432Y10543104D01*
X29640603Y10331012D01*
X29611943Y10113328D01*
X29611943Y9893743D01*
X29640603Y9676059D01*
X29697432Y9463967D01*
X29781455Y9261119D01*
X29781459Y9261109D01*
X29891239Y9070963D01*
X29938815Y9008962D01*
X30666766Y9736914D01*
X30688766Y9683803D01*
X30762636Y9573248D01*
X30856656Y9479228D01*
X30967211Y9405358D01*
X31020319Y9383360D01*
X30390243Y8753284D01*
X30328920Y8719799D01*
X30302563Y8716965D01*
X30063694Y8716965D01*
X29946304Y8701512D01*
X29946295Y8701509D01*
X29800218Y8641002D01*
X29674776Y8544747D01*
X29578521Y8419305D01*
X29518014Y8273228D01*
X29518013Y8273226D01*
X29502559Y8155836D01*
X29502559Y8155829D01*
X29502558Y8155820D01*
X29502558Y6684004D01*
X29482873Y6616965D01*
X29466239Y6596323D01*
X28779236Y5909319D01*
X28717913Y5875834D01*
X28691555Y5873000D01*
X24062278Y5873000D01*
X23989701Y5861505D01*
X23844547Y5838515D01*
X23634896Y5770397D01*
X23634893Y5770396D01*
X23438474Y5670313D01*
X23260141Y5540748D01*
X23260136Y5540744D01*
X23104256Y5384864D01*
X23104252Y5384859D01*
X22974687Y5206526D01*
X22874604Y5010107D01*
X22874603Y5010104D01*
X22806485Y4800453D01*
X22772000Y4582722D01*
X22772000Y4362279D01*
X22806485Y4144548D01*
X22874603Y3934897D01*
X22874606Y3934890D01*
X22916691Y3852296D01*
X22929588Y3783627D01*
X22903312Y3718886D01*
X22846206Y3678628D01*
X22806207Y3672000D01*
X14304968Y3672000D01*
X14237929Y3691685D01*
X14217287Y3708319D01*
X12540744Y5384862D01*
X12540742Y5384865D01*
X12384865Y5540742D01*
X12384861Y5540745D01*
X8530082Y9395524D01*
X8530062Y9395546D01*
X8510289Y9415319D01*
X8476804Y9476642D01*
X8481788Y9546334D01*
X8523660Y9602267D01*
X8589124Y9626684D01*
X8597970Y9627000D01*
X9412143Y9627000D01*
X9412167Y9626999D01*
X9417278Y9626999D01*
X9637721Y9626999D01*
X9637722Y9626999D01*
X9855451Y9661485D01*
X10065106Y9729605D01*
X10261522Y9829685D01*
X10341786Y9888000D01*
X10439865Y9959258D01*
X10595742Y10115135D01*
X10595743Y10115137D01*
X10602803Y10122197D01*
X10602808Y10122204D01*
X12540742Y12060135D01*
X12670315Y12238478D01*
X12770395Y12434894D01*
X12838515Y12644549D01*
X12873000Y12862278D01*
X12873000Y13082721D01*
X12873000Y13082722D01*
X12873000Y13082727D01*
X12838515Y13300452D01*
X12771902Y13505466D01*
X12770839Y13509234D01*
X12770394Y13510107D01*
X12670315Y13706522D01*
X12638989Y13749639D01*
X12540747Y13884859D01*
X12540743Y13884864D01*
X12384863Y14040744D01*
X12384858Y14040748D01*
X12206525Y14170313D01*
X12206524Y14170314D01*
X12206522Y14170315D01*
X12143596Y14202378D01*
X12010106Y14270396D01*
X12010103Y14270397D01*
X11800452Y14338515D01*
X11691586Y14355758D01*
X11582722Y14373000D01*
X11582721Y14373000D01*
X11362278Y14373000D01*
X11289701Y14361505D01*
X11144547Y14338515D01*
X10934896Y14270397D01*
X10934893Y14270396D01*
X10738474Y14170313D01*
X10560141Y14040748D01*
X10560136Y14040744D01*
X8983713Y12464319D01*
X8922390Y12430834D01*
X8896032Y12428000D01*
X3700761Y12428000D01*
X3662444Y12434069D01*
X3637161Y12442284D01*
X3637156Y12442285D01*
X3411662Y12478000D01*
X3411657Y12478000D01*
X3183343Y12478000D01*
X3183338Y12478000D01*
X2957839Y12442285D01*
X2740696Y12371730D01*
X2537271Y12268079D01*
X2352561Y12133878D01*
X2191122Y11972439D01*
X2056921Y11787729D01*
X1953270Y11584304D01*
X1882715Y11367161D01*
X1847000Y11141663D01*
X1847000Y10913338D01*
X1882715Y10687840D01*
X1953270Y10470697D01*
X2011157Y10357089D01*
X2056921Y10267272D01*
X2191121Y10082563D01*
X2352563Y9921121D01*
X2352569Y9921117D01*
X2439691Y9857817D01*
X2482357Y9802487D01*
X2488335Y9732873D01*
X2455728Y9671079D01*
X2439691Y9657183D01*
X2352569Y9593884D01*
X2352560Y9593877D01*
X2191122Y9432439D01*
X2056921Y9247729D01*
X1953270Y9044304D01*
X1882715Y8827161D01*
X1847000Y8601663D01*
X1847000Y8373338D01*
X1882715Y8147840D01*
X1953270Y7930697D01*
X2056921Y7727272D01*
X2191122Y7542562D01*
X2278316Y7455368D01*
X2311801Y7394045D01*
X2306817Y7324353D01*
X2264945Y7268420D01*
X2233969Y7251506D01*
X2205418Y7240857D01*
X2205406Y7240851D01*
X2090312Y7154691D01*
X2090309Y7154688D01*
X2004149Y7039594D01*
X2004145Y7039587D01*
X1953903Y6904880D01*
X1953901Y6904873D01*
X1947500Y6845345D01*
X1947500Y6197500D01*
X2864488Y6197500D01*
X2831575Y6140493D01*
X2797500Y6013326D01*
X2797500Y5881674D01*
X2831575Y5754507D01*
X2864488Y5697500D01*
X1947500Y5697500D01*
X1947500Y5049656D01*
X1953901Y4990128D01*
X1953903Y4990121D01*
X2004145Y4855414D01*
X2004149Y4855407D01*
X2090309Y4740313D01*
X2090312Y4740310D01*
X2205406Y4654150D01*
X2205413Y4654146D01*
X2340120Y4603904D01*
X2340127Y4603902D01*
X2399655Y4597501D01*
X2399672Y4597500D01*
X3047500Y4597500D01*
X3047500Y5514488D01*
X3104507Y5481575D01*
X3231674Y5447500D01*
X3363326Y5447500D01*
X3490493Y5481575D01*
X3547500Y5514488D01*
X3547500Y4597500D01*
X4195328Y4597500D01*
X4195344Y4597501D01*
X4254872Y4603902D01*
X4254879Y4603904D01*
X4389586Y4654146D01*
X4389593Y4654150D01*
X4504687Y4740310D01*
X4504690Y4740313D01*
X4590850Y4855407D01*
X4590854Y4855414D01*
X4641096Y4990121D01*
X4641098Y4990128D01*
X4647499Y5049656D01*
X4647500Y5049673D01*
X4647500Y5697500D01*
X3730512Y5697500D01*
X3763425Y5754507D01*
X3797500Y5881674D01*
X3797500Y6013326D01*
X3763425Y6140493D01*
X3730512Y6197500D01*
X4647500Y6197500D01*
X4647500Y6845328D01*
X4647499Y6845345D01*
X4641098Y6904873D01*
X4641096Y6904881D01*
X4635582Y6919665D01*
X4630596Y6989356D01*
X4664080Y7050680D01*
X4725403Y7084166D01*
X4751763Y7087000D01*
X6826032Y7087000D01*
X6893071Y7067315D01*
X6913713Y7050681D01*
X10404255Y3560139D01*
X10404258Y3560135D01*
X10560135Y3404258D01*
X10560138Y3404256D01*
X12602132Y1362262D01*
X12602146Y1362247D01*
X12605257Y1359136D01*
X12605258Y1359135D01*
X12761135Y1203258D01*
X12761138Y1203256D01*
X12761142Y1203252D01*
X12922872Y1085750D01*
X12939478Y1073685D01*
X13067875Y1008263D01*
X13135893Y973605D01*
X13135896Y973604D01*
X13240721Y939545D01*
X13345549Y905485D01*
X13563278Y870999D01*
X13563279Y870999D01*
X13788833Y870999D01*
X13788857Y871000D01*
X31572736Y871000D01*
X31572760Y870999D01*
X31577871Y870999D01*
X31798314Y870999D01*
X31798315Y870999D01*
X32016044Y905485D01*
X32225699Y973605D01*
X32422115Y1073685D01*
X32600458Y1203258D01*
X32756335Y1359135D01*
X32756336Y1359137D01*
X32763396Y1366197D01*
X32763402Y1366204D01*
X36546854Y5149657D01*
X36608175Y5183140D01*
X36618342Y5184912D01*
X36705184Y5196344D01*
X36929998Y5256583D01*
X36930003Y5256585D01*
X37145018Y5345646D01*
X37145021Y5345648D01*
X37145027Y5345650D01*
X37346590Y5462023D01*
X37531239Y5603709D01*
X37695814Y5768284D01*
X37752857Y5842624D01*
X37777124Y5874249D01*
X37833552Y5915452D01*
X37903298Y5919607D01*
X37964218Y5885395D01*
X37996971Y5823678D01*
X37999500Y5798763D01*
X37999500Y624500D01*
X37979815Y557461D01*
X37927011Y511706D01*
X37875500Y500500D01*
X624500Y500500D01*
X557461Y520185D01*
X511706Y572989D01*
X500500Y624500D01*
X500500Y15875500D01*
X520185Y15942539D01*
X572989Y15988294D01*
X624500Y15999500D01*
X37875500Y15999500D01*
X37942539Y15979815D01*
G37*
%TD.AperFunction*%
%TD*%
M02*
