M48
; DRILL file {KiCad 9.0.2} date 2025-12-21T22:34:24+0100
; FORMAT={-:-/ absolute / metric / decimal}
; #@! TF.CreationDate,2025-12-21T22:34:24+01:00
; #@! TF.GenerationSoftware,Kicad,Pcbnew,9.0.2
; #@! TF.FileFunction,MixedPlating,1,2
FMAT,2
METRIC
; #@! TA.AperFunction,Plated,PTH,ComponentDrill
T1C1.000
%
G90
G05
T1
X5.1Y87.11
X5.1Y84.57
X5.1Y54.09
X5.1Y51.55
X5.1Y49.01
X5.1Y46.47
X5.1Y15.99
X5.1Y13.45
X12.72Y89.65
X12.72Y87.11
X12.72Y84.57
X12.72Y82.03
X12.72Y79.49
X12.72Y76.95
X12.72Y74.41
X12.72Y71.87
X12.72Y69.33
X12.72Y66.79
X12.72Y64.25
X12.72Y61.71
X12.72Y59.17
X12.72Y56.63
X12.72Y54.09
X12.72Y51.55
X12.72Y49.01
X12.72Y46.47
X12.72Y43.93
X12.72Y41.39
X12.72Y38.85
X12.72Y36.31
X12.72Y33.77
X12.72Y31.23
X12.72Y28.69
X12.72Y26.15
X12.72Y23.61
X12.72Y21.07
X12.72Y18.53
X12.72Y15.99
X12.72Y13.45
X12.72Y10.91
X27.96Y89.65
X27.96Y87.11
X27.96Y84.57
X27.96Y82.03
X27.96Y79.49
X27.96Y76.95
X27.96Y74.41
X27.96Y71.87
X27.96Y69.33
X27.96Y66.79
X27.96Y64.25
X27.96Y61.71
X27.96Y59.17
X27.96Y56.63
X27.96Y54.09
X27.96Y51.55
X27.96Y49.01
X27.96Y46.47
X27.96Y43.93
X27.96Y41.39
X27.96Y38.85
X27.96Y36.31
X27.96Y33.77
X27.96Y31.23
X27.96Y28.69
X27.96Y26.15
X27.96Y23.61
X35.56Y86.98
X35.56Y84.44
X35.58Y61.71
X35.58Y59.17
X35.58Y38.85
X35.58Y36.31
X35.58Y33.77
X35.58Y15.99
X35.58Y13.45
M30
