<?xml version="1.0" standalone="no"?>
<!DOCTYPE svg PUBLIC "-//W3C//DTD SVG 1.1//EN"
  "http://www.w3.org/Graphics/SVG/1.1/DTD/svg11.dtd">
<svg width="212.00027465820312mm" height="211.9996719360351mm" viewBox="-100.55520629882812 -104.99987030029294 212.00027465820312 211.9996719360351" xmlns="http://www.w3.org/2000/svg" version="1.1">
	<title>svgOutput</title>
	<desc>made with tinkercad</desc>
<path d="M 33.099998474121094 -102.52999877929685 L 46.387001037597656 -98.01899719238278 L 58.97200012207031 -91.81199645996092 L 70.63899993896484 -84.01399993896483 L 77.2090835571289 -78.25108337402342 L 81.18800354003906 -74.76100158691405 L 85.12657928466797 -70.26901245117186 L 90.44000244140625 -64.20899963378905 L 98.23500061035156 -52.539001464843736 L 104.44100189208984 -39.95199966430663 L 108.9520034790039 -26.662000656127923 L 109.96765899658203 -21.554000854492184 L 85.02100372314453 -21.554000854492184 L 85.02100372314453 1.1102230246251565e-16 L 85.02100372314453 21.368000030517575 L 110.445068359375 21.368000030517575 L 108.9520034790039 28.877000808715813 L 108.31591033935547 30.750999450683587 L 107.48152923583984 33.20919036865234 L 106.5899429321289 35.83593368530273 L 106.2203140258789 36.9249038696289 L 106.1935806274414 37.003669738769524 L 103.36699676513672 34.68199920654296 L 99.75599670410156 32.730998992919915 L 98.30400085449219 32.25859069824218 L 95.70500183105469 31.413000106811516 L 91.28199768066406 30.750999450683587 L 86.56199645996094 30.756999969482415 L 81.62699890136719 31.42900085449218 L 76.55999755859375 32.756999969482415 L 71.4489974975586 34.719001770019524 L 66.38200378417969 37.278999328613274 L 65.53600311279297 37.812847137451165 L 61.444000244140625 40.395000457763665 L 56.720001220703125 44.01399993896484 L 52.29100036621094 48.07199859619139 L 48.233001708984375 52.50199890136717 L 44.61600112915039 57.22700119018553 L 41.5 62.16600036621092 L 39.79804611206055 65.53600311279295 L 38.939998626708984 67.23500061035155 L 36.979000091552734 72.3470001220703 L 35.6510009765625 77.41400146484374 L 34.979000091552734 82.35099792480467 L 34.9739990234375 87.0709991455078 L 35.6349983215332 91.49600219726561 L 36.952999114990234 95.54799652099608 L 38.90399932861328 99.15899658203122 L 41.22483444213867 101.9865798950195 L 40.554656982421875 102.21411132812497 L 39.26383972167969 102.65234374999997 L 37.39623260498047 103.2864074707031 L 34.9739990234375 104.10876464843747 L 33.099998474121094 104.745002746582 L 26.792999267578125 105.99980163574216 L 26.792999267578125 80.80899810791014 L 0 80.80899810791014 L -16.1200008392334 80.80899810791014 L -16.1200008392334 105.99980163574216 L -22.427000045776367 104.745002746582 L -35.7140007019043 100.23400115966794 L -48.29899978637695 94.02700042724608 L -59.965999603271484 86.22899627685545 L -66.54146575927734 80.46190643310545 L -70.51599884033203 76.97599792480467 L -74.45902252197266 72.47845458984374 L -79.76699829101562 66.4240036010742 L -87.56300354003906 54.754001617431626 L -93.76899719238281 42.166999816894524 L -98.27899932861328 28.877000808715813 L -99.55520629882812 22.46100044250488 L -74.3479995727539 22.46100044250488 L -74.3479995727539 1.1102230246251565e-16 L -74.3479995727539 -20.46100044250488 L -99.51244354248047 -20.46100044250488 L -98.27899932861328 -26.662000656127923 L -93.76899719238281 -39.95199966430663 L -87.56300354003906 -52.539001464843736 L -79.76699829101562 -64.20899963378905 L -74.11566162109375 -70.6551055908203 L -70.51599884033203 -74.76100158691405 L -66.14990234375 -78.59033966064452 L -59.965999603271484 -84.01399993896483 L -48.29899978637695 -91.81199645996092 L -35.7140007019043 -98.01899719238278 L -22.427000045776367 -102.52999877929685 L -17.201000213623047 -103.5697326660156 L -17.201000213623047 -78.59400177001952 L 0 -78.59400177001952 L 25.711999893188477 -78.59400177001952 L 25.711999893188477 -103.99987030029294 L 33.099998474121094 -102.52999877929685 M -64.25199890136719 -76.69200134277342 L -72.2020034790039 -68.74099731445311 L -67.86599731445312 -64.40399932861327 L -59.91600036621094 -72.35500335693358 L -64.25199890136719 -76.69200134277342 M 78.9010009765625 -64.04199981689452 L 83.23699951171875 -68.37899780273436 L 75.28800201416016 -76.33000183105467 L 70.95099639892578 -71.9929962158203 L 78.9010009765625 -64.04199981689452 M -60.28300094604492 74.20200347900389 L -68.23300170898438 66.25099945068358 L -72.56900024414062 70.58799743652342 L -64.62000274658203 78.54000091552733 L -60.28300094604492 74.20200347900389 z" fill="none" stroke="rgb(255,0,0)" stroke-width="0.001mm" />
</svg>