<?xml version="1.0" encoding="utf-8"?>
<!DOCTYPE svg PUBLIC "-//W3C//DTD SVG 20010904//EN" "http://www.w3.org/TR/2001/REC-SVG-20010904/DTD/svg10.dtd">
<svg version="1.0" xmlns="http://www.w3.org/2000/svg" width="963pt" height="959pt" viewBox="0 0 963 959" style="" preserveAspectRatio="xMidYMid meet">
<g fill="#FEFEFEFF">
<path d="M 429.500 2.000 C 429.160 2.550 426.235 3.000 423.000 3.000 C 419.765 3.000 416.873 3.396 416.574 3.879 C 416.276 4.363 411.299 5.082 405.515 5.476 C 399.731 5.870 394.771 6.561 394.493 7.012 C 394.214 7.462 390.608 8.147 386.479 8.534 C 382.350 8.921 378.726 9.634 378.427 10.119 C 378.127 10.603 376.360 11.000 374.500 11.000 C 372.640 11.000 370.872 11.397 370.572 11.883 C 370.272 12.369 367.553 13.075 364.529 13.453 C 361.505 13.831 358.773 14.558 358.457 15.070 C 358.141 15.581 356.853 16.000 355.596 16.000 C 351.972 16.000 349.999 19.027 350.006 24.579 C 350.010 27.285 350.642 30.707 351.412 32.183 C 352.182 33.658 353.105 36.358 353.464 38.183 C 354.144 41.640 355.289 44.662 357.622 49.154 C 358.380 50.614 359.000 52.533 359.000 53.418 C 359.000 54.303 359.450 55.921 360.000 57.014 C 360.550 58.106 361.450 59.894 362.000 60.986 C 362.550 62.079 363.000 63.473 363.000 64.085 C 363.000 65.170 365.246 70.751 367.084 74.236 C 367.588 75.191 368.000 76.473 368.000 77.085 C 368.000 78.143 370.195 83.632 372.016 87.127 C 372.482 88.022 373.183 90.497 373.573 92.627 C 373.964 94.757 374.895 97.388 375.642 98.473 C 376.389 99.557 377.000 101.251 377.000 102.236 C 377.000 103.221 377.450 104.921 378.000 106.014 C 378.550 107.106 379.450 108.894 380.000 109.986 C 380.550 111.079 381.000 112.473 381.000 113.085 C 381.000 114.143 383.195 119.632 385.016 123.127 C 385.482 124.022 386.181 126.497 386.570 128.627 C 386.959 130.757 388.227 133.850 389.389 135.500 C 391.253 138.149 391.500 139.903 391.500 150.500 C 391.500 161.343 391.283 162.804 389.250 165.654 C 388.013 167.389 387.000 169.213 387.000 169.708 C 387.000 171.360 380.548 176.741 376.500 178.465 C 374.300 179.402 371.719 180.580 370.764 181.084 C 368.511 182.272 355.489 182.272 353.236 181.084 C 352.281 180.580 349.925 179.485 348.000 178.651 C 342.832 176.410 338.359 171.538 334.990 164.478 C 333.345 161.033 332.000 157.710 332.000 157.093 C 332.000 156.477 331.550 155.079 331.000 153.986 C 330.450 152.894 329.581 151.155 329.068 150.123 C 328.556 149.091 327.819 146.503 327.430 144.373 C 327.041 142.243 325.924 139.360 324.947 137.966 C 323.971 136.573 322.846 133.648 322.447 131.466 C 322.049 129.285 320.901 126.328 319.896 124.895 C 318.892 123.462 317.770 120.414 317.404 118.123 C 317.037 115.831 316.346 113.714 315.869 113.419 C 315.391 113.124 315.000 112.189 315.000 111.342 C 315.000 109.927 313.043 104.824 310.984 100.873 C 310.518 99.978 309.819 97.503 309.430 95.373 C 309.041 93.243 307.941 90.375 306.986 89.000 C 306.030 87.625 304.942 84.925 304.566 83.000 C 303.859 79.374 302.741 76.396 300.378 71.846 C 299.620 70.386 299.000 68.467 299.000 67.582 C 299.000 65.966 298.674 65.165 295.643 59.346 C 294.739 57.611 294.000 55.275 294.000 54.155 C 294.000 53.035 293.550 51.840 293.000 51.500 C 292.450 51.160 292.000 50.069 292.000 49.076 C 292.000 44.117 285.799 40.553 281.236 42.889 C 280.281 43.378 277.700 44.579 275.500 45.559 C 265.787 49.882 264.335 50.602 261.506 52.496 C 259.859 53.598 255.155 56.201 251.052 58.280 C 246.949 60.359 242.896 62.646 242.046 63.362 C 241.196 64.079 238.925 65.434 237.000 66.375 C 231.577 69.026 224.820 73.010 221.317 75.625 C 219.566 76.931 217.842 78.000 217.485 78.000 C 217.128 78.000 214.915 79.575 212.565 81.500 C 210.216 83.425 207.866 85.000 207.343 85.000 C 206.820 85.000 204.954 86.484 203.196 88.298 C 198.860 92.771 199.051 95.667 204.000 100.500 C 206.200 102.648 208.000 104.839 208.000 105.367 C 208.000 105.896 209.739 108.168 211.863 110.415 C 221.190 120.277 226.000 125.750 226.000 126.500 C 226.000 127.364 233.633 136.201 239.455 142.078 C 241.405 144.046 243.000 146.030 243.000 146.488 C 243.000 146.945 245.363 149.920 248.250 153.098 C 251.138 156.276 255.300 161.168 257.500 163.968 C 262.856 170.786 266.511 175.080 274.489 183.931 C 278.173 188.017 281.600 192.292 282.106 193.431 C 282.611 194.569 283.937 197.011 285.052 198.857 C 286.686 201.564 287.085 203.984 287.112 211.357 C 287.143 219.641 286.853 221.081 284.026 226.688 C 280.876 232.935 275.175 239.000 272.452 239.000 C 271.638 239.000 270.079 239.450 268.986 240.000 C 267.894 240.550 266.106 241.450 265.014 242.000 C 262.523 243.254 252.557 243.309 250.236 242.082 C 249.281 241.577 246.475 240.273 244.000 239.185 C 241.525 238.096 237.181 234.797 234.346 231.853 C 226.112 223.301 220.000 216.353 220.000 215.545 C 220.000 215.134 217.013 211.581 213.362 207.649 C 209.712 203.717 205.042 198.250 202.985 195.500 C 200.928 192.750 198.065 189.409 196.623 188.076 C 195.180 186.742 194.000 185.133 194.000 184.500 C 194.000 183.867 192.824 182.258 191.386 180.924 C 189.948 179.591 186.041 175.125 182.703 171.000 C 179.364 166.875 174.353 160.926 171.566 157.779 C 162.089 147.078 159.974 144.503 158.040 141.314 C 155.703 137.462 153.192 136.000 148.912 136.000 C 146.255 136.000 144.664 137.093 139.818 142.250 C 136.588 145.688 129.907 152.803 124.972 158.062 C 120.038 163.321 116.000 168.159 116.000 168.812 C 116.000 169.465 115.595 170.000 115.101 170.000 C 114.606 170.000 111.568 173.401 108.351 177.559 C 105.133 181.716 100.363 187.745 97.750 190.955 C 95.138 194.166 93.000 197.211 93.000 197.722 C 93.000 198.233 91.875 199.708 90.500 201.000 C 89.125 202.292 88.000 203.890 88.000 204.552 C 88.000 205.214 87.325 206.315 86.500 207.000 C 83.794 209.246 84.759 212.638 89.180 216.422 C 91.479 218.390 93.759 220.000 94.247 220.000 C 94.734 220.000 96.608 221.125 98.411 222.500 C 100.214 223.875 102.014 225.000 102.411 225.000 C 102.808 225.000 104.608 226.125 106.411 227.500 C 108.214 228.875 110.321 230.004 111.094 230.010 C 111.867 230.015 115.331 231.815 118.790 234.010 C 122.250 236.204 125.317 238.000 125.607 238.000 C 125.897 238.000 127.608 239.125 129.411 240.500 C 131.214 241.875 133.399 243.000 134.268 243.000 C 135.136 243.000 137.184 244.125 138.818 245.500 C 140.452 246.875 142.226 248.000 142.759 248.000 C 143.293 248.000 144.967 248.973 146.478 250.161 C 149.285 252.369 155.965 256.134 164.000 260.038 C 166.475 261.240 169.230 262.867 170.123 263.652 C 171.828 265.152 179.051 269.160 187.534 273.312 C 190.303 274.667 193.171 276.501 193.907 277.388 C 194.643 278.275 195.605 279.000 196.046 279.000 C 198.671 279.000 208.000 291.231 208.000 294.673 C 208.000 295.888 208.450 297.160 209.000 297.500 C 210.304 298.306 210.304 311.694 209.000 312.500 C 208.450 312.840 208.000 314.112 208.000 315.327 C 208.000 319.194 202.043 326.667 194.900 331.760 C 193.929 332.453 190.966 333.276 188.317 333.589 C 185.668 333.903 182.460 334.664 181.188 335.281 C 179.453 336.124 178.397 336.104 176.952 335.202 C 175.893 334.541 173.775 334.000 172.246 334.000 C 170.716 334.000 167.809 332.875 165.785 331.500 C 163.762 330.125 161.631 329.000 161.049 329.000 C 159.740 329.000 154.483 326.201 150.496 323.381 C 148.848 322.216 146.547 320.967 145.382 320.606 C 144.217 320.244 142.460 319.060 141.477 317.974 C 140.494 316.889 138.938 316.000 138.019 316.000 C 137.100 316.000 135.292 314.875 134.000 313.500 C 132.708 312.125 131.053 311.000 130.322 311.000 C 128.735 311.000 123.702 308.364 119.341 305.250 C 117.609 304.013 115.552 303.000 114.770 303.000 C 113.988 303.000 112.292 301.875 111.000 300.500 C 109.708 299.125 107.991 298.000 107.184 298.000 C 106.377 298.000 102.866 296.200 99.383 294.000 C 95.899 291.800 92.743 290.000 92.369 290.000 C 91.995 290.000 90.214 288.875 88.411 287.500 C 86.608 286.125 84.463 285.000 83.643 285.000 C 82.824 285.000 80.881 283.988 79.327 282.750 C 77.772 281.513 74.700 279.622 72.500 278.550 C 70.300 277.477 67.825 276.060 67.000 275.401 C 60.330 270.074 51.754 268.404 48.655 271.829 C 47.745 272.835 47.000 274.305 47.000 275.097 C 47.000 275.888 45.875 278.191 44.500 280.215 C 43.125 282.238 41.998 284.480 41.996 285.197 C 41.994 285.914 40.869 288.714 39.496 291.419 C 38.123 294.125 37.000 297.077 37.000 297.978 C 37.000 298.880 36.339 300.491 35.532 301.559 C 34.724 302.626 34.049 304.331 34.032 305.346 C 34.014 306.361 33.380 308.386 32.622 309.846 C 30.271 314.374 29.143 317.367 28.431 320.967 C 28.054 322.874 27.405 325.124 26.990 325.967 C 25.158 329.679 24.069 332.740 23.431 335.967 C 22.781 339.255 22.425 340.187 19.965 345.042 C 19.396 346.165 18.655 350.668 18.317 355.049 C 17.596 364.397 18.963 367.000 24.596 367.000 C 26.403 367.000 28.160 367.450 28.500 368.000 C 28.840 368.550 31.090 369.000 33.500 369.000 C 35.910 369.000 38.119 369.384 38.410 369.854 C 38.700 370.323 42.661 371.018 47.212 371.397 C 51.764 371.777 55.918 372.518 56.444 373.044 C 56.970 373.570 59.308 374.000 61.641 374.000 C 63.974 374.000 66.119 374.384 66.410 374.854 C 66.700 375.323 70.661 376.018 75.212 376.397 C 79.764 376.777 83.918 377.518 84.444 378.044 C 84.970 378.570 87.308 379.000 89.641 379.000 C 91.974 379.000 94.119 379.384 94.410 379.854 C 94.700 380.323 98.639 381.016 103.164 381.393 C 107.689 381.771 111.865 382.458 112.445 382.921 C 113.025 383.384 117.436 384.081 122.246 384.471 C 127.057 384.860 131.246 385.589 131.555 386.089 C 131.865 386.590 133.865 387.000 136.000 387.000 C 138.135 387.000 140.121 387.387 140.414 387.860 C 140.706 388.334 142.954 388.996 145.410 389.333 C 150.697 390.057 160.719 396.131 161.944 399.353 C 162.410 400.579 163.518 402.185 164.405 402.921 C 165.292 403.657 166.298 406.011 166.640 408.152 C 166.983 410.293 167.654 412.286 168.131 412.581 C 169.339 413.327 169.226 422.743 168.000 423.500 C 167.450 423.840 167.000 425.443 167.000 427.063 C 167.000 430.997 164.201 436.002 159.542 440.395 C 157.440 442.378 155.515 444.000 155.264 444.000 C 155.014 444.000 153.389 445.013 151.654 446.250 C 148.765 448.311 147.465 448.490 136.175 448.375 C 128.541 448.298 123.422 447.822 122.725 447.125 C 122.106 446.506 119.692 446.000 117.359 446.000 C 115.026 446.000 112.865 445.590 112.555 445.089 C 112.246 444.589 108.163 443.860 103.481 443.470 C 98.800 443.080 94.725 442.365 94.426 441.880 C 94.127 441.396 91.910 441.000 89.500 441.000 C 87.090 441.000 84.869 440.597 84.565 440.105 C 84.260 439.612 80.314 438.882 75.796 438.482 C 71.277 438.082 66.887 437.381 66.040 436.923 C 65.193 436.466 61.016 435.808 56.757 435.461 C 52.498 435.114 48.759 434.419 48.448 433.915 C 48.137 433.412 45.910 433.000 43.500 433.000 C 41.090 433.000 38.881 432.616 38.590 432.146 C 38.300 431.677 34.339 430.982 29.788 430.603 C 25.236 430.223 21.082 429.482 20.556 428.956 C 20.030 428.430 16.610 428.000 12.955 428.000 C 3.775 428.000 3.000 428.994 3.000 440.770 C 3.000 445.781 2.550 450.160 2.000 450.500 C 0.639 451.341 0.639 506.659 2.000 507.500 C 2.562 507.847 3.000 512.625 3.000 518.404 C 3.000 527.099 3.283 528.946 4.829 530.345 C 6.846 532.170 11.530 532.570 12.500 531.000 C 12.840 530.450 14.865 530.000 17.000 530.000 C 19.135 530.000 21.139 529.583 21.454 529.074 C 21.769 528.565 26.080 527.831 31.035 527.443 C 35.990 527.056 40.285 526.347 40.581 525.869 C 40.876 525.391 42.865 525.000 45.000 525.000 C 47.135 525.000 49.135 524.590 49.445 524.089 C 49.754 523.589 53.837 522.860 58.519 522.470 C 63.200 522.080 67.275 521.365 67.574 520.880 C 67.873 520.396 70.090 520.000 72.500 520.000 C 74.910 520.000 77.135 519.590 77.445 519.089 C 77.754 518.589 81.837 517.860 86.519 517.470 C 91.200 517.080 95.275 516.365 95.574 515.880 C 95.873 515.396 98.090 515.000 100.500 515.000 C 102.910 515.000 105.124 514.609 105.419 514.131 C 105.714 513.653 109.678 512.938 114.228 512.543 C 118.778 512.147 123.048 511.370 123.718 510.816 C 125.576 509.279 146.608 509.222 148.144 510.750 C 148.835 511.438 150.434 512.000 151.697 512.000 C 154.008 512.000 162.000 518.378 162.000 520.222 C 162.000 520.766 163.125 522.548 164.500 524.182 C 165.893 525.838 167.000 528.421 167.000 530.018 C 167.000 531.593 167.450 533.160 168.000 533.500 C 169.303 534.305 169.303 544.695 168.000 545.500 C 167.450 545.840 167.000 547.407 167.000 548.982 C 167.000 550.579 165.893 553.162 164.500 554.818 C 163.125 556.452 162.000 558.217 162.000 558.739 C 162.000 560.412 156.505 564.695 152.000 566.534 C 151.175 566.870 149.719 567.563 148.764 568.073 C 147.809 568.583 145.986 569.000 144.714 569.000 C 143.441 569.000 141.970 569.430 141.444 569.956 C 140.918 570.482 136.764 571.223 132.212 571.603 C 127.661 571.982 123.700 572.677 123.410 573.146 C 123.119 573.616 120.974 574.000 118.641 574.000 C 116.308 574.000 113.970 574.430 113.444 574.956 C 112.918 575.482 108.764 576.223 104.212 576.603 C 99.661 576.982 95.700 577.677 95.410 578.146 C 95.119 578.616 92.974 579.000 90.641 579.000 C 88.308 579.000 85.970 579.430 85.444 579.956 C 84.918 580.482 80.764 581.223 76.212 581.603 C 71.661 581.982 67.700 582.677 67.410 583.146 C 67.119 583.616 65.135 584.000 63.000 584.000 C 60.865 584.000 58.865 584.410 58.555 584.911 C 58.246 585.411 54.057 586.140 49.246 586.529 C 44.436 586.919 40.050 587.589 39.500 588.019 C 38.950 588.449 34.900 589.122 30.500 589.514 C 20.868 590.374 16.000 593.220 16.000 597.992 C 16.000 599.581 16.398 601.128 16.885 601.429 C 17.371 601.729 18.084 604.072 18.468 606.635 C 18.852 609.197 19.579 612.128 20.083 613.147 C 20.587 614.166 21.393 615.802 21.873 616.783 C 22.353 617.763 23.054 620.126 23.431 622.033 C 24.069 625.260 25.158 628.321 26.990 632.033 C 27.405 632.876 28.054 635.126 28.431 637.033 C 29.143 640.633 30.271 643.626 32.622 648.154 C 33.380 649.614 34.000 651.725 34.000 652.845 C 34.000 653.965 34.450 655.160 35.000 655.500 C 35.550 655.840 36.000 656.811 36.000 657.658 C 36.000 659.231 38.064 664.402 40.590 669.154 C 41.365 670.614 42.000 672.326 42.000 672.957 C 42.000 673.589 43.125 675.762 44.500 677.785 C 45.875 679.809 47.000 682.415 47.000 683.577 C 47.000 684.739 47.823 686.435 48.829 687.345 C 50.824 689.151 57.508 689.605 58.499 688.002 C 58.838 687.453 61.556 685.850 64.538 684.439 C 67.520 683.028 70.236 681.427 70.574 680.880 C 70.912 680.334 73.508 678.758 76.344 677.378 C 82.458 674.403 82.692 674.268 95.626 666.250 C 101.171 662.813 106.294 660.000 107.010 660.000 C 107.726 660.000 109.786 658.875 111.589 657.500 C 113.392 656.125 115.117 655.000 115.423 655.000 C 115.729 655.000 119.120 652.987 122.958 650.527 C 126.796 648.067 131.057 645.773 132.427 645.429 C 133.797 645.085 135.442 644.173 136.081 643.402 C 136.721 642.631 137.635 642.000 138.112 642.000 C 138.589 642.000 142.139 639.975 146.000 637.500 C 149.861 635.025 153.271 633.000 153.577 633.000 C 153.883 633.000 155.566 631.927 157.317 630.616 C 159.068 629.305 161.625 627.896 163.000 627.485 C 164.375 627.074 166.694 625.897 168.154 624.869 C 170.184 623.440 172.600 623.000 178.418 623.000 C 182.603 623.000 186.809 623.409 187.764 623.909 C 188.719 624.410 190.850 625.428 192.500 626.172 C 196.773 628.099 202.973 632.346 202.988 633.356 C 202.994 633.826 204.125 635.548 205.500 637.182 C 206.875 638.816 208.000 641.217 208.000 642.518 C 208.000 643.818 208.450 645.160 209.000 645.500 C 210.304 646.306 210.304 659.694 209.000 660.500 C 208.450 660.840 207.993 662.104 207.985 663.309 C 207.977 664.514 207.415 666.428 206.735 667.562 C 202.641 674.394 200.659 677.000 199.556 677.000 C 198.871 677.000 197.506 677.889 196.523 678.974 C 195.540 680.060 193.783 681.238 192.618 681.591 C 191.453 681.943 189.150 683.202 187.500 684.386 C 185.850 685.571 183.150 687.184 181.500 687.970 C 179.850 688.756 177.150 690.353 175.500 691.520 C 173.850 692.687 170.475 694.668 168.000 695.923 C 159.510 700.227 155.470 702.503 152.333 704.750 C 150.605 705.988 148.912 707.000 148.571 707.000 C 148.230 707.000 145.101 708.800 141.617 711.000 C 138.134 713.200 134.623 715.000 133.816 715.000 C 133.009 715.000 131.292 716.125 130.000 717.500 C 128.708 718.875 127.047 720.000 126.308 720.000 C 125.570 720.000 120.306 722.925 114.611 726.500 C 108.916 730.075 103.579 733.000 102.751 733.000 C 101.923 733.000 100.679 733.682 99.987 734.515 C 99.296 735.349 96.428 737.184 93.615 738.594 C 86.928 741.946 85.000 743.776 85.000 746.771 C 85.000 749.587 91.091 759.085 99.896 770.000 C 103.224 774.125 105.959 777.988 105.973 778.585 C 105.988 779.181 107.238 780.871 108.750 782.341 C 110.263 783.810 115.325 789.327 120.000 794.601 C 124.675 799.875 132.449 808.197 137.275 813.095 C 144.914 820.847 146.492 822.000 149.462 822.000 C 152.436 822.000 153.682 821.085 159.187 814.858 C 162.659 810.929 166.738 806.580 168.250 805.192 C 169.763 803.805 171.000 802.248 171.000 801.732 C 171.000 800.856 174.533 796.576 184.750 785.076 C 187.088 782.445 189.000 780.036 189.000 779.723 C 189.000 779.410 190.238 777.831 191.750 776.214 C 197.418 770.155 205.000 761.131 205.000 760.444 C 205.000 760.052 208.825 755.565 213.500 750.472 C 218.175 745.379 222.000 740.806 222.000 740.309 C 222.000 739.812 223.800 737.648 226.000 735.500 C 228.200 733.352 230.000 731.270 230.000 730.874 C 230.000 729.865 235.435 724.541 239.267 721.796 C 243.825 718.530 246.949 717.000 249.055 717.000 C 250.060 717.000 251.160 716.550 251.500 716.000 C 252.264 714.764 261.393 714.677 263.764 715.883 C 264.719 716.369 266.850 717.321 268.500 717.999 C 270.150 718.677 272.175 719.631 273.000 720.118 C 273.825 720.606 275.400 721.402 276.500 721.888 C 279.229 723.092 281.127 725.522 284.400 732.000 C 286.853 736.855 287.173 738.574 287.129 746.655 C 287.083 754.946 286.784 756.361 283.952 761.655 C 282.232 764.870 278.839 769.540 276.412 772.034 C 273.986 774.528 272.000 776.885 272.000 777.272 C 272.000 777.659 269.750 780.099 267.000 782.694 C 264.250 785.290 262.000 787.864 262.000 788.415 C 262.000 788.965 260.375 791.080 258.389 793.113 C 256.403 795.147 254.266 797.695 253.639 798.776 C 251.961 801.671 234.052 822.685 224.046 833.500 C 222.520 835.150 220.824 837.342 220.278 838.371 C 219.280 840.252 216.638 843.411 207.630 853.495 C 201.320 860.560 200.345 865.880 204.465 870.776 C 205.938 872.527 208.212 874.531 209.517 875.230 C 210.822 875.928 217.110 879.763 223.489 883.750 C 229.869 887.738 235.435 891.000 235.857 891.000 C 236.280 891.000 237.919 892.350 239.500 894.000 C 241.081 895.650 243.077 897.007 243.937 897.015 C 244.797 897.023 246.625 897.655 248.000 898.419 C 249.375 899.183 253.875 901.494 258.000 903.555 C 262.125 905.615 266.694 908.133 268.154 909.151 C 269.614 910.168 271.422 911.000 272.172 911.000 C 272.922 911.000 275.191 912.125 277.215 913.500 C 282.217 916.899 287.189 916.846 289.927 913.365 C 291.067 911.916 292.000 909.918 292.000 908.924 C 292.000 907.931 292.415 906.861 292.923 906.548 C 293.431 906.234 294.163 904.534 294.550 902.771 C 295.216 899.742 295.573 898.835 298.000 894.014 C 298.550 892.921 299.000 891.303 299.000 890.418 C 299.000 889.533 299.739 887.389 300.643 885.654 C 303.674 879.835 304.000 879.034 304.000 877.418 C 304.000 876.533 304.620 874.614 305.378 873.154 C 307.741 868.604 308.859 865.626 309.566 862.000 C 309.942 860.075 311.038 857.375 312.002 856.000 C 312.967 854.625 314.075 851.590 314.465 849.255 C 314.855 846.921 315.585 844.757 316.087 844.446 C 316.589 844.136 317.002 842.896 317.004 841.691 C 317.006 840.486 318.075 837.398 319.378 834.830 C 320.681 832.261 322.056 828.515 322.433 826.505 C 322.810 824.494 323.992 821.294 325.059 819.394 C 326.127 817.494 327.002 815.165 327.004 814.220 C 327.006 813.274 328.075 810.398 329.378 807.830 C 330.681 805.261 332.068 801.452 332.460 799.364 C 332.851 797.276 334.033 794.358 335.086 792.879 C 336.139 791.401 337.000 789.790 337.000 789.299 C 337.000 788.009 343.958 781.761 347.654 779.732 C 349.389 778.779 351.725 778.000 352.845 778.000 C 353.965 778.000 355.160 777.550 355.500 777.000 C 356.257 775.775 367.671 775.659 368.419 776.869 C 368.714 777.346 370.707 778.017 372.848 778.360 C 374.989 778.702 377.343 779.708 378.079 780.595 C 378.815 781.482 380.421 782.590 381.647 783.056 C 382.874 783.522 385.592 786.513 387.688 789.702 L 391.500 795.500 391.500 807.094 C 391.500 818.143 391.204 819.708 387.883 826.236 C 387.397 827.191 387.000 828.473 387.000 829.085 C 387.000 830.170 384.754 835.751 382.916 839.236 C 382.412 840.191 382.000 841.697 382.000 842.582 C 382.000 843.467 381.380 845.386 380.622 846.846 C 378.289 851.338 377.144 854.360 376.464 857.817 C 376.105 859.642 375.182 862.342 374.412 863.817 C 373.642 865.293 373.010 867.069 373.006 867.764 C 373.003 868.459 372.550 869.921 372.000 871.014 C 371.450 872.106 370.550 873.894 370.000 874.986 C 369.450 876.079 369.000 877.697 369.000 878.582 C 369.000 879.467 368.261 881.611 367.357 883.346 C 364.326 889.165 364.000 889.966 364.000 891.582 C 364.000 892.467 363.380 894.386 362.622 895.846 C 360.259 900.396 359.141 903.374 358.434 907.000 C 358.058 908.925 356.962 911.625 355.998 913.000 C 355.033 914.375 353.925 917.410 353.535 919.745 C 353.145 922.079 352.415 924.243 351.913 924.554 C 351.411 924.864 351.000 926.130 351.000 927.368 C 351.000 928.605 350.339 930.491 349.532 931.559 C 346.322 935.802 348.838 942.000 353.770 942.000 C 354.931 942.000 356.127 942.397 356.427 942.882 C 356.727 943.367 359.899 944.077 363.476 944.460 C 367.052 944.844 370.213 945.536 370.500 946.000 C 370.787 946.464 373.948 947.156 377.524 947.540 C 381.101 947.923 384.273 948.633 384.573 949.118 C 384.873 949.603 386.865 950.000 389.000 950.000 C 391.135 950.000 393.127 950.396 393.426 950.880 C 393.725 951.365 397.800 952.080 402.481 952.470 C 407.163 952.860 411.246 953.589 411.555 954.089 C 411.865 954.590 414.701 955.000 417.859 955.000 C 421.017 955.000 424.027 955.394 424.550 955.876 C 425.072 956.357 430.706 957.046 437.068 957.406 C 447.500 957.996 448.799 957.880 450.291 956.231 C 451.792 954.572 451.972 947.970 452.223 885.451 C 452.499 816.871 452.512 816.478 454.668 812.500 C 457.467 807.337 462.459 802.682 467.500 800.535 C 469.700 799.598 472.281 798.420 473.236 797.916 C 475.419 796.765 489.700 796.705 490.404 797.844 C 490.691 798.309 493.885 800.146 497.502 801.926 C 503.807 805.030 508.939 810.506 509.032 814.230 C 509.049 814.929 509.724 816.374 510.532 817.441 C 511.789 819.103 512.000 829.099 512.000 887.036 C 512.000 950.640 512.107 954.786 513.781 956.301 C 515.282 957.660 517.247 957.817 526.316 957.304 C 532.231 956.969 537.306 956.313 537.594 955.847 C 537.882 955.381 541.151 955.000 544.859 955.000 C 548.567 955.000 552.030 954.570 552.556 954.044 C 553.082 953.518 557.236 952.777 561.788 952.397 C 566.339 952.018 570.300 951.323 570.590 950.854 C 570.881 950.384 572.640 950.000 574.500 950.000 C 576.360 950.000 578.124 949.609 578.419 949.131 C 578.714 948.654 582.105 947.952 585.955 947.573 C 589.804 947.194 593.189 946.504 593.475 946.040 C 593.762 945.576 596.698 944.883 600.000 944.500 C 603.302 944.117 606.254 943.397 606.561 942.902 C 606.867 942.406 607.922 942.000 608.904 942.000 C 611.730 942.000 614.000 938.691 614.000 934.572 C 614.000 931.240 612.666 927.021 609.984 921.873 C 609.518 920.978 608.819 918.503 608.430 916.373 C 608.041 914.243 606.941 911.375 605.986 910.000 C 605.030 908.625 603.942 905.925 603.566 904.000 C 602.859 900.374 601.741 897.396 599.378 892.846 C 598.620 891.386 598.000 889.467 598.000 888.582 C 598.000 887.023 597.597 885.984 595.156 881.264 C 594.520 880.034 593.997 878.459 593.994 877.764 C 593.990 877.069 593.358 875.293 592.588 873.817 C 591.818 872.342 590.895 869.642 590.536 867.817 C 589.881 864.486 589.558 863.586 586.602 856.849 C 585.721 854.841 585.000 852.697 585.000 852.085 C 585.000 851.473 584.480 849.966 583.844 848.736 C 581.684 844.558 581.255 843.438 580.500 840.000 C 580.085 838.111 579.391 835.876 578.957 835.033 C 576.893 831.022 575.000 826.045 575.000 824.629 C 575.000 823.767 574.007 821.360 572.794 819.280 C 569.662 813.916 569.585 799.810 572.663 795.443 C 573.804 793.824 575.033 791.600 575.395 790.500 C 577.095 785.328 586.638 778.000 591.673 778.000 C 593.438 778.000 595.160 777.550 595.500 777.000 C 596.263 775.765 605.675 775.666 606.429 776.885 C 606.729 777.371 608.954 778.066 611.373 778.429 C 613.791 778.791 616.566 779.968 617.540 781.044 C 618.513 782.120 619.803 783.014 620.405 783.030 C 622.029 783.075 630.000 793.976 630.000 796.152 C 630.000 797.183 630.412 798.809 630.916 799.764 C 632.754 803.249 635.000 808.830 635.000 809.915 C 635.000 810.527 635.450 811.921 636.000 813.014 C 638.435 817.850 638.787 818.755 639.500 822.000 C 639.915 823.889 640.609 826.124 641.043 826.967 C 643.127 831.017 645.000 835.962 645.000 837.415 C 645.000 838.302 645.412 839.809 645.916 840.764 C 647.966 844.650 650.000 849.891 650.000 851.287 C 650.000 852.103 650.672 854.060 651.494 855.636 C 652.315 857.211 652.990 859.274 652.994 860.220 C 652.997 861.165 653.873 863.494 654.941 865.394 C 656.008 867.294 657.190 870.494 657.567 872.505 C 657.944 874.515 659.319 878.261 660.622 880.830 C 661.925 883.398 662.994 886.294 662.996 887.264 C 662.998 888.234 663.412 889.809 663.916 890.764 C 665.754 894.249 668.000 899.830 668.000 900.915 C 668.000 901.527 668.450 902.921 669.000 904.014 C 669.550 905.106 670.450 906.894 671.000 907.986 C 671.550 909.079 672.000 910.584 672.000 911.331 C 672.000 913.565 675.454 916.000 678.623 916.000 C 681.761 916.000 705.423 904.576 711.000 900.368 C 711.825 899.746 713.625 898.906 715.000 898.502 C 716.375 898.098 718.932 896.695 720.683 895.384 C 722.434 894.073 724.192 893.000 724.589 893.000 C 724.986 893.000 726.704 891.961 728.406 890.692 C 730.108 889.423 733.075 887.603 735.000 886.648 C 736.925 885.692 739.850 884.036 741.500 882.966 C 743.150 881.897 745.175 880.710 746.000 880.328 C 747.492 879.637 752.110 876.089 758.598 870.646 C 761.194 868.469 762.000 867.017 762.000 864.519 C 762.000 862.718 761.325 860.685 760.500 860.000 C 759.675 859.315 759.000 858.288 759.000 857.718 C 759.000 857.148 756.638 854.117 753.750 850.983 C 746.565 843.186 741.000 836.715 741.000 836.157 C 741.000 835.902 738.863 833.312 736.250 830.401 C 733.638 827.490 729.700 822.820 727.500 820.024 C 722.150 813.224 718.186 808.526 712.628 802.396 C 710.082 799.589 708.000 796.954 708.000 796.541 C 708.000 796.128 704.063 791.337 699.250 785.896 C 681.628 765.970 677.067 759.487 677.026 754.309 C 677.012 752.554 676.550 750.840 676.000 750.500 C 674.765 749.737 674.667 741.324 675.885 740.571 C 676.371 740.271 677.070 738.016 677.439 735.560 C 678.599 727.825 690.375 717.000 697.629 717.000 C 698.868 717.000 700.160 716.550 700.500 716.000 C 700.840 715.450 703.090 715.000 705.500 715.000 C 707.910 715.000 710.160 715.450 710.500 716.000 C 710.840 716.550 711.998 717.000 713.073 717.000 C 714.148 717.000 715.809 717.384 716.764 717.853 C 717.719 718.322 720.150 719.498 722.168 720.466 C 725.570 722.099 736.043 733.122 745.500 745.025 C 751.065 752.029 754.984 756.661 760.372 762.604 C 762.918 765.411 765.000 768.070 765.000 768.513 C 765.000 768.957 767.363 771.883 770.250 775.017 C 777.992 783.418 783.000 789.298 783.000 789.986 C 783.000 790.321 784.800 792.352 787.000 794.500 C 789.200 796.648 791.000 798.812 791.000 799.309 C 791.000 799.806 794.825 804.379 799.500 809.472 C 804.175 814.565 808.000 819.172 808.000 819.711 C 808.000 821.390 811.554 824.000 813.839 824.000 C 815.275 824.000 818.898 821.007 824.432 815.250 C 839.257 799.826 846.000 792.364 846.000 791.382 C 846.000 790.856 848.250 788.209 851.000 785.500 C 853.750 782.791 856.000 780.255 856.000 779.865 C 856.000 779.474 857.238 777.832 858.750 776.217 C 861.385 773.402 863.763 770.324 867.000 765.535 C 869.074 762.468 874.465 755.042 876.942 751.842 C 878.074 750.380 879.000 748.087 879.000 746.747 C 879.000 744.317 876.284 741.000 874.294 741.000 C 873.717 741.000 872.685 740.325 872.000 739.500 C 871.315 738.675 870.077 738.000 869.249 738.000 C 868.421 738.000 863.084 735.075 857.389 731.500 C 851.694 727.925 846.732 725.000 846.362 725.000 C 845.992 725.000 844.214 723.875 842.411 722.500 C 840.608 721.125 838.590 720.000 837.925 720.000 C 837.260 720.000 833.866 718.200 830.383 716.000 C 826.899 713.800 823.643 712.000 823.147 712.000 C 822.651 712.000 821.746 711.399 821.136 710.664 C 820.527 709.930 817.884 708.255 815.264 706.943 C 812.644 705.632 809.150 703.585 807.500 702.395 C 805.850 701.205 803.375 699.890 802.000 699.472 C 800.625 699.054 798.150 697.742 796.500 696.555 C 794.850 695.369 792.150 693.756 790.500 692.970 C 788.850 692.184 786.108 690.519 784.406 689.270 C 782.704 688.022 780.986 687.000 780.589 687.000 C 780.192 687.000 778.434 685.927 776.683 684.616 C 774.932 683.305 772.547 681.943 771.382 681.591 C 770.217 681.238 768.460 680.060 767.477 678.974 C 766.494 677.889 765.123 677.000 764.429 677.000 C 763.082 677.000 758.627 671.531 755.750 666.346 C 754.415 663.939 754.000 660.853 754.000 653.328 C 754.000 644.454 754.251 643.095 756.500 639.785 C 757.875 637.762 759.000 635.685 759.000 635.169 C 759.000 633.617 766.876 627.002 768.753 626.978 C 769.714 626.966 771.625 626.076 773.000 625.000 C 774.985 623.448 777.101 623.040 783.264 623.022 C 787.534 623.010 791.809 623.412 792.764 623.916 C 793.719 624.420 796.300 625.601 798.500 626.540 C 800.700 627.480 803.400 629.041 804.500 630.009 C 805.600 630.978 807.625 632.106 809.000 632.516 C 810.375 632.927 812.844 634.216 814.486 635.381 C 816.128 636.547 818.378 637.983 819.486 638.573 C 823.357 640.634 826.512 642.509 828.000 643.632 C 828.825 644.254 830.625 645.094 832.000 645.498 C 833.375 645.902 835.932 647.305 837.683 648.616 C 839.434 649.927 841.117 651.000 841.423 651.000 C 841.729 651.000 845.139 653.025 849.000 655.500 C 852.861 657.975 856.411 660.000 856.888 660.000 C 857.365 660.000 858.279 660.631 858.919 661.402 C 859.558 662.173 861.180 663.079 862.521 663.416 C 864.494 663.911 875.308 670.270 888.569 678.732 C 889.631 679.410 892.509 680.928 894.964 682.105 C 897.419 683.282 901.164 685.341 903.288 686.682 C 909.056 690.323 911.744 689.554 916.157 683.000 C 918.194 679.975 920.150 676.272 920.505 674.772 C 920.859 673.272 922.239 669.897 923.570 667.272 C 924.902 664.647 925.994 661.894 925.996 661.154 C 925.998 660.414 926.838 658.614 927.861 657.154 C 928.885 655.694 930.027 652.832 930.399 650.792 C 930.771 648.753 931.730 645.828 932.531 644.292 C 933.332 642.757 933.990 640.931 933.994 640.236 C 933.997 639.541 934.397 638.191 934.883 637.236 C 936.763 633.542 937.910 630.365 938.569 627.033 C 938.946 625.126 939.595 622.876 940.010 622.033 C 942.025 617.950 942.940 615.146 943.530 611.255 C 943.884 608.921 944.585 606.757 945.087 606.446 C 945.589 606.136 946.000 603.518 946.000 600.628 C 946.000 596.190 945.573 594.973 943.250 592.788 C 940.990 590.662 939.165 590.085 933.000 589.546 C 928.875 589.185 924.600 588.493 923.500 588.008 C 922.400 587.524 918.016 586.835 913.757 586.479 C 909.498 586.122 905.759 585.419 905.448 584.915 C 905.137 584.412 902.910 584.000 900.500 584.000 C 898.090 584.000 895.873 583.604 895.574 583.120 C 895.275 582.635 891.200 581.920 886.519 581.530 C 881.837 581.140 877.754 580.411 877.445 579.911 C 877.135 579.410 874.910 579.000 872.500 579.000 C 870.090 579.000 867.870 578.598 867.566 578.107 C 867.262 577.615 862.958 576.892 858.000 576.500 C 853.042 576.108 848.738 575.385 848.434 574.893 C 848.130 574.402 846.360 574.000 844.500 574.000 C 842.640 574.000 840.873 573.604 840.574 573.120 C 840.275 572.636 835.749 571.919 830.517 571.527 C 825.284 571.135 820.751 570.406 820.442 569.907 C 820.134 569.408 818.807 569.000 817.494 569.000 C 814.294 569.000 807.221 565.120 803.397 561.267 C 800.147 557.992 797.000 552.281 797.000 549.658 C 797.000 548.811 796.550 547.840 796.000 547.500 C 795.450 547.160 795.000 543.605 795.000 539.601 C 795.000 533.497 795.489 531.340 798.027 526.262 C 801.488 519.336 808.818 512.000 812.278 512.000 C 813.555 512.000 815.165 511.438 815.856 510.750 C 817.351 509.263 837.500 509.349 839.340 510.851 C 839.978 511.372 844.444 512.122 849.265 512.518 C 854.086 512.915 858.275 513.635 858.574 514.120 C 858.873 514.604 860.865 515.000 863.000 515.000 C 865.135 515.000 867.127 515.396 867.426 515.880 C 867.725 516.365 871.800 517.080 876.481 517.470 C 881.163 517.860 885.246 518.589 885.555 519.089 C 885.865 519.590 888.090 520.000 890.500 520.000 C 892.910 520.000 895.127 520.396 895.426 520.880 C 895.725 521.365 899.800 522.080 904.481 522.470 C 909.163 522.860 913.246 523.589 913.555 524.089 C 913.865 524.590 916.090 525.000 918.500 525.000 C 920.910 525.000 923.135 525.410 923.445 525.911 C 923.754 526.411 927.837 527.140 932.519 527.530 C 937.200 527.920 941.275 528.635 941.574 529.120 C 941.873 529.604 945.219 530.000 949.008 530.000 C 955.758 530.000 955.955 529.926 958.674 526.360 L 961.451 522.721 961.451 479.000 L 961.451 435.279 958.674 431.640 C 956.035 428.180 955.608 428.000 950.008 428.000 C 946.769 428.000 943.873 428.396 943.574 428.880 C 943.275 429.365 939.200 430.080 934.519 430.470 C 929.837 430.860 925.754 431.589 925.445 432.089 C 925.135 432.590 922.910 433.000 920.500 433.000 C 918.090 433.000 915.873 433.396 915.574 433.880 C 915.275 434.365 911.200 435.080 906.519 435.470 C 901.837 435.860 897.780 436.547 897.502 436.996 C 897.225 437.446 892.716 438.135 887.483 438.527 C 882.251 438.919 877.725 439.636 877.426 440.120 C 877.127 440.604 875.360 441.000 873.500 441.000 C 871.640 441.000 869.866 441.408 869.558 441.907 C 869.249 442.406 864.716 443.135 859.483 443.527 C 854.251 443.919 849.725 444.636 849.426 445.120 C 849.127 445.604 847.424 446.000 845.641 446.000 C 843.858 446.000 841.894 446.506 841.275 447.125 C 840.578 447.822 835.459 448.298 827.825 448.375 C 816.535 448.490 815.235 448.311 812.346 446.250 C 810.611 445.013 808.790 444.000 808.299 444.000 C 806.579 444.000 800.337 436.450 797.681 431.158 C 795.501 426.814 795.000 424.442 795.000 418.467 C 795.000 414.425 795.450 410.840 796.000 410.500 C 796.550 410.160 797.000 408.846 797.000 407.580 C 797.000 406.313 798.873 402.842 801.162 399.864 C 805.692 393.973 812.032 390.208 818.993 389.274 C 821.224 388.975 823.289 388.341 823.583 387.865 C 823.877 387.389 825.640 387.000 827.500 387.000 C 829.360 387.000 831.130 386.598 831.434 386.107 C 831.738 385.615 836.152 384.891 841.243 384.496 C 846.334 384.101 850.975 383.396 851.555 382.929 C 852.135 382.462 856.311 381.771 860.836 381.393 C 865.361 381.016 869.300 380.323 869.590 379.854 C 869.881 379.384 872.026 379.000 874.359 379.000 C 876.692 379.000 879.030 378.570 879.556 378.044 C 880.082 377.518 884.236 376.777 888.788 376.397 C 893.339 376.018 897.300 375.323 897.590 374.854 C 897.881 374.384 900.026 374.000 902.359 374.000 C 904.692 374.000 907.030 373.570 907.556 373.044 C 908.082 372.518 912.236 371.777 916.788 371.397 C 921.339 371.018 925.300 370.323 925.590 369.854 C 925.881 369.384 928.090 369.000 930.500 369.000 C 932.910 369.000 935.160 368.550 935.500 368.000 C 935.840 367.450 937.597 367.000 939.404 367.000 C 943.932 367.000 946.000 364.408 946.000 358.730 C 946.000 356.194 945.603 353.872 945.117 353.572 C 944.631 353.272 943.915 350.473 943.525 347.352 C 943.135 344.231 942.407 340.850 941.908 339.839 C 941.409 338.828 940.607 337.198 940.127 336.217 C 939.647 335.237 938.946 332.874 938.569 330.967 C 937.857 327.367 936.729 324.374 934.378 319.846 C 933.620 318.386 933.000 316.275 933.000 315.155 C 933.000 314.035 932.589 312.864 932.087 312.554 C 931.585 312.243 930.855 310.079 930.465 307.745 C 930.075 305.410 928.907 302.300 927.870 300.834 C 926.832 299.368 925.691 296.668 925.334 294.834 C 924.977 293.000 923.630 289.933 922.342 288.018 C 921.054 286.103 919.990 283.628 919.978 282.518 C 919.966 281.408 919.076 279.375 918.000 278.000 C 916.924 276.625 916.034 275.016 916.022 274.424 C 915.951 270.971 907.210 267.234 905.536 269.941 C 905.216 270.459 902.827 271.910 900.227 273.167 C 897.627 274.424 894.228 276.475 892.673 277.726 C 891.119 278.977 889.060 280.000 888.098 280.000 C 887.136 280.000 885.292 281.125 884.000 282.500 C 882.708 283.875 881.044 285.000 880.301 285.000 C 879.559 285.000 876.101 286.800 872.617 289.000 C 869.134 291.200 865.623 293.000 864.816 293.000 C 864.009 293.000 862.292 294.125 861.000 295.500 C 859.708 296.875 857.985 298.000 857.170 298.000 C 856.355 298.000 854.214 299.125 852.411 300.500 C 850.608 301.875 848.835 303.000 848.471 303.000 C 848.107 303.000 846.391 304.013 844.659 305.250 C 840.280 308.377 835.263 311.000 833.659 311.000 C 832.917 311.000 831.506 311.889 830.523 312.974 C 829.540 314.060 827.783 315.238 826.618 315.591 C 825.453 315.943 823.068 317.305 821.317 318.616 C 819.566 319.927 817.808 321.000 817.411 321.000 C 817.014 321.000 815.296 322.039 813.594 323.308 C 811.892 324.577 808.700 326.399 806.500 327.356 C 804.300 328.314 801.600 329.605 800.500 330.226 C 794.945 333.361 793.238 333.988 790.236 333.994 C 788.441 333.997 786.107 334.541 785.048 335.202 C 783.587 336.114 782.566 336.128 780.812 335.259 C 779.540 334.629 776.675 333.838 774.444 333.502 C 769.979 332.828 761.227 326.840 759.425 323.225 C 758.819 322.009 757.472 320.075 756.434 318.927 C 753.635 315.834 753.037 297.900 755.548 292.380 C 757.452 288.195 765.705 279.000 767.557 279.000 C 768.180 279.000 769.494 278.111 770.477 277.026 C 771.460 275.940 773.217 274.752 774.382 274.386 C 775.547 274.021 778.786 272.264 781.579 270.482 C 784.373 268.701 787.748 266.902 789.079 266.485 C 790.411 266.068 792.772 264.663 794.327 263.363 C 795.881 262.063 797.739 261.000 798.454 261.000 C 799.170 261.000 800.357 260.275 801.093 259.388 C 801.829 258.501 804.697 256.667 807.466 255.312 C 816.224 251.025 822.685 247.393 825.522 245.161 C 827.033 243.973 828.707 243.000 829.241 243.000 C 829.774 243.000 831.548 241.875 833.182 240.500 C 834.816 239.125 836.864 238.000 837.732 238.000 C 838.601 238.000 840.704 236.976 842.406 235.724 C 844.108 234.472 847.300 232.559 849.500 231.474 C 851.700 230.388 854.772 228.488 856.327 227.250 C 857.881 226.013 859.864 225.000 860.732 225.000 C 861.601 225.000 863.786 223.875 865.589 222.500 C 867.392 221.125 869.192 220.000 869.589 220.000 C 869.986 220.000 871.816 218.852 873.656 217.449 C 876.540 215.249 877.000 214.303 877.000 210.572 C 877.000 207.946 876.410 205.756 875.500 205.000 C 874.675 204.315 874.000 203.310 874.000 202.766 C 874.000 202.223 872.200 199.628 870.000 197.000 C 867.800 194.372 866.000 191.792 866.000 191.266 C 866.000 190.740 865.047 189.453 863.882 188.405 C 862.717 187.357 861.480 185.745 861.132 184.822 C 860.784 183.898 856.788 179.096 852.250 174.150 C 847.713 169.204 844.000 164.774 844.000 164.305 C 844.000 163.836 840.400 159.874 836.000 155.500 C 831.600 151.126 828.000 147.000 828.000 146.332 C 828.000 144.269 816.394 136.000 813.499 136.000 C 810.605 136.000 808.446 137.971 800.500 147.865 C 793.909 156.072 782.422 169.526 772.750 180.369 C 770.138 183.297 768.000 186.121 768.000 186.644 C 768.000 187.166 766.200 189.352 764.000 191.500 C 761.800 193.648 760.000 195.747 760.000 196.163 C 760.000 196.579 757.750 199.024 755.000 201.597 C 752.250 204.169 750.000 206.796 750.000 207.434 C 750.000 208.072 748.200 210.352 746.000 212.500 C 743.800 214.648 742.000 216.963 742.000 217.643 C 742.000 218.324 739.750 220.778 737.000 223.097 C 734.250 225.416 732.000 227.824 732.000 228.448 C 732.000 230.375 723.720 237.674 719.500 239.468 C 717.300 240.403 714.719 241.580 713.764 242.084 C 711.514 243.271 700.486 243.271 698.236 242.084 C 697.281 241.580 694.700 240.402 692.500 239.466 C 685.033 236.290 677.000 226.475 677.000 220.528 C 677.000 219.203 676.550 217.840 676.000 217.500 C 675.450 217.160 675.000 214.910 675.000 212.500 C 675.000 210.090 675.450 207.840 676.000 207.500 C 676.550 207.160 677.000 205.408 677.000 203.607 C 677.000 201.404 678.310 198.462 681.000 194.621 C 683.200 191.481 685.000 188.705 685.000 188.453 C 685.000 188.201 686.800 186.369 689.000 184.381 C 691.200 182.393 693.000 180.339 693.000 179.815 C 693.000 178.970 699.653 171.009 713.322 155.500 C 715.746 152.750 718.256 149.488 718.900 148.250 C 719.543 147.013 720.592 146.000 721.230 146.000 C 723.034 146.000 728.000 140.822 728.000 138.942 C 728.000 138.017 729.800 135.513 731.999 133.379 C 734.199 131.246 735.999 129.097 735.999 128.604 C 736.000 128.111 738.082 125.411 740.628 122.604 C 743.173 119.797 746.773 115.818 748.628 113.763 C 750.482 111.707 752.003 109.682 752.006 109.263 C 752.010 108.843 754.260 106.061 757.006 103.080 C 761.144 98.589 762.000 97.019 762.000 93.915 C 762.000 90.621 761.411 89.708 757.108 86.335 C 754.418 84.226 749.392 80.700 745.940 78.500 C 742.489 76.300 738.502 73.727 737.082 72.782 C 735.662 71.837 733.092 70.420 731.372 69.634 C 729.652 68.847 727.955 67.737 727.602 67.165 C 727.249 66.594 724.607 64.958 721.730 63.530 C 718.854 62.102 714.925 59.979 713.000 58.811 C 707.438 55.438 690.655 47.000 689.508 47.000 C 688.934 47.000 686.809 45.875 684.785 44.500 C 682.762 43.125 679.802 42.000 678.208 42.000 C 675.321 42.000 672.000 44.590 672.000 46.842 C 672.000 47.494 671.550 48.921 671.000 50.014 C 670.450 51.106 669.550 52.894 669.000 53.986 C 668.450 55.079 668.000 56.697 668.000 57.582 C 668.000 58.467 667.380 60.386 666.622 61.846 C 664.259 66.396 663.141 69.374 662.434 73.000 C 662.058 74.925 660.970 77.625 660.014 79.000 C 659.059 80.375 657.959 83.243 657.570 85.373 C 657.181 87.503 656.482 89.978 656.016 90.873 C 653.957 94.824 652.000 99.927 652.000 101.342 C 652.000 102.189 651.609 103.124 651.131 103.419 C 650.654 103.714 649.963 105.831 649.596 108.123 C 649.230 110.414 648.108 113.462 647.104 114.895 C 646.099 116.328 644.959 119.243 644.570 121.373 C 644.181 123.503 643.500 125.978 643.057 126.873 C 639.014 135.030 637.998 137.495 637.429 140.526 C 637.068 142.449 636.374 144.269 635.887 144.570 C 635.399 144.871 635.000 146.036 635.000 147.158 C 635.000 149.025 633.202 153.903 630.916 158.236 C 630.412 159.191 630.000 160.473 630.000 161.085 C 630.000 165.744 622.092 175.040 615.303 178.361 C 613.212 179.384 610.719 180.622 609.764 181.111 C 607.510 182.265 592.284 182.269 591.572 181.116 C 591.271 180.630 589.107 179.327 586.763 178.221 C 581.732 175.848 576.051 170.545 574.133 166.432 C 573.382 164.819 572.411 162.785 571.975 161.911 C 571.540 161.037 570.875 157.844 570.496 154.816 C 569.947 150.423 570.209 148.421 571.793 144.905 C 572.885 142.482 574.104 138.475 574.502 136.000 C 574.901 133.525 575.796 130.375 576.491 129.000 C 578.805 124.427 579.877 121.534 580.566 118.000 C 580.942 116.075 582.030 113.375 582.986 112.000 C 583.941 110.625 585.041 107.757 585.430 105.627 C 585.819 103.497 586.518 101.022 586.984 100.127 C 589.043 96.176 591.000 91.073 591.000 89.658 C 591.000 88.811 591.391 87.876 591.869 87.581 C 592.346 87.286 593.030 85.215 593.387 82.978 C 593.745 80.742 594.441 78.145 594.935 77.206 C 596.767 73.720 599.000 68.162 599.000 67.085 C 599.000 66.473 599.450 65.079 600.000 63.986 C 600.550 62.894 601.450 61.106 602.000 60.014 C 602.550 58.921 603.000 57.303 603.000 56.418 C 603.000 55.533 603.620 53.614 604.378 52.154 C 606.741 47.604 607.859 44.626 608.566 41.000 C 608.942 39.075 610.096 36.302 611.131 34.837 C 612.193 33.334 613.290 29.516 613.650 26.074 C 614.179 21.015 613.981 19.636 612.489 17.988 C 611.499 16.894 609.661 16.000 608.404 16.000 C 607.147 16.000 605.859 15.581 605.543 15.070 C 605.227 14.558 602.388 13.861 599.234 13.521 C 596.080 13.181 592.719 12.474 591.764 11.951 C 590.809 11.428 589.148 11.000 588.073 11.000 C 586.998 11.000 585.869 10.597 585.565 10.105 C 585.260 9.612 581.406 8.890 577.000 8.500 C 572.594 8.110 568.762 7.424 568.484 6.975 C 568.207 6.526 563.475 5.839 557.969 5.449 C 552.462 5.059 547.715 4.348 547.419 3.870 C 547.124 3.391 544.235 3.000 541.000 3.000 C 537.765 3.000 534.840 2.550 534.500 2.000 C 534.160 1.449 529.708 1.000 524.596 1.000 C 516.926 1.000 515.027 1.313 513.682 2.799 C 512.217 4.418 512.026 11.461 511.777 73.049 L 511.500 141.500 507.782 147.153 C 503.753 153.277 499.701 157.000 497.065 157.000 C 496.149 157.000 494.939 157.461 494.376 158.024 C 492.511 159.889 482.446 160.912 475.558 159.937 C 466.122 158.601 459.036 153.600 454.391 145.000 C 452.597 141.680 452.486 137.983 452.223 73.049 C 451.974 11.461 451.783 4.418 450.318 2.799 C 448.973 1.313 447.074 1.000 439.404 1.000 C 434.292 1.000 429.840 1.449 429.500 2.000 "/></g>
</svg>
