<?xml version="1.0" standalone="no"?>
<!DOCTYPE svg PUBLIC "-//W3C//DTD SVG 1.1//EN"
  "http://www.w3.org/Graphics/SVG/1.1/DTD/svg11.dtd">
<svg width="209.5014190673828mm" height="210.04575347900385mm" viewBox="-105.50128936767578 -98.2946853637695 209.5014190673828 210.04575347900385" xmlns="http://www.w3.org/2000/svg" version="1.1">
	<title>svgOutput</title>
	<desc>made with tinkercad</desc>
<path d="M 75.12200164794922 -69.16100311279295 L 76.81240844726562 -67.23325347900389 L 84.3740005493164 -58.61000061035155 L 88.00150299072266 -53.17990875244139 L 92.16999816894531 -46.93999862670898 L 93.89092254638672 -43.44962310791015 L 98.3759994506836 -34.35300064086913 L 102.19371795654297 -23.103000640869137 L 70.86499786376953 -23.103000640869137 L 70.86499786376953 1.1102230246251565e-16 L 70.86499786376953 33.90200042724609 L 103.00012969970703 33.90200042724609 L 102.88600158691406 34.476001739501946 L 101.57135009765625 38.34999847412109 L 100.87831115722656 40.392219543457024 L 100.25982666015625 42.21475982666015 L 100.03304290771484 42.883045196533196 L 99.95941925048828 43.09999847412109 L 65.83588409423828 43.09999847412109 L 65.53600311279297 43.251480102539055 L 62.316001892089844 44.877998352050774 L 57.37799835205078 47.993999481201165 L 52.65399932861328 51.61299896240233 L 48.224998474121094 55.67200088500975 L 44.16699981689453 60.10100173950194 L 40.54999923706055 64.82599639892577 L 40.1020622253418 65.53600311279295 L 37.433998107910156 69.76499938964842 L 35.380001068115234 73.83207702636717 L 35.380001068115234 98.30400085449216 L 35.380001068115234 107.418342590332 L 35.439388275146484 107.49069976806638 L 35.26573181152344 107.54966735839841 L 34.41218185424805 107.83951568603513 L 32.95267868041992 108.33513641357419 L 30.908000946044922 109.02946472167966 L 27.034000396728516 110.3450012207031 L 24.993000030517578 110.75106811523435 L 24.993000030517578 79.56199645996092 L 0 79.56199645996092 L -32.012001037597656 79.56199645996092 L -32.012001037597656 109.15001678466794 L -41.779998779296875 105.83300018310544 L -51.50284194946289 101.03763580322263 L -54.3650016784668 99.62599945068357 L -61.19687271118164 95.06029510498045 L -66.03199768066406 91.82900238037108 L -74.6705093383789 84.25095367431639 L -76.58100128173828 82.57499694824217 L -82.33476257324219 76.01277923583983 L -85.83300018310547 72.0230026245117 L -91.55188751220703 63.463005065917955 L -93.62899780273438 60.35400009155272 L -96.98722076416016 53.542324066162095 L -99.83499908447266 47.765998840332024 L -104.34500122070312 34.476001739501946 L -104.50128936767578 33.68999862670898 L -77.6709976196289 33.68999862670898 L -77.6709976196289 1.1102230246251565e-16 L -77.6709976196289 -23.315000534057614 L -103.58078002929688 -23.315000534057614 L -99.83499908447266 -34.35300064086913 L -97.21558380126953 -39.66569519042968 L -93.62899780273438 -46.93999862670898 L -91.84481048583984 -49.6107940673828 L -85.83300018310547 -58.61000061035155 L -80.7694091796875 -64.38452911376952 L -76.58100128173828 -69.16100311279295 L -72.88614654541016 -72.4022750854492 L -66.03199768066406 -78.41500091552733 L -59.26325225830078 -82.93852233886717 L -54.3650016784668 -86.21199798583983 L -49.45116424560547 -88.63592529296874 L -41.779998779296875 -92.4199981689453 L -31.798999786376953 -95.80859374999999 L -31.798999786376953 -68.97399902343749 L 0 -68.97399902343749 L 25.20599937438965 -68.97399902343749 L 25.20599937438965 -97.2946853637695 L 27.034000396728516 -96.93099975585935 L 40.32099914550781 -92.4199981689453 L 45.49915313720703 -89.86569213867186 L 52.90599822998047 -86.21199798583983 L 55.45072555541992 -84.51137542724608 L 64.572998046875 -78.41500091552733 L 68.57994842529297 -74.89994812011717 L 75.12200164794922 -69.16100311279295 M 52.35900115966797 -77.04299926757811 L 41.97200012207031 -81.3470001220703 L 39.625999450683594 -75.68099975585936 L 50.01300048828125 -71.37599945068358 L 52.35900115966797 -77.04299926757811 M 78.30999755859375 -36.993999481201165 L 83.97699737548828 -39.34199905395507 L 79.67500305175781 -49.729999542236314 L 74.00800323486328 -47.381999969482415 L 78.30999755859375 -36.993999481201165 M 60.8489990234375 -67.1689987182617 L 68.79900360107422 -59.21799850463866 L 73.13500213623047 -63.55500030517577 L 65.18599700927734 -71.50599670410155 L 60.8489990234375 -67.1689987182617 M -81.11599731445312 -32.993999481201165 L -76.81400299072266 -43.381999969482415 L -82.4800033569336 -45.72999954223632 L -86.78199768066406 -35.34199905395507 L -81.11599731445312 -32.993999481201165 M -52.81800079345703 -67.37599945068358 L -42.430999755859375 -71.68099975585936 L -44.777000427246094 -77.3470001220703 L -55.165000915527344 -73.04299926757811 L -52.81800079345703 -67.37599945068358 M -71.6050033569336 -55.21799850463866 L -63.654998779296875 -63.168998718261705 L -67.99099731445312 -67.50599670410155 L -75.94100189208984 -59.55500030517577 L -71.6050033569336 -55.21799850463866 M -45.691001892089844 87.00700378417967 L -56.07899856567383 82.70500183105467 L -58.42599868774414 88.37100219726561 L -48.03799819946289 92.67299652099608 L -45.691001892089844 87.00700378417967 M -80.072998046875 58.70899963378905 L -84.37699890136719 48.32199859619139 L -90.04399871826172 50.66799926757811 L -85.73999786376953 61.05599975585936 L -80.072998046875 58.70899963378905 M -67.91400146484375 77.49600219726561 L -75.86499786376953 69.54599761962889 L -80.2030029296875 73.88200378417967 L -72.2509994506836 81.83200073242186 L -67.91400146484375 77.49600219726561 z" fill="none" stroke="rgb(255,0,0)" stroke-width="0.001mm" />
</svg>